G04 EAGLE Gerber X2 export*
%TF.Part,Single*%
%TF.FileFunction,Other,Top Layer*%
%TF.FilePolarity,Positive*%
%TF.GenerationSoftware,Autodesk,EAGLE,9.1.3*%
%TF.CreationDate,2018-09-03T05:04:02Z*%
G75*
%MOMM*%
%FSLAX34Y34*%
%LPD*%
%AMOC8*
5,1,8,0,0,1.08239X$1,22.5*%
G01*
%ADD10R,1.100000X1.400000*%
%ADD11R,1.200000X1.200000*%
%ADD12P,2.034460X8X112.500000*%
%ADD13R,2.400000X2.000000*%
%ADD14R,2.308000X0.500000*%
%ADD15R,0.600000X1.200000*%
%ADD16R,1.500000X1.200000*%
%ADD17R,1.600000X1.800000*%
%ADD18R,1.300000X1.500000*%
%ADD19R,1.200000X1.100000*%
%ADD20C,0.804800*%
%ADD21C,0.254000*%
%ADD22C,0.406400*%
%ADD23C,0.457200*%
%ADD24C,3.000000*%

G36*
X314176Y2541D02*
X314176Y2541D01*
X314181Y2541D01*
X314375Y2561D01*
X314572Y2581D01*
X314577Y2582D01*
X314581Y2582D01*
X314769Y2641D01*
X314957Y2699D01*
X314961Y2701D01*
X314965Y2702D01*
X315140Y2798D01*
X315311Y2891D01*
X315315Y2893D01*
X315319Y2896D01*
X315471Y3024D01*
X315620Y3148D01*
X315623Y3152D01*
X315627Y3155D01*
X315750Y3310D01*
X315873Y3462D01*
X315875Y3466D01*
X315878Y3470D01*
X315969Y3647D01*
X316058Y3819D01*
X316060Y3824D01*
X316062Y3828D01*
X316116Y4020D01*
X316170Y4206D01*
X316170Y4211D01*
X316171Y4215D01*
X316186Y4411D01*
X316203Y4608D01*
X316202Y4612D01*
X316202Y4616D01*
X316179Y4810D01*
X316156Y5007D01*
X316154Y5012D01*
X316154Y5016D01*
X316092Y5201D01*
X316031Y5390D01*
X316029Y5394D01*
X316027Y5398D01*
X315931Y5567D01*
X315833Y5741D01*
X315830Y5744D01*
X315828Y5748D01*
X315701Y5894D01*
X315570Y6045D01*
X315566Y6048D01*
X315563Y6052D01*
X315406Y6173D01*
X315252Y6292D01*
X315248Y6294D01*
X315244Y6297D01*
X314949Y6449D01*
X313639Y6991D01*
X308991Y11639D01*
X306475Y17713D01*
X306475Y24287D01*
X308991Y30361D01*
X313639Y35009D01*
X319713Y37525D01*
X326287Y37525D01*
X332361Y35009D01*
X337009Y30361D01*
X339525Y24287D01*
X339525Y17713D01*
X339325Y17231D01*
X339277Y17074D01*
X339224Y16919D01*
X339219Y16881D01*
X339208Y16845D01*
X339193Y16682D01*
X339171Y16520D01*
X339174Y16482D01*
X339170Y16444D01*
X339187Y16281D01*
X339198Y16118D01*
X339208Y16082D01*
X339212Y16044D01*
X339261Y15887D01*
X339304Y15729D01*
X339321Y15696D01*
X339332Y15660D01*
X339410Y15516D01*
X339484Y15369D01*
X339507Y15339D01*
X339525Y15306D01*
X339631Y15181D01*
X339731Y15052D01*
X339760Y15027D01*
X339784Y14998D01*
X339913Y14896D01*
X340037Y14789D01*
X340069Y14771D01*
X340099Y14747D01*
X340245Y14672D01*
X340388Y14592D01*
X340424Y14581D01*
X340457Y14563D01*
X340615Y14519D01*
X340771Y14468D01*
X340808Y14464D01*
X340845Y14454D01*
X341008Y14441D01*
X341171Y14422D01*
X341208Y14425D01*
X341246Y14422D01*
X341408Y14442D01*
X341572Y14456D01*
X341608Y14467D01*
X341646Y14471D01*
X341801Y14523D01*
X341958Y14568D01*
X341992Y14586D01*
X342028Y14598D01*
X342170Y14679D01*
X342315Y14755D01*
X342345Y14778D01*
X342378Y14797D01*
X342501Y14905D01*
X342629Y15008D01*
X342656Y15040D01*
X342681Y15062D01*
X342734Y15131D01*
X342845Y15259D01*
X344300Y17262D01*
X344377Y17394D01*
X344460Y17522D01*
X344482Y17573D01*
X344503Y17610D01*
X344531Y17691D01*
X344588Y17828D01*
X347047Y25395D01*
X347062Y25466D01*
X347087Y25535D01*
X347114Y25703D01*
X347133Y25788D01*
X347133Y25821D01*
X347140Y25863D01*
X347453Y29841D01*
X347452Y29907D01*
X347459Y30000D01*
X347459Y160000D01*
X347453Y160066D01*
X347453Y160159D01*
X347140Y164137D01*
X347127Y164209D01*
X347123Y164283D01*
X347084Y164448D01*
X347069Y164533D01*
X347057Y164564D01*
X347047Y164605D01*
X344588Y172172D01*
X344527Y172312D01*
X344472Y172455D01*
X344444Y172502D01*
X344427Y172540D01*
X344377Y172611D01*
X344300Y172738D01*
X339624Y179174D01*
X339522Y179288D01*
X339426Y179407D01*
X339384Y179443D01*
X339356Y179475D01*
X339287Y179527D01*
X339174Y179624D01*
X332738Y184300D01*
X332606Y184377D01*
X332478Y184460D01*
X332427Y184482D01*
X332390Y184503D01*
X332309Y184531D01*
X332172Y184588D01*
X324605Y187047D01*
X324534Y187062D01*
X324465Y187087D01*
X324297Y187114D01*
X324212Y187133D01*
X324179Y187133D01*
X324137Y187140D01*
X320159Y187453D01*
X320093Y187452D01*
X320000Y187459D01*
X30000Y187459D01*
X29934Y187453D01*
X29841Y187453D01*
X25863Y187140D01*
X25791Y187127D01*
X25717Y187123D01*
X25552Y187084D01*
X25467Y187069D01*
X25436Y187057D01*
X25395Y187047D01*
X17828Y184588D01*
X17688Y184527D01*
X17545Y184472D01*
X17498Y184444D01*
X17460Y184427D01*
X17389Y184377D01*
X17262Y184300D01*
X10826Y179624D01*
X10712Y179522D01*
X10593Y179426D01*
X10557Y179384D01*
X10525Y179356D01*
X10473Y179287D01*
X10376Y179174D01*
X6525Y173874D01*
X6500Y173830D01*
X6468Y173790D01*
X6398Y173657D01*
X6322Y173526D01*
X6306Y173478D01*
X6282Y173433D01*
X6240Y173288D01*
X6192Y173146D01*
X6185Y173095D01*
X6171Y173046D01*
X6158Y172896D01*
X6139Y172746D01*
X6142Y172695D01*
X6138Y172644D01*
X6155Y172495D01*
X6165Y172345D01*
X6179Y172295D01*
X6185Y172245D01*
X6231Y172101D01*
X6271Y171956D01*
X6294Y171910D01*
X6310Y171862D01*
X6384Y171731D01*
X6451Y171596D01*
X6482Y171556D01*
X6507Y171511D01*
X6606Y171397D01*
X6698Y171278D01*
X6737Y171245D01*
X6771Y171206D01*
X6889Y171114D01*
X7004Y171016D01*
X7048Y170991D01*
X7089Y170960D01*
X7223Y170893D01*
X7355Y170819D01*
X7403Y170803D01*
X7449Y170780D01*
X7595Y170741D01*
X7738Y170695D01*
X7789Y170689D01*
X7838Y170676D01*
X8069Y170657D01*
X8138Y170649D01*
X8152Y170650D01*
X8169Y170649D01*
X10773Y170649D01*
X10928Y170636D01*
X11115Y170618D01*
X11128Y170620D01*
X11142Y170618D01*
X11328Y170640D01*
X11516Y170660D01*
X11529Y170664D01*
X11542Y170665D01*
X11721Y170724D01*
X11900Y170780D01*
X11912Y170786D01*
X11925Y170790D01*
X12089Y170883D01*
X12253Y170973D01*
X12263Y170981D01*
X12275Y170988D01*
X12418Y171111D01*
X12561Y171232D01*
X12570Y171242D01*
X12580Y171251D01*
X12695Y171400D01*
X12812Y171547D01*
X12819Y171559D01*
X12827Y171569D01*
X12911Y171738D01*
X12996Y171905D01*
X13000Y171918D01*
X13006Y171930D01*
X13055Y172112D01*
X13106Y172292D01*
X13107Y172305D01*
X13111Y172319D01*
X13138Y172649D01*
X13138Y172732D01*
X14031Y173625D01*
X26294Y173625D01*
X27187Y172732D01*
X27187Y157468D01*
X26294Y156575D01*
X14031Y156575D01*
X13138Y157468D01*
X13138Y157551D01*
X13136Y157564D01*
X13138Y157578D01*
X13117Y157764D01*
X13098Y157951D01*
X13094Y157964D01*
X13092Y157978D01*
X13035Y158156D01*
X12980Y158336D01*
X12973Y158348D01*
X12969Y158361D01*
X12878Y158525D01*
X12788Y158690D01*
X12779Y158701D01*
X12773Y158712D01*
X12650Y158856D01*
X12530Y158999D01*
X12520Y159008D01*
X12511Y159018D01*
X12363Y159134D01*
X12216Y159252D01*
X12204Y159258D01*
X12194Y159266D01*
X12026Y159351D01*
X11859Y159437D01*
X11846Y159441D01*
X11834Y159447D01*
X11652Y159497D01*
X11472Y159549D01*
X11459Y159550D01*
X11446Y159553D01*
X11258Y159566D01*
X11071Y159582D01*
X11057Y159580D01*
X11044Y159581D01*
X10858Y159557D01*
X10813Y159551D01*
X8421Y159551D01*
X6382Y160396D01*
X6008Y160770D01*
X6001Y160775D01*
X5996Y160782D01*
X5847Y160902D01*
X5697Y161025D01*
X5689Y161029D01*
X5682Y161034D01*
X5513Y161122D01*
X5341Y161213D01*
X5332Y161216D01*
X5325Y161220D01*
X5141Y161273D01*
X4955Y161328D01*
X4946Y161329D01*
X4938Y161331D01*
X4747Y161347D01*
X4554Y161364D01*
X4545Y161364D01*
X4536Y161364D01*
X4347Y161342D01*
X4154Y161321D01*
X4145Y161318D01*
X4137Y161317D01*
X3954Y161258D01*
X3770Y161200D01*
X3762Y161195D01*
X3754Y161192D01*
X3585Y161097D01*
X3418Y161005D01*
X3411Y160999D01*
X3403Y160995D01*
X3258Y160869D01*
X3111Y160744D01*
X3105Y160737D01*
X3098Y160731D01*
X2981Y160580D01*
X2861Y160428D01*
X2857Y160420D01*
X2852Y160413D01*
X2765Y160240D01*
X2679Y160069D01*
X2676Y160061D01*
X2672Y160053D01*
X2622Y159864D01*
X2571Y159682D01*
X2570Y159673D01*
X2568Y159664D01*
X2541Y159333D01*
X2541Y152501D01*
X2542Y152492D01*
X2541Y152483D01*
X2562Y152291D01*
X2581Y152100D01*
X2583Y152092D01*
X2584Y152082D01*
X2642Y151899D01*
X2699Y151715D01*
X2703Y151707D01*
X2706Y151698D01*
X2799Y151530D01*
X2891Y151361D01*
X2896Y151354D01*
X2901Y151346D01*
X3026Y151199D01*
X3148Y151052D01*
X3155Y151046D01*
X3161Y151039D01*
X3313Y150920D01*
X3462Y150800D01*
X3470Y150796D01*
X3477Y150790D01*
X3651Y150702D01*
X3819Y150614D01*
X3828Y150612D01*
X3836Y150607D01*
X4023Y150556D01*
X4206Y150503D01*
X4215Y150502D01*
X4224Y150500D01*
X4416Y150486D01*
X4608Y150470D01*
X4617Y150471D01*
X4626Y150470D01*
X4817Y150495D01*
X5007Y150517D01*
X5016Y150520D01*
X5025Y150521D01*
X5037Y150525D01*
X30732Y150525D01*
X31076Y150181D01*
X31083Y150175D01*
X31088Y150168D01*
X31237Y150048D01*
X31387Y149926D01*
X31395Y149921D01*
X31402Y149916D01*
X31572Y149828D01*
X31743Y149737D01*
X31752Y149734D01*
X31759Y149730D01*
X31944Y149677D01*
X32129Y149622D01*
X32138Y149621D01*
X32146Y149619D01*
X32337Y149603D01*
X32530Y149586D01*
X32539Y149587D01*
X32548Y149586D01*
X32737Y149608D01*
X32930Y149629D01*
X32939Y149632D01*
X32947Y149633D01*
X33130Y149693D01*
X33314Y149751D01*
X33322Y149755D01*
X33330Y149758D01*
X33499Y149853D01*
X33666Y149945D01*
X33673Y149951D01*
X33681Y149956D01*
X33827Y150082D01*
X33973Y150206D01*
X33979Y150213D01*
X33986Y150219D01*
X34104Y150371D01*
X34223Y150522D01*
X34227Y150530D01*
X34232Y150537D01*
X34317Y150707D01*
X34405Y150881D01*
X34408Y150889D01*
X34412Y150897D01*
X34461Y151082D01*
X34513Y151269D01*
X34514Y151278D01*
X34516Y151286D01*
X34543Y151617D01*
X34543Y155222D01*
X34541Y155248D01*
X34543Y155275D01*
X34521Y155449D01*
X34503Y155622D01*
X34496Y155648D01*
X34492Y155674D01*
X34436Y155840D01*
X34385Y156007D01*
X34372Y156031D01*
X34364Y156056D01*
X34277Y156207D01*
X34193Y156361D01*
X34176Y156382D01*
X34163Y156405D01*
X33948Y156658D01*
X33138Y157468D01*
X33138Y172732D01*
X34031Y173625D01*
X46294Y173625D01*
X47187Y172732D01*
X47187Y170688D01*
X47189Y170670D01*
X47188Y170652D01*
X47209Y170470D01*
X47227Y170287D01*
X47232Y170270D01*
X47234Y170253D01*
X47291Y170078D01*
X47345Y169902D01*
X47354Y169887D01*
X47359Y169870D01*
X47450Y169710D01*
X47537Y169548D01*
X47548Y169535D01*
X47557Y169519D01*
X47677Y169380D01*
X47795Y169239D01*
X47809Y169228D01*
X47820Y169214D01*
X47965Y169102D01*
X48109Y168987D01*
X48124Y168979D01*
X48138Y168968D01*
X48303Y168886D01*
X48466Y168801D01*
X48483Y168796D01*
X48499Y168788D01*
X48677Y168741D01*
X48853Y168690D01*
X48871Y168688D01*
X48888Y168684D01*
X49218Y168657D01*
X57144Y168657D01*
X57162Y168659D01*
X57180Y168657D01*
X57362Y168678D01*
X57545Y168697D01*
X57562Y168702D01*
X57579Y168704D01*
X57754Y168761D01*
X57930Y168815D01*
X57945Y168823D01*
X57962Y168829D01*
X58122Y168919D01*
X58284Y169007D01*
X58297Y169018D01*
X58313Y169027D01*
X58452Y169147D01*
X58593Y169264D01*
X58604Y169278D01*
X58618Y169290D01*
X58730Y169435D01*
X58845Y169578D01*
X58853Y169594D01*
X58864Y169608D01*
X58946Y169773D01*
X59031Y169935D01*
X59036Y169952D01*
X59044Y169968D01*
X59091Y170147D01*
X59142Y170322D01*
X59144Y170340D01*
X59148Y170357D01*
X59175Y170688D01*
X59175Y172732D01*
X60098Y173654D01*
X60204Y173665D01*
X60229Y173672D01*
X60256Y173676D01*
X60422Y173731D01*
X60589Y173783D01*
X60612Y173796D01*
X60638Y173804D01*
X60789Y173891D01*
X60943Y173975D01*
X60963Y173992D01*
X60987Y174005D01*
X61240Y174220D01*
X69964Y182944D01*
X203086Y182944D01*
X209932Y176098D01*
X209932Y170688D01*
X209934Y170670D01*
X209932Y170652D01*
X209953Y170470D01*
X209972Y170287D01*
X209977Y170270D01*
X209979Y170253D01*
X210036Y170078D01*
X210090Y169902D01*
X210098Y169887D01*
X210104Y169870D01*
X210194Y169710D01*
X210282Y169548D01*
X210293Y169535D01*
X210302Y169519D01*
X210422Y169380D01*
X210539Y169239D01*
X210553Y169228D01*
X210565Y169214D01*
X210710Y169102D01*
X210853Y168987D01*
X210869Y168979D01*
X210883Y168968D01*
X211048Y168886D01*
X211210Y168801D01*
X211227Y168796D01*
X211243Y168788D01*
X211422Y168741D01*
X211597Y168690D01*
X211615Y168688D01*
X211632Y168684D01*
X211963Y168657D01*
X244361Y168657D01*
X247039Y165979D01*
X247039Y165978D01*
X267578Y145439D01*
X270257Y142761D01*
X270257Y83677D01*
X265470Y78890D01*
X265453Y78869D01*
X265432Y78852D01*
X265325Y78714D01*
X265215Y78578D01*
X265202Y78555D01*
X265186Y78533D01*
X265108Y78377D01*
X265026Y78223D01*
X265018Y78197D01*
X265006Y78173D01*
X264961Y78004D01*
X264911Y77837D01*
X264909Y77810D01*
X264902Y77784D01*
X264875Y77453D01*
X264875Y72168D01*
X263982Y71275D01*
X256718Y71275D01*
X255436Y72557D01*
X255423Y72569D01*
X255411Y72582D01*
X255267Y72696D01*
X255125Y72812D01*
X255109Y72821D01*
X255095Y72832D01*
X254931Y72915D01*
X254769Y73001D01*
X254752Y73006D01*
X254736Y73014D01*
X254559Y73064D01*
X254383Y73116D01*
X254365Y73117D01*
X254348Y73122D01*
X254165Y73136D01*
X253982Y73152D01*
X253964Y73150D01*
X253947Y73152D01*
X253765Y73129D01*
X253582Y73109D01*
X253565Y73103D01*
X253547Y73101D01*
X253374Y73043D01*
X253198Y72987D01*
X253182Y72979D01*
X253166Y72973D01*
X253007Y72882D01*
X252846Y72793D01*
X252832Y72781D01*
X252817Y72772D01*
X252564Y72557D01*
X251282Y71275D01*
X244018Y71275D01*
X242736Y72557D01*
X242723Y72569D01*
X242711Y72582D01*
X242567Y72696D01*
X242425Y72812D01*
X242409Y72821D01*
X242395Y72832D01*
X242231Y72915D01*
X242069Y73001D01*
X242052Y73006D01*
X242036Y73014D01*
X241859Y73064D01*
X241683Y73116D01*
X241665Y73117D01*
X241648Y73122D01*
X241465Y73136D01*
X241282Y73152D01*
X241264Y73150D01*
X241247Y73152D01*
X241065Y73129D01*
X240882Y73109D01*
X240865Y73103D01*
X240847Y73101D01*
X240674Y73043D01*
X240498Y72987D01*
X240482Y72979D01*
X240466Y72973D01*
X240307Y72882D01*
X240146Y72793D01*
X240132Y72781D01*
X240117Y72772D01*
X239864Y72557D01*
X238582Y71275D01*
X231318Y71275D01*
X230036Y72557D01*
X230023Y72569D01*
X230011Y72582D01*
X229867Y72696D01*
X229725Y72812D01*
X229709Y72821D01*
X229695Y72832D01*
X229531Y72915D01*
X229369Y73001D01*
X229352Y73006D01*
X229336Y73014D01*
X229159Y73064D01*
X228983Y73116D01*
X228965Y73117D01*
X228948Y73122D01*
X228765Y73136D01*
X228582Y73152D01*
X228564Y73150D01*
X228547Y73152D01*
X228365Y73129D01*
X228182Y73109D01*
X228165Y73103D01*
X228147Y73101D01*
X227974Y73043D01*
X227798Y72987D01*
X227782Y72979D01*
X227766Y72973D01*
X227607Y72882D01*
X227446Y72793D01*
X227432Y72781D01*
X227417Y72772D01*
X227164Y72557D01*
X225640Y71033D01*
X225623Y71013D01*
X225602Y70995D01*
X225495Y70857D01*
X225385Y70722D01*
X225372Y70698D01*
X225356Y70677D01*
X225278Y70520D01*
X225196Y70366D01*
X225188Y70341D01*
X225176Y70317D01*
X225131Y70147D01*
X225081Y69980D01*
X225079Y69954D01*
X225072Y69928D01*
X225045Y69597D01*
X225045Y68692D01*
X222813Y66460D01*
X219765Y63412D01*
X219759Y63405D01*
X219752Y63400D01*
X219632Y63250D01*
X219510Y63101D01*
X219505Y63093D01*
X219500Y63086D01*
X219411Y62916D01*
X219321Y62745D01*
X219318Y62736D01*
X219314Y62729D01*
X219261Y62544D01*
X219206Y62359D01*
X219205Y62350D01*
X219203Y62342D01*
X219187Y62151D01*
X219170Y61958D01*
X219171Y61949D01*
X219170Y61940D01*
X219192Y61751D01*
X219213Y61558D01*
X219216Y61549D01*
X219217Y61541D01*
X219276Y61359D01*
X219335Y61174D01*
X219339Y61166D01*
X219342Y61158D01*
X219437Y60989D01*
X219529Y60822D01*
X219535Y60815D01*
X219540Y60807D01*
X219666Y60661D01*
X219790Y60515D01*
X219797Y60509D01*
X219803Y60502D01*
X219954Y60385D01*
X220106Y60265D01*
X220114Y60261D01*
X220121Y60256D01*
X220293Y60170D01*
X220465Y60083D01*
X220473Y60080D01*
X220481Y60076D01*
X220667Y60026D01*
X220853Y59975D01*
X220862Y59974D01*
X220870Y59972D01*
X221201Y59945D01*
X271051Y59945D01*
X271078Y59947D01*
X271104Y59945D01*
X271278Y59967D01*
X271452Y59985D01*
X271477Y59992D01*
X271504Y59996D01*
X271669Y60051D01*
X271837Y60103D01*
X271860Y60116D01*
X271885Y60124D01*
X272037Y60211D01*
X272191Y60295D01*
X272211Y60312D01*
X272234Y60325D01*
X272487Y60540D01*
X293664Y81716D01*
X293675Y81730D01*
X293689Y81742D01*
X293803Y81886D01*
X293919Y82028D01*
X293927Y82044D01*
X293939Y82058D01*
X294022Y82222D01*
X294108Y82384D01*
X294113Y82401D01*
X294121Y82417D01*
X294170Y82594D01*
X294222Y82769D01*
X294224Y82787D01*
X294229Y82804D01*
X294242Y82987D01*
X294259Y83170D01*
X294257Y83188D01*
X294258Y83206D01*
X294235Y83388D01*
X294215Y83571D01*
X294210Y83588D01*
X294208Y83605D01*
X294150Y83779D01*
X294094Y83955D01*
X294085Y83970D01*
X294080Y83987D01*
X293988Y84146D01*
X293899Y84307D01*
X293888Y84320D01*
X293879Y84336D01*
X293877Y84338D01*
X293877Y93424D01*
X299898Y99445D01*
X299910Y99459D01*
X299923Y99471D01*
X300037Y99614D01*
X300153Y99757D01*
X300162Y99773D01*
X300173Y99787D01*
X300256Y99951D01*
X300342Y100112D01*
X300347Y100130D01*
X300355Y100145D01*
X300404Y100323D01*
X300457Y100498D01*
X300458Y100516D01*
X300463Y100533D01*
X300477Y100717D01*
X300493Y100899D01*
X300491Y100917D01*
X300492Y100935D01*
X300470Y101117D01*
X300450Y101300D01*
X300444Y101317D01*
X300442Y101334D01*
X300384Y101508D01*
X300328Y101683D01*
X300320Y101699D01*
X300314Y101716D01*
X300222Y101876D01*
X300133Y102036D01*
X300122Y102049D01*
X300113Y102065D01*
X299898Y102318D01*
X292861Y109355D01*
X292861Y111761D01*
X304292Y111761D01*
X304310Y111762D01*
X304327Y111761D01*
X304510Y111782D01*
X304692Y111801D01*
X304709Y111806D01*
X304727Y111808D01*
X304902Y111865D01*
X305077Y111919D01*
X305093Y111927D01*
X305110Y111933D01*
X305270Y112023D01*
X305431Y112110D01*
X305445Y112122D01*
X305461Y112131D01*
X305600Y112251D01*
X305741Y112368D01*
X305752Y112382D01*
X305765Y112394D01*
X305878Y112539D01*
X305993Y112682D01*
X306001Y112698D01*
X306012Y112712D01*
X306094Y112877D01*
X306134Y112953D01*
X306286Y113039D01*
X306448Y113127D01*
X306461Y113138D01*
X306477Y113147D01*
X306616Y113267D01*
X306757Y113385D01*
X306768Y113398D01*
X306782Y113410D01*
X306894Y113555D01*
X307009Y113698D01*
X307017Y113714D01*
X307028Y113728D01*
X307110Y113893D01*
X307195Y114056D01*
X307200Y114073D01*
X307208Y114089D01*
X307255Y114267D01*
X307306Y114442D01*
X307308Y114460D01*
X307312Y114477D01*
X307339Y114808D01*
X307339Y126239D01*
X309745Y126239D01*
X316782Y119202D01*
X316796Y119190D01*
X316807Y119177D01*
X316951Y119063D01*
X317094Y118947D01*
X317109Y118938D01*
X317123Y118927D01*
X317287Y118844D01*
X317449Y118758D01*
X317466Y118753D01*
X317482Y118745D01*
X317660Y118696D01*
X317835Y118643D01*
X317853Y118642D01*
X317870Y118637D01*
X318053Y118623D01*
X318236Y118607D01*
X318254Y118609D01*
X318272Y118608D01*
X318454Y118630D01*
X318636Y118650D01*
X318653Y118656D01*
X318671Y118658D01*
X318845Y118716D01*
X319020Y118772D01*
X319036Y118780D01*
X319053Y118786D01*
X319212Y118878D01*
X319373Y118967D01*
X319386Y118978D01*
X319402Y118987D01*
X319655Y119202D01*
X325676Y125223D01*
X334724Y125223D01*
X341123Y118824D01*
X341123Y109776D01*
X334383Y103036D01*
X334372Y103022D01*
X334358Y103011D01*
X334245Y102867D01*
X334128Y102725D01*
X334120Y102709D01*
X334109Y102695D01*
X334025Y102531D01*
X333940Y102369D01*
X333935Y102352D01*
X333926Y102336D01*
X333877Y102159D01*
X333825Y101983D01*
X333823Y101965D01*
X333818Y101948D01*
X333805Y101765D01*
X333788Y101582D01*
X333790Y101564D01*
X333789Y101547D01*
X333812Y101365D01*
X333832Y101182D01*
X333837Y101165D01*
X333840Y101147D01*
X333898Y100973D01*
X333953Y100798D01*
X333962Y100782D01*
X333968Y100766D01*
X334060Y100606D01*
X334148Y100446D01*
X334160Y100432D01*
X334169Y100417D01*
X334383Y100164D01*
X341123Y93424D01*
X341123Y84376D01*
X334383Y77636D01*
X334372Y77622D01*
X334358Y77611D01*
X334245Y77467D01*
X334128Y77325D01*
X334120Y77309D01*
X334109Y77295D01*
X334025Y77131D01*
X333940Y76969D01*
X333935Y76952D01*
X333926Y76936D01*
X333877Y76758D01*
X333825Y76583D01*
X333823Y76565D01*
X333818Y76548D01*
X333805Y76365D01*
X333788Y76182D01*
X333790Y76164D01*
X333789Y76147D01*
X333812Y75965D01*
X333832Y75782D01*
X333837Y75765D01*
X333840Y75747D01*
X333898Y75573D01*
X333953Y75398D01*
X333962Y75382D01*
X333968Y75366D01*
X334060Y75206D01*
X334148Y75046D01*
X334160Y75032D01*
X334169Y75017D01*
X334383Y74764D01*
X341123Y68024D01*
X341123Y58976D01*
X334724Y52577D01*
X325629Y52577D01*
X325578Y52619D01*
X325562Y52627D01*
X325548Y52639D01*
X325384Y52722D01*
X325222Y52808D01*
X325205Y52813D01*
X325189Y52821D01*
X325011Y52870D01*
X324836Y52922D01*
X324818Y52924D01*
X324801Y52929D01*
X324617Y52942D01*
X324435Y52959D01*
X324417Y52957D01*
X324399Y52958D01*
X324217Y52935D01*
X324035Y52915D01*
X324018Y52910D01*
X324000Y52908D01*
X323826Y52849D01*
X323651Y52794D01*
X323635Y52785D01*
X323618Y52780D01*
X323459Y52688D01*
X323298Y52599D01*
X323285Y52588D01*
X323269Y52579D01*
X323016Y52364D01*
X315483Y44830D01*
X235488Y44830D01*
X235480Y44829D01*
X235471Y44830D01*
X235279Y44809D01*
X235088Y44790D01*
X235079Y44788D01*
X235070Y44787D01*
X234888Y44729D01*
X234703Y44672D01*
X234695Y44668D01*
X234687Y44665D01*
X234518Y44572D01*
X234349Y44480D01*
X234342Y44475D01*
X234334Y44470D01*
X234186Y44345D01*
X234040Y44223D01*
X234034Y44216D01*
X234027Y44210D01*
X233908Y44059D01*
X233787Y43909D01*
X233783Y43901D01*
X233778Y43894D01*
X233691Y43723D01*
X233602Y43552D01*
X233599Y43543D01*
X233595Y43535D01*
X233544Y43350D01*
X233490Y43165D01*
X233490Y43156D01*
X233487Y43147D01*
X233473Y42955D01*
X233457Y42763D01*
X233459Y42755D01*
X233458Y42746D01*
X233482Y42555D01*
X233504Y42364D01*
X233507Y42355D01*
X233508Y42346D01*
X233569Y42165D01*
X233629Y41981D01*
X233634Y41973D01*
X233636Y41965D01*
X233732Y41799D01*
X233827Y41630D01*
X233833Y41623D01*
X233837Y41616D01*
X234052Y41363D01*
X235164Y40250D01*
X235165Y40250D01*
X237745Y37670D01*
X237745Y32003D01*
X237747Y31976D01*
X237745Y31950D01*
X237767Y31776D01*
X237785Y31602D01*
X237792Y31577D01*
X237796Y31550D01*
X237852Y31384D01*
X237903Y31217D01*
X237915Y31194D01*
X237924Y31169D01*
X238011Y31017D01*
X238095Y30863D01*
X238112Y30843D01*
X238125Y30820D01*
X238340Y30567D01*
X239864Y29043D01*
X239877Y29031D01*
X239889Y29018D01*
X240034Y28903D01*
X240175Y28788D01*
X240191Y28779D01*
X240205Y28768D01*
X240369Y28685D01*
X240531Y28599D01*
X240548Y28594D01*
X240564Y28586D01*
X240741Y28536D01*
X240917Y28484D01*
X240935Y28483D01*
X240952Y28478D01*
X241135Y28464D01*
X241318Y28448D01*
X241336Y28450D01*
X241353Y28448D01*
X241535Y28471D01*
X241718Y28491D01*
X241735Y28497D01*
X241753Y28499D01*
X241926Y28557D01*
X242102Y28613D01*
X242118Y28621D01*
X242134Y28627D01*
X242293Y28718D01*
X242454Y28807D01*
X242468Y28819D01*
X242483Y28828D01*
X242736Y29043D01*
X244018Y30325D01*
X251282Y30325D01*
X251955Y29651D01*
X252019Y29599D01*
X252076Y29540D01*
X252174Y29472D01*
X252267Y29396D01*
X252339Y29358D01*
X252407Y29311D01*
X252517Y29264D01*
X252622Y29207D01*
X252701Y29184D01*
X252777Y29152D01*
X252894Y29127D01*
X253008Y29093D01*
X253090Y29085D01*
X253171Y29068D01*
X253290Y29067D01*
X253409Y29056D01*
X253491Y29065D01*
X253573Y29064D01*
X253690Y29087D01*
X253809Y29100D01*
X253888Y29125D01*
X253969Y29140D01*
X254079Y29185D01*
X254193Y29221D01*
X254265Y29261D01*
X254341Y29292D01*
X254441Y29358D01*
X254546Y29416D01*
X254608Y29469D01*
X254677Y29515D01*
X254761Y29599D01*
X254853Y29677D01*
X254904Y29741D01*
X254962Y29799D01*
X255048Y29924D01*
X255102Y29992D01*
X255121Y30029D01*
X255151Y30072D01*
X255317Y30360D01*
X255790Y30833D01*
X256369Y31168D01*
X257015Y31341D01*
X258319Y31341D01*
X258319Y22800D01*
X258319Y14259D01*
X257015Y14259D01*
X256369Y14432D01*
X255790Y14767D01*
X255661Y14896D01*
X255658Y14899D01*
X255655Y14902D01*
X255501Y15027D01*
X255350Y15151D01*
X255346Y15153D01*
X255342Y15156D01*
X255163Y15250D01*
X254994Y15339D01*
X254990Y15341D01*
X254986Y15343D01*
X254794Y15399D01*
X254608Y15454D01*
X254604Y15455D01*
X254599Y15456D01*
X254406Y15472D01*
X254207Y15491D01*
X254202Y15490D01*
X254198Y15490D01*
X254009Y15469D01*
X253807Y15447D01*
X253802Y15446D01*
X253798Y15445D01*
X253612Y15386D01*
X253423Y15326D01*
X253419Y15324D01*
X253415Y15322D01*
X253241Y15225D01*
X253071Y15131D01*
X253067Y15128D01*
X253063Y15126D01*
X252911Y14995D01*
X252764Y14870D01*
X252761Y14867D01*
X252757Y14864D01*
X252636Y14708D01*
X252514Y14554D01*
X252512Y14550D01*
X252509Y14547D01*
X252420Y14370D01*
X252332Y14195D01*
X252330Y14191D01*
X252328Y14187D01*
X252276Y13997D01*
X252224Y13808D01*
X252223Y13803D01*
X252222Y13799D01*
X252209Y13603D01*
X252194Y13406D01*
X252195Y13402D01*
X252195Y13397D01*
X252220Y13201D01*
X252245Y13007D01*
X252246Y13002D01*
X252247Y12998D01*
X252348Y12682D01*
X253199Y10629D01*
X253199Y8421D01*
X252354Y6382D01*
X251980Y6008D01*
X251975Y6001D01*
X251968Y5996D01*
X251848Y5847D01*
X251725Y5697D01*
X251721Y5689D01*
X251716Y5682D01*
X251628Y5513D01*
X251537Y5341D01*
X251534Y5332D01*
X251530Y5325D01*
X251477Y5141D01*
X251422Y4955D01*
X251421Y4946D01*
X251419Y4938D01*
X251403Y4747D01*
X251386Y4554D01*
X251386Y4545D01*
X251386Y4536D01*
X251408Y4347D01*
X251429Y4154D01*
X251432Y4145D01*
X251433Y4137D01*
X251492Y3954D01*
X251550Y3770D01*
X251555Y3762D01*
X251558Y3754D01*
X251653Y3585D01*
X251745Y3418D01*
X251751Y3411D01*
X251755Y3403D01*
X251881Y3258D01*
X252006Y3111D01*
X252013Y3105D01*
X252019Y3098D01*
X252170Y2981D01*
X252322Y2861D01*
X252330Y2857D01*
X252337Y2852D01*
X252510Y2765D01*
X252681Y2679D01*
X252689Y2676D01*
X252697Y2672D01*
X252886Y2622D01*
X253068Y2571D01*
X253077Y2570D01*
X253086Y2568D01*
X253417Y2541D01*
X314172Y2541D01*
X314176Y2541D01*
G37*
G36*
X241892Y2542D02*
X241892Y2542D01*
X241901Y2541D01*
X242091Y2561D01*
X242284Y2581D01*
X242292Y2583D01*
X242301Y2584D01*
X242485Y2642D01*
X242669Y2699D01*
X242677Y2703D01*
X242685Y2706D01*
X242854Y2799D01*
X243023Y2891D01*
X243030Y2896D01*
X243038Y2901D01*
X243184Y3025D01*
X243332Y3148D01*
X243338Y3155D01*
X243345Y3161D01*
X243464Y3312D01*
X243584Y3462D01*
X243589Y3470D01*
X243594Y3477D01*
X243682Y3649D01*
X243770Y3819D01*
X243772Y3828D01*
X243776Y3836D01*
X243828Y4021D01*
X243881Y4206D01*
X243882Y4215D01*
X243884Y4224D01*
X243899Y4416D01*
X243914Y4608D01*
X243913Y4616D01*
X243914Y4625D01*
X243890Y4817D01*
X243867Y5007D01*
X243865Y5016D01*
X243863Y5025D01*
X243802Y5207D01*
X243742Y5390D01*
X243738Y5398D01*
X243735Y5406D01*
X243639Y5574D01*
X243545Y5741D01*
X243539Y5748D01*
X243534Y5755D01*
X243320Y6008D01*
X242946Y6382D01*
X242101Y8421D01*
X242101Y10629D01*
X242946Y12668D01*
X243349Y13072D01*
X243361Y13086D01*
X243374Y13097D01*
X243488Y13241D01*
X243605Y13383D01*
X243613Y13399D01*
X243624Y13413D01*
X243707Y13577D01*
X243793Y13739D01*
X243798Y13756D01*
X243806Y13772D01*
X243855Y13948D01*
X243908Y14125D01*
X243910Y14143D01*
X243914Y14160D01*
X243928Y14343D01*
X243944Y14526D01*
X243942Y14543D01*
X243944Y14561D01*
X243921Y14743D01*
X243901Y14926D01*
X243896Y14943D01*
X243893Y14961D01*
X243835Y15134D01*
X243779Y15310D01*
X243771Y15325D01*
X243765Y15342D01*
X243673Y15502D01*
X243585Y15662D01*
X243573Y15676D01*
X243564Y15691D01*
X243349Y15944D01*
X242736Y16557D01*
X242722Y16569D01*
X242711Y16582D01*
X242566Y16697D01*
X242425Y16812D01*
X242409Y16821D01*
X242395Y16832D01*
X242231Y16915D01*
X242069Y17001D01*
X242052Y17006D01*
X242036Y17014D01*
X241859Y17064D01*
X241683Y17116D01*
X241665Y17117D01*
X241648Y17122D01*
X241464Y17136D01*
X241282Y17152D01*
X241265Y17150D01*
X241247Y17152D01*
X241063Y17128D01*
X240882Y17109D01*
X240865Y17103D01*
X240847Y17101D01*
X240673Y17043D01*
X240498Y16987D01*
X240482Y16979D01*
X240466Y16973D01*
X240307Y16882D01*
X240146Y16792D01*
X240132Y16781D01*
X240117Y16772D01*
X239864Y16557D01*
X238582Y15275D01*
X231318Y15275D01*
X230036Y16557D01*
X230022Y16569D01*
X230011Y16582D01*
X229867Y16696D01*
X229725Y16812D01*
X229709Y16821D01*
X229695Y16832D01*
X229531Y16915D01*
X229369Y17001D01*
X229352Y17006D01*
X229336Y17014D01*
X229159Y17064D01*
X228983Y17116D01*
X228965Y17117D01*
X228948Y17122D01*
X228765Y17136D01*
X228582Y17152D01*
X228564Y17150D01*
X228547Y17152D01*
X228365Y17129D01*
X228182Y17109D01*
X228165Y17103D01*
X228147Y17101D01*
X227973Y17043D01*
X227798Y16987D01*
X227782Y16979D01*
X227766Y16973D01*
X227607Y16881D01*
X227446Y16793D01*
X227432Y16781D01*
X227417Y16772D01*
X227164Y16557D01*
X225882Y15275D01*
X218618Y15275D01*
X217336Y16557D01*
X217322Y16569D01*
X217311Y16582D01*
X217167Y16696D01*
X217025Y16812D01*
X217009Y16821D01*
X216995Y16832D01*
X216831Y16915D01*
X216669Y17001D01*
X216652Y17006D01*
X216636Y17014D01*
X216459Y17064D01*
X216283Y17116D01*
X216265Y17117D01*
X216248Y17122D01*
X216065Y17136D01*
X215882Y17152D01*
X215864Y17150D01*
X215847Y17152D01*
X215665Y17129D01*
X215482Y17109D01*
X215465Y17103D01*
X215447Y17101D01*
X215273Y17043D01*
X215098Y16987D01*
X215082Y16979D01*
X215066Y16973D01*
X214907Y16881D01*
X214746Y16793D01*
X214732Y16781D01*
X214717Y16772D01*
X214464Y16557D01*
X213182Y15275D01*
X205918Y15275D01*
X204636Y16557D01*
X204622Y16569D01*
X204611Y16582D01*
X204467Y16696D01*
X204325Y16812D01*
X204309Y16821D01*
X204295Y16832D01*
X204131Y16915D01*
X203969Y17001D01*
X203952Y17006D01*
X203936Y17014D01*
X203759Y17064D01*
X203583Y17116D01*
X203565Y17117D01*
X203548Y17122D01*
X203365Y17136D01*
X203182Y17152D01*
X203164Y17150D01*
X203147Y17152D01*
X202965Y17129D01*
X202782Y17109D01*
X202765Y17103D01*
X202747Y17101D01*
X202574Y17043D01*
X202398Y16987D01*
X202382Y16979D01*
X202366Y16973D01*
X202206Y16881D01*
X202046Y16793D01*
X202032Y16781D01*
X202017Y16772D01*
X201764Y16557D01*
X200240Y15033D01*
X200223Y15013D01*
X200202Y14995D01*
X200095Y14857D01*
X199985Y14722D01*
X199972Y14698D01*
X199956Y14677D01*
X199878Y14520D01*
X199796Y14366D01*
X199788Y14341D01*
X199776Y14317D01*
X199731Y14147D01*
X199681Y13980D01*
X199679Y13954D01*
X199672Y13928D01*
X199645Y13597D01*
X199645Y13130D01*
X196420Y9905D01*
X176642Y9905D01*
X171830Y14717D01*
X171830Y42433D01*
X180285Y50888D01*
X180291Y50895D01*
X180298Y50900D01*
X180418Y51050D01*
X180540Y51199D01*
X180545Y51207D01*
X180550Y51214D01*
X180639Y51384D01*
X180729Y51555D01*
X180732Y51564D01*
X180736Y51571D01*
X180789Y51756D01*
X180844Y51941D01*
X180845Y51950D01*
X180847Y51958D01*
X180863Y52150D01*
X180880Y52342D01*
X180879Y52351D01*
X180880Y52360D01*
X180858Y52549D01*
X180837Y52742D01*
X180834Y52751D01*
X180833Y52759D01*
X180774Y52941D01*
X180715Y53126D01*
X180711Y53134D01*
X180708Y53142D01*
X180614Y53310D01*
X180521Y53478D01*
X180515Y53485D01*
X180510Y53493D01*
X180384Y53639D01*
X180260Y53785D01*
X180253Y53791D01*
X180247Y53798D01*
X180096Y53915D01*
X179944Y54035D01*
X179936Y54039D01*
X179929Y54044D01*
X179757Y54130D01*
X179585Y54217D01*
X179577Y54220D01*
X179569Y54224D01*
X179382Y54274D01*
X179197Y54325D01*
X179188Y54326D01*
X179180Y54328D01*
X178849Y54355D01*
X154399Y54355D01*
X154372Y54353D01*
X154346Y54355D01*
X154172Y54333D01*
X153998Y54315D01*
X153973Y54308D01*
X153946Y54304D01*
X153781Y54249D01*
X153613Y54197D01*
X153590Y54184D01*
X153565Y54176D01*
X153413Y54089D01*
X153259Y54005D01*
X153239Y53988D01*
X153216Y53975D01*
X152963Y53760D01*
X144033Y44830D01*
X127430Y44830D01*
X124205Y48055D01*
X124205Y52944D01*
X124203Y52962D01*
X124205Y52980D01*
X124184Y53162D01*
X124165Y53345D01*
X124160Y53362D01*
X124158Y53379D01*
X124101Y53554D01*
X124047Y53730D01*
X124039Y53745D01*
X124033Y53762D01*
X123943Y53922D01*
X123855Y54084D01*
X123844Y54097D01*
X123835Y54113D01*
X123715Y54252D01*
X123598Y54393D01*
X123584Y54404D01*
X123572Y54418D01*
X123427Y54530D01*
X123284Y54645D01*
X123268Y54653D01*
X123254Y54664D01*
X123089Y54746D01*
X122927Y54831D01*
X122910Y54836D01*
X122894Y54844D01*
X122715Y54891D01*
X122540Y54942D01*
X122522Y54944D01*
X122505Y54948D01*
X122174Y54975D01*
X110868Y54975D01*
X109975Y55868D01*
X109975Y71132D01*
X110868Y72025D01*
X112174Y72025D01*
X112192Y72027D01*
X112210Y72025D01*
X112392Y72046D01*
X112575Y72065D01*
X112592Y72070D01*
X112609Y72072D01*
X112784Y72129D01*
X112960Y72183D01*
X112975Y72191D01*
X112992Y72197D01*
X113152Y72287D01*
X113314Y72375D01*
X113327Y72386D01*
X113343Y72395D01*
X113482Y72515D01*
X113623Y72632D01*
X113634Y72646D01*
X113648Y72658D01*
X113760Y72803D01*
X113875Y72946D01*
X113883Y72962D01*
X113894Y72976D01*
X113976Y73141D01*
X114061Y73303D01*
X114066Y73320D01*
X114074Y73336D01*
X114121Y73515D01*
X114172Y73690D01*
X114174Y73708D01*
X114178Y73725D01*
X114205Y74056D01*
X114205Y79344D01*
X114203Y79362D01*
X114205Y79380D01*
X114184Y79562D01*
X114165Y79745D01*
X114160Y79762D01*
X114158Y79779D01*
X114101Y79954D01*
X114047Y80130D01*
X114039Y80145D01*
X114033Y80162D01*
X113943Y80322D01*
X113855Y80484D01*
X113844Y80497D01*
X113835Y80513D01*
X113715Y80652D01*
X113598Y80793D01*
X113584Y80804D01*
X113572Y80818D01*
X113427Y80930D01*
X113284Y81045D01*
X113268Y81053D01*
X113254Y81064D01*
X113089Y81146D01*
X112927Y81231D01*
X112910Y81236D01*
X112894Y81244D01*
X112715Y81291D01*
X112540Y81342D01*
X112522Y81344D01*
X112505Y81348D01*
X112174Y81375D01*
X104368Y81375D01*
X103475Y82268D01*
X103475Y84074D01*
X103473Y84092D01*
X103475Y84110D01*
X103454Y84292D01*
X103435Y84475D01*
X103430Y84492D01*
X103428Y84509D01*
X103371Y84684D01*
X103317Y84860D01*
X103309Y84875D01*
X103303Y84892D01*
X103213Y85052D01*
X103125Y85214D01*
X103114Y85227D01*
X103105Y85243D01*
X102985Y85382D01*
X102868Y85523D01*
X102854Y85534D01*
X102842Y85548D01*
X102697Y85660D01*
X102554Y85775D01*
X102538Y85783D01*
X102524Y85794D01*
X102359Y85876D01*
X102197Y85961D01*
X102180Y85966D01*
X102164Y85974D01*
X101985Y86021D01*
X101810Y86072D01*
X101792Y86074D01*
X101775Y86078D01*
X101444Y86105D01*
X98855Y86105D01*
X95272Y89688D01*
X95265Y89694D01*
X95260Y89700D01*
X95110Y89821D01*
X94961Y89943D01*
X94953Y89947D01*
X94946Y89953D01*
X94776Y90041D01*
X94605Y90132D01*
X94596Y90134D01*
X94589Y90138D01*
X94404Y90191D01*
X94219Y90246D01*
X94210Y90247D01*
X94202Y90250D01*
X94010Y90265D01*
X93818Y90283D01*
X93809Y90282D01*
X93800Y90283D01*
X93611Y90260D01*
X93418Y90239D01*
X93409Y90237D01*
X93401Y90236D01*
X93219Y90176D01*
X93034Y90118D01*
X93026Y90114D01*
X93018Y90111D01*
X92849Y90016D01*
X92682Y89923D01*
X92675Y89917D01*
X92667Y89913D01*
X92521Y89787D01*
X92375Y89663D01*
X92369Y89656D01*
X92362Y89650D01*
X92245Y89498D01*
X92125Y89347D01*
X92121Y89339D01*
X92116Y89332D01*
X92030Y89159D01*
X91943Y88988D01*
X91940Y88979D01*
X91936Y88971D01*
X91886Y88785D01*
X91835Y88600D01*
X91834Y88591D01*
X91832Y88582D01*
X91805Y88252D01*
X91805Y84410D01*
X91807Y84383D01*
X91805Y84356D01*
X91827Y84183D01*
X91845Y84009D01*
X91852Y83984D01*
X91856Y83957D01*
X91911Y83791D01*
X91963Y83624D01*
X91976Y83601D01*
X91984Y83575D01*
X92071Y83424D01*
X92155Y83270D01*
X92172Y83250D01*
X92185Y83226D01*
X92285Y83108D01*
X92648Y82481D01*
X92821Y81835D01*
X92821Y81031D01*
X78740Y81031D01*
X64659Y81031D01*
X64659Y81835D01*
X64832Y82481D01*
X65201Y83120D01*
X65225Y83150D01*
X65335Y83285D01*
X65348Y83309D01*
X65364Y83330D01*
X65442Y83487D01*
X65524Y83641D01*
X65532Y83666D01*
X65544Y83690D01*
X65589Y83860D01*
X65639Y84027D01*
X65641Y84053D01*
X65648Y84079D01*
X65675Y84410D01*
X65675Y90692D01*
X65686Y90835D01*
X65702Y91018D01*
X65700Y91036D01*
X65702Y91055D01*
X65679Y91235D01*
X65675Y91267D01*
X65675Y98692D01*
X65686Y98835D01*
X65702Y99018D01*
X65700Y99036D01*
X65702Y99055D01*
X65679Y99235D01*
X65675Y99267D01*
X65675Y103007D01*
X65674Y103016D01*
X65675Y103025D01*
X65654Y103218D01*
X65635Y103408D01*
X65633Y103416D01*
X65632Y103425D01*
X65573Y103610D01*
X65517Y103793D01*
X65513Y103801D01*
X65510Y103809D01*
X65418Y103976D01*
X65325Y104147D01*
X65320Y104154D01*
X65315Y104161D01*
X65191Y104309D01*
X65068Y104456D01*
X65061Y104462D01*
X65055Y104468D01*
X64903Y104588D01*
X64754Y104708D01*
X64746Y104713D01*
X64739Y104718D01*
X64566Y104806D01*
X64397Y104894D01*
X64388Y104896D01*
X64380Y104900D01*
X64194Y104952D01*
X64010Y105005D01*
X64001Y105006D01*
X63992Y105008D01*
X63799Y105023D01*
X63608Y105038D01*
X63600Y105037D01*
X63591Y105038D01*
X63398Y105013D01*
X63209Y104991D01*
X63200Y104989D01*
X63191Y104987D01*
X63008Y104926D01*
X62826Y104866D01*
X62818Y104862D01*
X62810Y104859D01*
X62643Y104763D01*
X62475Y104669D01*
X62468Y104663D01*
X62461Y104658D01*
X62208Y104444D01*
X42506Y84741D01*
X42489Y84721D01*
X42468Y84703D01*
X42361Y84565D01*
X42251Y84430D01*
X42238Y84406D01*
X42222Y84385D01*
X42144Y84228D01*
X42062Y84074D01*
X42054Y84049D01*
X42042Y84025D01*
X41997Y83855D01*
X41947Y83688D01*
X41945Y83662D01*
X41938Y83636D01*
X41911Y83305D01*
X41911Y81097D01*
X41912Y81084D01*
X41911Y81070D01*
X41932Y80884D01*
X41951Y80696D01*
X41955Y80684D01*
X41956Y80670D01*
X42013Y80492D01*
X42069Y80312D01*
X42075Y80300D01*
X42079Y80287D01*
X42171Y80123D01*
X42261Y79958D01*
X42269Y79947D01*
X42276Y79936D01*
X42399Y79792D01*
X42518Y79648D01*
X42529Y79640D01*
X42537Y79630D01*
X42686Y79513D01*
X42832Y79396D01*
X42844Y79390D01*
X42854Y79382D01*
X43024Y79297D01*
X43189Y79210D01*
X43202Y79207D01*
X43214Y79201D01*
X43396Y79151D01*
X43576Y79099D01*
X43590Y79098D01*
X43603Y79094D01*
X43789Y79082D01*
X43978Y79066D01*
X43991Y79068D01*
X44004Y79067D01*
X44191Y79091D01*
X44377Y79113D01*
X44390Y79117D01*
X44403Y79119D01*
X44719Y79220D01*
X46700Y80041D01*
X49500Y80041D01*
X52088Y78969D01*
X54069Y76988D01*
X55141Y74400D01*
X55141Y71600D01*
X54069Y69012D01*
X52088Y67031D01*
X49500Y65959D01*
X46700Y65959D01*
X44719Y66780D01*
X44706Y66783D01*
X44695Y66790D01*
X44514Y66842D01*
X44334Y66896D01*
X44321Y66897D01*
X44308Y66901D01*
X44119Y66916D01*
X43933Y66934D01*
X43920Y66933D01*
X43906Y66934D01*
X43720Y66912D01*
X43533Y66892D01*
X43520Y66888D01*
X43507Y66887D01*
X43329Y66829D01*
X43148Y66773D01*
X43137Y66766D01*
X43124Y66762D01*
X42960Y66670D01*
X42795Y66579D01*
X42785Y66571D01*
X42773Y66564D01*
X42631Y66441D01*
X42487Y66320D01*
X42479Y66310D01*
X42468Y66301D01*
X42354Y66153D01*
X42236Y66005D01*
X42230Y65993D01*
X42222Y65983D01*
X42138Y65815D01*
X42052Y65647D01*
X42048Y65634D01*
X42042Y65622D01*
X41993Y65440D01*
X41942Y65260D01*
X41941Y65247D01*
X41938Y65234D01*
X41911Y64903D01*
X41911Y56395D01*
X41913Y56368D01*
X41911Y56342D01*
X41933Y56168D01*
X41951Y55994D01*
X41958Y55969D01*
X41962Y55942D01*
X42017Y55776D01*
X42069Y55609D01*
X42082Y55586D01*
X42090Y55560D01*
X42177Y55409D01*
X42261Y55255D01*
X42278Y55235D01*
X42291Y55212D01*
X42506Y54959D01*
X56108Y41356D01*
X56115Y41351D01*
X56120Y41344D01*
X56270Y41224D01*
X56419Y41101D01*
X56427Y41097D01*
X56434Y41092D01*
X56604Y41003D01*
X56775Y40913D01*
X56784Y40910D01*
X56791Y40906D01*
X56976Y40853D01*
X57161Y40798D01*
X57170Y40797D01*
X57178Y40795D01*
X57370Y40779D01*
X57562Y40762D01*
X57571Y40763D01*
X57580Y40762D01*
X57769Y40784D01*
X57962Y40805D01*
X57971Y40808D01*
X57979Y40809D01*
X58161Y40868D01*
X58346Y40926D01*
X58354Y40931D01*
X58362Y40934D01*
X58531Y41029D01*
X58698Y41121D01*
X58705Y41127D01*
X58713Y41131D01*
X58859Y41257D01*
X59005Y41382D01*
X59011Y41389D01*
X59018Y41395D01*
X59135Y41546D01*
X59255Y41698D01*
X59259Y41706D01*
X59264Y41713D01*
X59350Y41885D01*
X59437Y42057D01*
X59440Y42065D01*
X59444Y42073D01*
X59494Y42260D01*
X59545Y42445D01*
X59546Y42453D01*
X59548Y42462D01*
X59575Y42793D01*
X59575Y61632D01*
X60468Y62525D01*
X85732Y62525D01*
X86625Y61632D01*
X86625Y40368D01*
X85732Y39475D01*
X62893Y39475D01*
X62884Y39474D01*
X62875Y39475D01*
X62682Y39454D01*
X62492Y39435D01*
X62484Y39433D01*
X62475Y39432D01*
X62290Y39373D01*
X62107Y39317D01*
X62099Y39313D01*
X62091Y39310D01*
X61923Y39217D01*
X61753Y39125D01*
X61746Y39120D01*
X61739Y39115D01*
X61591Y38991D01*
X61444Y38868D01*
X61438Y38861D01*
X61432Y38855D01*
X61312Y38703D01*
X61192Y38554D01*
X61187Y38546D01*
X61182Y38539D01*
X61094Y38366D01*
X61006Y38197D01*
X61004Y38188D01*
X61000Y38180D01*
X60948Y37993D01*
X60895Y37810D01*
X60894Y37801D01*
X60892Y37792D01*
X60877Y37599D01*
X60862Y37408D01*
X60863Y37400D01*
X60862Y37391D01*
X60886Y37198D01*
X60909Y37009D01*
X60911Y37000D01*
X60913Y36991D01*
X60974Y36809D01*
X61034Y36626D01*
X61038Y36618D01*
X61041Y36610D01*
X61137Y36443D01*
X61231Y36275D01*
X61237Y36268D01*
X61242Y36261D01*
X61456Y36008D01*
X64082Y33382D01*
X64103Y33365D01*
X64120Y33345D01*
X64258Y33238D01*
X64393Y33127D01*
X64417Y33115D01*
X64438Y33098D01*
X64595Y33020D01*
X64749Y32938D01*
X64775Y32931D01*
X64799Y32919D01*
X64968Y32873D01*
X65135Y32824D01*
X65162Y32821D01*
X65188Y32814D01*
X65518Y32787D01*
X78119Y32787D01*
X79012Y31894D01*
X79012Y12631D01*
X78119Y11738D01*
X60856Y11738D01*
X59963Y12631D01*
X59963Y25882D01*
X59960Y25908D01*
X59962Y25935D01*
X59940Y26109D01*
X59923Y26282D01*
X59915Y26308D01*
X59912Y26334D01*
X59856Y26500D01*
X59805Y26667D01*
X59792Y26691D01*
X59783Y26716D01*
X59696Y26868D01*
X59613Y27021D01*
X59596Y27042D01*
X59583Y27065D01*
X59368Y27318D01*
X55658Y31028D01*
X55601Y31075D01*
X55550Y31128D01*
X55445Y31202D01*
X55346Y31283D01*
X55281Y31318D01*
X55221Y31360D01*
X55104Y31412D01*
X54990Y31472D01*
X54920Y31493D01*
X54853Y31522D01*
X54728Y31550D01*
X54604Y31587D01*
X54531Y31593D01*
X54460Y31609D01*
X54332Y31612D01*
X54203Y31623D01*
X54130Y31615D01*
X54057Y31617D01*
X53931Y31594D01*
X53803Y31580D01*
X53733Y31558D01*
X53661Y31545D01*
X53542Y31497D01*
X53419Y31458D01*
X53355Y31423D01*
X53287Y31396D01*
X53179Y31325D01*
X53067Y31263D01*
X53011Y31216D01*
X52950Y31176D01*
X52858Y31086D01*
X52760Y31003D01*
X52715Y30945D01*
X52662Y30894D01*
X52590Y30788D01*
X52510Y30687D01*
X52477Y30622D01*
X52436Y30561D01*
X52386Y30443D01*
X52328Y30328D01*
X52308Y30258D01*
X52280Y30190D01*
X52255Y30064D01*
X52220Y29940D01*
X52215Y29867D01*
X52200Y29795D01*
X52200Y29667D01*
X52191Y29539D01*
X52200Y29466D01*
X52200Y29393D01*
X52230Y29226D01*
X52241Y29139D01*
X52252Y29108D01*
X52259Y29066D01*
X52378Y28622D01*
X52378Y25287D01*
X46837Y25287D01*
X46837Y30828D01*
X50172Y30828D01*
X50616Y30709D01*
X50689Y30697D01*
X50759Y30676D01*
X50887Y30665D01*
X51014Y30644D01*
X51087Y30647D01*
X51160Y30640D01*
X51288Y30654D01*
X51416Y30659D01*
X51487Y30676D01*
X51560Y30683D01*
X51683Y30722D01*
X51808Y30752D01*
X51874Y30783D01*
X51944Y30805D01*
X52056Y30867D01*
X52173Y30921D01*
X52232Y30964D01*
X52296Y31000D01*
X52394Y31083D01*
X52498Y31159D01*
X52547Y31213D01*
X52603Y31260D01*
X52683Y31361D01*
X52770Y31456D01*
X52807Y31519D01*
X52853Y31576D01*
X52911Y31691D01*
X52977Y31801D01*
X53002Y31870D01*
X53035Y31935D01*
X53070Y32059D01*
X53113Y32180D01*
X53124Y32252D01*
X53143Y32323D01*
X53153Y32451D01*
X53171Y32578D01*
X53167Y32651D01*
X53173Y32725D01*
X53156Y32852D01*
X53150Y32980D01*
X53131Y33051D01*
X53122Y33124D01*
X53081Y33246D01*
X53049Y33370D01*
X53017Y33436D01*
X52994Y33506D01*
X52930Y33617D01*
X52874Y33733D01*
X52830Y33791D01*
X52793Y33855D01*
X52683Y33984D01*
X52630Y34053D01*
X52606Y34075D01*
X52578Y34108D01*
X35092Y51594D01*
X35085Y51599D01*
X35080Y51606D01*
X34930Y51726D01*
X34781Y51849D01*
X34773Y51853D01*
X34766Y51858D01*
X34595Y51947D01*
X34425Y52037D01*
X34417Y52040D01*
X34409Y52044D01*
X34223Y52097D01*
X34039Y52152D01*
X34030Y52153D01*
X34022Y52155D01*
X33830Y52171D01*
X33638Y52188D01*
X33629Y52187D01*
X33620Y52188D01*
X33431Y52166D01*
X33238Y52145D01*
X33229Y52142D01*
X33221Y52141D01*
X33039Y52082D01*
X32854Y52024D01*
X32846Y52019D01*
X32838Y52016D01*
X32669Y51921D01*
X32502Y51829D01*
X32495Y51823D01*
X32487Y51819D01*
X32341Y51693D01*
X32195Y51568D01*
X32189Y51561D01*
X32182Y51555D01*
X32065Y51404D01*
X31945Y51252D01*
X31941Y51244D01*
X31936Y51237D01*
X31850Y51065D01*
X31763Y50893D01*
X31760Y50885D01*
X31756Y50877D01*
X31706Y50690D01*
X31655Y50505D01*
X31654Y50497D01*
X31652Y50488D01*
X31625Y50157D01*
X31625Y40368D01*
X30732Y39475D01*
X5018Y39475D01*
X4956Y39494D01*
X4947Y39495D01*
X4938Y39497D01*
X4746Y39513D01*
X4555Y39530D01*
X4546Y39529D01*
X4536Y39530D01*
X4346Y39508D01*
X4155Y39487D01*
X4146Y39484D01*
X4137Y39483D01*
X3954Y39423D01*
X3771Y39366D01*
X3763Y39361D01*
X3754Y39358D01*
X3587Y39264D01*
X3418Y39171D01*
X3411Y39165D01*
X3403Y39160D01*
X3258Y39035D01*
X3111Y38910D01*
X3105Y38903D01*
X3098Y38897D01*
X2981Y38746D01*
X2861Y38595D01*
X2857Y38586D01*
X2852Y38579D01*
X2766Y38407D01*
X2679Y38236D01*
X2677Y38227D01*
X2672Y38219D01*
X2622Y38032D01*
X2571Y37848D01*
X2570Y37839D01*
X2568Y37830D01*
X2541Y37499D01*
X2541Y30000D01*
X2547Y29934D01*
X2547Y29841D01*
X2578Y29451D01*
X2601Y29322D01*
X2615Y29192D01*
X2636Y29124D01*
X2649Y29054D01*
X2697Y28933D01*
X2736Y28808D01*
X2771Y28746D01*
X2797Y28680D01*
X2868Y28570D01*
X2931Y28456D01*
X2977Y28402D01*
X3016Y28342D01*
X3107Y28248D01*
X3192Y28149D01*
X3247Y28105D01*
X3297Y28054D01*
X3405Y27980D01*
X3508Y27899D01*
X3571Y27867D01*
X3630Y27827D01*
X3750Y27776D01*
X3867Y27717D01*
X3935Y27698D01*
X4000Y27670D01*
X4128Y27644D01*
X4254Y27609D01*
X4325Y27604D01*
X4395Y27589D01*
X4526Y27589D01*
X4656Y27579D01*
X4726Y27588D01*
X4797Y27588D01*
X4926Y27613D01*
X5055Y27630D01*
X5123Y27652D01*
X5192Y27666D01*
X5313Y27716D01*
X5437Y27758D01*
X5499Y27793D01*
X5564Y27821D01*
X5673Y27894D01*
X5786Y27959D01*
X5849Y28012D01*
X5898Y28045D01*
X5952Y28100D01*
X6039Y28174D01*
X6382Y28517D01*
X8421Y29361D01*
X10629Y29361D01*
X13000Y28379D01*
X13021Y28373D01*
X13041Y28363D01*
X13213Y28315D01*
X13385Y28263D01*
X13407Y28261D01*
X13429Y28255D01*
X13608Y28242D01*
X13786Y28225D01*
X13808Y28227D01*
X13830Y28225D01*
X14009Y28248D01*
X14186Y28266D01*
X14207Y28273D01*
X14230Y28276D01*
X14400Y28333D01*
X14571Y28386D01*
X14590Y28397D01*
X14611Y28404D01*
X14767Y28493D01*
X14924Y28579D01*
X14941Y28594D01*
X14960Y28605D01*
X15213Y28820D01*
X16206Y29812D01*
X29469Y29812D01*
X30362Y28919D01*
X30362Y15656D01*
X29469Y14763D01*
X16206Y14763D01*
X15313Y15656D01*
X15313Y17164D01*
X15311Y17177D01*
X15313Y17191D01*
X15292Y17377D01*
X15273Y17565D01*
X15269Y17577D01*
X15267Y17591D01*
X15210Y17770D01*
X15155Y17950D01*
X15148Y17961D01*
X15144Y17974D01*
X15052Y18139D01*
X14963Y18304D01*
X14954Y18314D01*
X14948Y18326D01*
X14826Y18468D01*
X14705Y18613D01*
X14695Y18621D01*
X14686Y18631D01*
X14538Y18747D01*
X14391Y18865D01*
X14380Y18871D01*
X14369Y18880D01*
X14201Y18964D01*
X14034Y19051D01*
X14021Y19054D01*
X14009Y19060D01*
X13828Y19110D01*
X13647Y19162D01*
X13634Y19163D01*
X13621Y19167D01*
X13433Y19180D01*
X13246Y19195D01*
X13233Y19193D01*
X13219Y19194D01*
X13032Y19170D01*
X12846Y19148D01*
X12833Y19144D01*
X12820Y19142D01*
X12504Y19041D01*
X10629Y18264D01*
X8959Y18264D01*
X8908Y18259D01*
X8857Y18261D01*
X8708Y18239D01*
X8558Y18224D01*
X8509Y18209D01*
X8459Y18201D01*
X8317Y18150D01*
X8173Y18106D01*
X8128Y18081D01*
X8080Y18064D01*
X7952Y17986D01*
X7819Y17914D01*
X7780Y17881D01*
X7736Y17855D01*
X7626Y17753D01*
X7510Y17656D01*
X7478Y17616D01*
X7440Y17582D01*
X7352Y17460D01*
X7258Y17342D01*
X7234Y17297D01*
X7204Y17256D01*
X7142Y17119D01*
X7072Y16985D01*
X7058Y16936D01*
X7037Y16890D01*
X7002Y16743D01*
X6961Y16598D01*
X6957Y16547D01*
X6945Y16498D01*
X6940Y16347D01*
X6928Y16197D01*
X6934Y16146D01*
X6932Y16095D01*
X6957Y15947D01*
X6975Y15797D01*
X6991Y15749D01*
X6999Y15698D01*
X7053Y15557D01*
X7100Y15414D01*
X7125Y15370D01*
X7143Y15322D01*
X7263Y15125D01*
X7298Y15064D01*
X7307Y15053D01*
X7316Y15039D01*
X10376Y10826D01*
X10478Y10712D01*
X10574Y10593D01*
X10616Y10557D01*
X10644Y10525D01*
X10713Y10473D01*
X10826Y10376D01*
X17262Y5700D01*
X17394Y5623D01*
X17522Y5540D01*
X17573Y5518D01*
X17610Y5497D01*
X17691Y5469D01*
X17828Y5412D01*
X25395Y2953D01*
X25466Y2938D01*
X25535Y2913D01*
X25703Y2886D01*
X25788Y2867D01*
X25821Y2867D01*
X25863Y2860D01*
X29841Y2547D01*
X29907Y2548D01*
X30000Y2541D01*
X241883Y2541D01*
X241892Y2542D01*
G37*
G36*
X122192Y72027D02*
X122192Y72027D01*
X122210Y72025D01*
X122392Y72046D01*
X122575Y72065D01*
X122592Y72070D01*
X122609Y72072D01*
X122784Y72129D01*
X122960Y72183D01*
X122975Y72191D01*
X122992Y72197D01*
X123152Y72287D01*
X123314Y72375D01*
X123327Y72386D01*
X123343Y72395D01*
X123482Y72515D01*
X123623Y72632D01*
X123634Y72646D01*
X123648Y72658D01*
X123760Y72803D01*
X123875Y72946D01*
X123883Y72962D01*
X123894Y72976D01*
X123976Y73141D01*
X124061Y73303D01*
X124066Y73320D01*
X124074Y73336D01*
X124121Y73515D01*
X124172Y73690D01*
X124174Y73708D01*
X124178Y73725D01*
X124205Y74056D01*
X124205Y75770D01*
X129017Y80582D01*
X129428Y80582D01*
X129446Y80584D01*
X129464Y80583D01*
X129646Y80604D01*
X129829Y80622D01*
X129846Y80627D01*
X129863Y80629D01*
X130038Y80686D01*
X130214Y80740D01*
X130229Y80749D01*
X130246Y80754D01*
X130406Y80845D01*
X130568Y80932D01*
X130581Y80943D01*
X130597Y80952D01*
X130736Y81072D01*
X130877Y81190D01*
X130888Y81204D01*
X130902Y81215D01*
X131014Y81361D01*
X131129Y81504D01*
X131137Y81519D01*
X131148Y81533D01*
X131231Y81699D01*
X131315Y81861D01*
X131320Y81878D01*
X131328Y81894D01*
X131375Y82072D01*
X131426Y82248D01*
X131428Y82266D01*
X131432Y82283D01*
X131459Y82613D01*
X131459Y85901D01*
X140532Y85901D01*
X140550Y85902D01*
X140567Y85901D01*
X140750Y85922D01*
X140932Y85941D01*
X140949Y85946D01*
X140967Y85948D01*
X141142Y86005D01*
X141317Y86059D01*
X141333Y86067D01*
X141350Y86073D01*
X141499Y86157D01*
X141553Y86130D01*
X141716Y86045D01*
X141733Y86040D01*
X141749Y86032D01*
X141927Y85984D01*
X142102Y85934D01*
X142120Y85932D01*
X142137Y85928D01*
X142468Y85901D01*
X151541Y85901D01*
X151541Y82613D01*
X151543Y82596D01*
X151541Y82578D01*
X151562Y82396D01*
X151581Y82213D01*
X151586Y82196D01*
X151588Y82178D01*
X151645Y82004D01*
X151699Y81828D01*
X151707Y81812D01*
X151713Y81795D01*
X151803Y81635D01*
X151891Y81474D01*
X151902Y81460D01*
X151911Y81445D01*
X152031Y81305D01*
X152148Y81165D01*
X152162Y81153D01*
X152174Y81140D01*
X152319Y81027D01*
X152462Y80912D01*
X152478Y80904D01*
X152492Y80893D01*
X152657Y80811D01*
X152819Y80727D01*
X152836Y80722D01*
X152852Y80714D01*
X153031Y80666D01*
X153206Y80615D01*
X153224Y80614D01*
X153241Y80609D01*
X153572Y80582D01*
X177594Y80582D01*
X177612Y80584D01*
X177630Y80583D01*
X177812Y80604D01*
X177995Y80622D01*
X178012Y80627D01*
X178029Y80629D01*
X178204Y80686D01*
X178380Y80740D01*
X178395Y80749D01*
X178412Y80754D01*
X178572Y80845D01*
X178734Y80932D01*
X178747Y80943D01*
X178763Y80952D01*
X178902Y81072D01*
X179043Y81190D01*
X179054Y81204D01*
X179068Y81215D01*
X179180Y81360D01*
X179295Y81504D01*
X179303Y81519D01*
X179314Y81533D01*
X179396Y81698D01*
X179481Y81861D01*
X179486Y81878D01*
X179494Y81894D01*
X179541Y82072D01*
X179592Y82248D01*
X179594Y82266D01*
X179598Y82283D01*
X179625Y82613D01*
X179625Y85432D01*
X180518Y86325D01*
X182632Y86325D01*
X182641Y86326D01*
X182650Y86325D01*
X182840Y86346D01*
X183032Y86365D01*
X183041Y86367D01*
X183050Y86368D01*
X183232Y86426D01*
X183417Y86483D01*
X183425Y86487D01*
X183434Y86490D01*
X183601Y86583D01*
X183771Y86675D01*
X183778Y86680D01*
X183786Y86685D01*
X183934Y86810D01*
X184080Y86932D01*
X184086Y86939D01*
X184093Y86945D01*
X184213Y87097D01*
X184333Y87246D01*
X184337Y87254D01*
X184343Y87261D01*
X184430Y87434D01*
X184518Y87603D01*
X184521Y87612D01*
X184525Y87620D01*
X184577Y87807D01*
X184630Y87990D01*
X184630Y87999D01*
X184633Y88008D01*
X184647Y88198D01*
X184663Y88392D01*
X184661Y88401D01*
X184662Y88410D01*
X184638Y88600D01*
X184616Y88791D01*
X184613Y88800D01*
X184612Y88809D01*
X184550Y88991D01*
X184491Y89174D01*
X184486Y89182D01*
X184483Y89191D01*
X184388Y89357D01*
X184293Y89525D01*
X184287Y89532D01*
X184282Y89539D01*
X184068Y89792D01*
X183935Y89925D01*
X178180Y95680D01*
X178180Y102228D01*
X178178Y102246D01*
X178180Y102264D01*
X178159Y102445D01*
X178140Y102629D01*
X178135Y102646D01*
X178133Y102663D01*
X178076Y102838D01*
X178022Y103014D01*
X178014Y103029D01*
X178008Y103046D01*
X177918Y103206D01*
X177830Y103368D01*
X177819Y103381D01*
X177810Y103397D01*
X177690Y103536D01*
X177573Y103677D01*
X177559Y103688D01*
X177547Y103702D01*
X177402Y103814D01*
X177259Y103929D01*
X177243Y103937D01*
X177229Y103948D01*
X177064Y104030D01*
X176902Y104115D01*
X176885Y104120D01*
X176869Y104128D01*
X176690Y104175D01*
X176515Y104226D01*
X176497Y104228D01*
X176480Y104232D01*
X176149Y104259D01*
X174724Y104259D01*
X174724Y113082D01*
X174722Y113100D01*
X174724Y113117D01*
X174703Y113300D01*
X174684Y113482D01*
X174679Y113499D01*
X174677Y113517D01*
X174620Y113692D01*
X174566Y113867D01*
X174558Y113883D01*
X174552Y113900D01*
X174462Y114060D01*
X174374Y114221D01*
X174363Y114235D01*
X174354Y114251D01*
X174309Y114303D01*
X174394Y114408D01*
X174402Y114424D01*
X174413Y114438D01*
X174495Y114603D01*
X174580Y114766D01*
X174585Y114783D01*
X174593Y114799D01*
X174640Y114977D01*
X174691Y115152D01*
X174693Y115170D01*
X174697Y115187D01*
X174724Y115518D01*
X174724Y124341D01*
X176149Y124341D01*
X176167Y124343D01*
X176185Y124341D01*
X176367Y124362D01*
X176550Y124381D01*
X176567Y124386D01*
X176584Y124388D01*
X176759Y124445D01*
X176935Y124499D01*
X176950Y124507D01*
X176967Y124513D01*
X177127Y124603D01*
X177289Y124691D01*
X177302Y124702D01*
X177318Y124711D01*
X177457Y124831D01*
X177598Y124948D01*
X177609Y124962D01*
X177623Y124974D01*
X177735Y125118D01*
X177850Y125262D01*
X177858Y125278D01*
X177869Y125292D01*
X177951Y125457D01*
X178036Y125619D01*
X178041Y125636D01*
X178049Y125652D01*
X178096Y125830D01*
X178147Y126006D01*
X178149Y126024D01*
X178153Y126041D01*
X178180Y126372D01*
X178180Y127628D01*
X178178Y127646D01*
X178180Y127664D01*
X178159Y127845D01*
X178140Y128029D01*
X178135Y128046D01*
X178133Y128063D01*
X178076Y128238D01*
X178022Y128414D01*
X178014Y128429D01*
X178008Y128446D01*
X177918Y128606D01*
X177830Y128768D01*
X177819Y128781D01*
X177810Y128797D01*
X177690Y128936D01*
X177573Y129077D01*
X177559Y129088D01*
X177547Y129102D01*
X177402Y129214D01*
X177259Y129329D01*
X177243Y129337D01*
X177229Y129348D01*
X177064Y129430D01*
X176902Y129515D01*
X176885Y129520D01*
X176869Y129528D01*
X176690Y129575D01*
X176515Y129626D01*
X176497Y129628D01*
X176480Y129632D01*
X176149Y129659D01*
X174724Y129659D01*
X174724Y138482D01*
X174722Y138500D01*
X174724Y138517D01*
X174703Y138700D01*
X174684Y138882D01*
X174679Y138899D01*
X174677Y138917D01*
X174620Y139092D01*
X174566Y139267D01*
X174558Y139283D01*
X174552Y139300D01*
X174462Y139460D01*
X174374Y139621D01*
X174363Y139635D01*
X174354Y139651D01*
X174309Y139703D01*
X174394Y139808D01*
X174402Y139824D01*
X174413Y139838D01*
X174495Y140003D01*
X174580Y140166D01*
X174585Y140183D01*
X174593Y140199D01*
X174640Y140377D01*
X174691Y140552D01*
X174693Y140570D01*
X174697Y140587D01*
X174724Y140918D01*
X174724Y149741D01*
X176149Y149741D01*
X176167Y149743D01*
X176185Y149741D01*
X176367Y149762D01*
X176550Y149781D01*
X176567Y149786D01*
X176584Y149788D01*
X176759Y149845D01*
X176935Y149899D01*
X176950Y149907D01*
X176967Y149913D01*
X177127Y150003D01*
X177289Y150091D01*
X177302Y150102D01*
X177318Y150111D01*
X177457Y150231D01*
X177598Y150348D01*
X177609Y150362D01*
X177623Y150374D01*
X177735Y150519D01*
X177850Y150662D01*
X177858Y150678D01*
X177869Y150692D01*
X177951Y150857D01*
X178036Y151019D01*
X178041Y151036D01*
X178049Y151052D01*
X178096Y151231D01*
X178147Y151406D01*
X178149Y151424D01*
X178153Y151441D01*
X178180Y151772D01*
X178180Y154544D01*
X178178Y154562D01*
X178180Y154580D01*
X178159Y154762D01*
X178140Y154945D01*
X178135Y154962D01*
X178133Y154979D01*
X178076Y155154D01*
X178022Y155330D01*
X178014Y155345D01*
X178008Y155362D01*
X177918Y155522D01*
X177830Y155684D01*
X177819Y155697D01*
X177810Y155713D01*
X177690Y155852D01*
X177573Y155993D01*
X177559Y156004D01*
X177547Y156018D01*
X177402Y156130D01*
X177259Y156245D01*
X177243Y156253D01*
X177229Y156264D01*
X177064Y156346D01*
X176902Y156431D01*
X176885Y156436D01*
X176869Y156444D01*
X176690Y156491D01*
X176515Y156542D01*
X176497Y156544D01*
X176480Y156548D01*
X176149Y156575D01*
X164843Y156575D01*
X163950Y157468D01*
X163950Y172888D01*
X164026Y173030D01*
X164028Y173039D01*
X164032Y173047D01*
X164085Y173230D01*
X164140Y173416D01*
X164141Y173425D01*
X164144Y173434D01*
X164159Y173625D01*
X164177Y173817D01*
X164176Y173826D01*
X164177Y173835D01*
X164154Y174026D01*
X164133Y174217D01*
X164131Y174226D01*
X164130Y174235D01*
X164069Y174419D01*
X164012Y174601D01*
X164008Y174609D01*
X164005Y174618D01*
X163910Y174786D01*
X163817Y174954D01*
X163811Y174961D01*
X163807Y174968D01*
X163682Y175113D01*
X163557Y175261D01*
X163550Y175266D01*
X163544Y175273D01*
X163393Y175390D01*
X163241Y175510D01*
X163233Y175514D01*
X163226Y175520D01*
X163054Y175605D01*
X162882Y175693D01*
X162873Y175695D01*
X162865Y175699D01*
X162678Y175749D01*
X162494Y175801D01*
X162485Y175801D01*
X162476Y175804D01*
X162146Y175831D01*
X145829Y175831D01*
X145820Y175830D01*
X145811Y175831D01*
X145620Y175810D01*
X145429Y175791D01*
X145420Y175788D01*
X145411Y175787D01*
X145226Y175729D01*
X145044Y175673D01*
X145036Y175668D01*
X145027Y175666D01*
X144858Y175572D01*
X144690Y175481D01*
X144683Y175475D01*
X144675Y175471D01*
X144528Y175346D01*
X144381Y175223D01*
X144375Y175216D01*
X144368Y175210D01*
X144249Y175060D01*
X144128Y174909D01*
X144124Y174901D01*
X144119Y174894D01*
X144031Y174722D01*
X143943Y174552D01*
X143940Y174544D01*
X143936Y174535D01*
X143884Y174349D01*
X143831Y174165D01*
X143831Y174156D01*
X143828Y174148D01*
X143814Y173958D01*
X143798Y173764D01*
X143800Y173755D01*
X143799Y173746D01*
X143823Y173555D01*
X143845Y173364D01*
X143848Y173356D01*
X143849Y173347D01*
X143911Y173164D01*
X143970Y172981D01*
X143975Y172973D01*
X143978Y172965D01*
X144025Y172883D01*
X144025Y171063D01*
X144026Y171054D01*
X144025Y171045D01*
X144046Y170855D01*
X144065Y170663D01*
X144067Y170654D01*
X144068Y170645D01*
X144126Y170461D01*
X144183Y170278D01*
X144187Y170270D01*
X144190Y170261D01*
X144283Y170093D01*
X144375Y169924D01*
X144380Y169917D01*
X144385Y169909D01*
X144510Y169761D01*
X144632Y169614D01*
X144639Y169609D01*
X144645Y169602D01*
X144796Y169482D01*
X144946Y169362D01*
X144954Y169358D01*
X144961Y169352D01*
X145134Y169264D01*
X145303Y169177D01*
X145312Y169174D01*
X145320Y169170D01*
X145506Y169118D01*
X145690Y169065D01*
X145699Y169064D01*
X145708Y169062D01*
X145900Y169048D01*
X146092Y169032D01*
X146100Y169033D01*
X146109Y169033D01*
X146301Y169057D01*
X146491Y169079D01*
X146500Y169082D01*
X146509Y169083D01*
X146690Y169144D01*
X146874Y169204D01*
X146882Y169208D01*
X146890Y169211D01*
X147056Y169306D01*
X147225Y169402D01*
X147232Y169408D01*
X147239Y169412D01*
X147492Y169627D01*
X147669Y169804D01*
X149709Y170649D01*
X151916Y170649D01*
X153956Y169804D01*
X155517Y168243D01*
X156361Y166204D01*
X156361Y163996D01*
X155517Y161957D01*
X153956Y160396D01*
X151916Y159551D01*
X149709Y159551D01*
X147669Y160396D01*
X147492Y160573D01*
X147485Y160579D01*
X147480Y160586D01*
X147330Y160706D01*
X147181Y160828D01*
X147173Y160832D01*
X147166Y160838D01*
X146996Y160926D01*
X146825Y161017D01*
X146816Y161019D01*
X146809Y161023D01*
X146624Y161077D01*
X146439Y161132D01*
X146430Y161132D01*
X146422Y161135D01*
X146229Y161151D01*
X146038Y161168D01*
X146029Y161167D01*
X146020Y161168D01*
X145831Y161145D01*
X145638Y161125D01*
X145629Y161122D01*
X145621Y161121D01*
X145437Y161061D01*
X145254Y161003D01*
X145246Y160999D01*
X145238Y160996D01*
X145069Y160901D01*
X144902Y160808D01*
X144895Y160802D01*
X144887Y160798D01*
X144742Y160672D01*
X144595Y160548D01*
X144589Y160541D01*
X144582Y160535D01*
X144465Y160384D01*
X144345Y160232D01*
X144341Y160224D01*
X144336Y160217D01*
X144250Y160045D01*
X144163Y159873D01*
X144160Y159864D01*
X144156Y159856D01*
X144106Y159668D01*
X144055Y159485D01*
X144054Y159476D01*
X144052Y159468D01*
X144025Y159137D01*
X144025Y157468D01*
X143132Y156575D01*
X130868Y156575D01*
X129975Y157468D01*
X129975Y172888D01*
X130051Y173030D01*
X130053Y173039D01*
X130057Y173047D01*
X130110Y173230D01*
X130165Y173416D01*
X130166Y173425D01*
X130169Y173434D01*
X130184Y173625D01*
X130202Y173817D01*
X130201Y173826D01*
X130202Y173835D01*
X130179Y174026D01*
X130158Y174217D01*
X130156Y174226D01*
X130155Y174235D01*
X130094Y174419D01*
X130037Y174601D01*
X130033Y174609D01*
X130030Y174618D01*
X129935Y174786D01*
X129842Y174954D01*
X129836Y174961D01*
X129832Y174968D01*
X129707Y175113D01*
X129582Y175261D01*
X129575Y175266D01*
X129569Y175273D01*
X129418Y175390D01*
X129266Y175510D01*
X129258Y175514D01*
X129251Y175520D01*
X129079Y175605D01*
X128907Y175693D01*
X128898Y175695D01*
X128890Y175699D01*
X128703Y175749D01*
X128519Y175801D01*
X128510Y175801D01*
X128501Y175804D01*
X128171Y175831D01*
X125829Y175831D01*
X125820Y175830D01*
X125811Y175831D01*
X125620Y175810D01*
X125429Y175791D01*
X125420Y175788D01*
X125411Y175787D01*
X125226Y175729D01*
X125044Y175673D01*
X125036Y175668D01*
X125027Y175666D01*
X124858Y175572D01*
X124690Y175481D01*
X124683Y175475D01*
X124675Y175471D01*
X124528Y175346D01*
X124381Y175223D01*
X124375Y175216D01*
X124368Y175210D01*
X124249Y175060D01*
X124128Y174909D01*
X124124Y174901D01*
X124119Y174894D01*
X124031Y174722D01*
X123943Y174552D01*
X123940Y174544D01*
X123936Y174535D01*
X123884Y174349D01*
X123831Y174165D01*
X123831Y174156D01*
X123828Y174148D01*
X123814Y173958D01*
X123798Y173764D01*
X123800Y173755D01*
X123799Y173746D01*
X123823Y173555D01*
X123845Y173364D01*
X123848Y173356D01*
X123849Y173347D01*
X123911Y173164D01*
X123970Y172981D01*
X123975Y172973D01*
X123978Y172965D01*
X124025Y172883D01*
X124025Y157468D01*
X123132Y156575D01*
X121826Y156575D01*
X121808Y156573D01*
X121790Y156575D01*
X121608Y156554D01*
X121425Y156535D01*
X121408Y156530D01*
X121391Y156528D01*
X121216Y156471D01*
X121040Y156417D01*
X121025Y156409D01*
X121008Y156403D01*
X120848Y156313D01*
X120686Y156225D01*
X120673Y156214D01*
X120657Y156205D01*
X120518Y156085D01*
X120377Y155968D01*
X120366Y155954D01*
X120352Y155942D01*
X120240Y155797D01*
X120125Y155654D01*
X120117Y155638D01*
X120106Y155624D01*
X120023Y155459D01*
X119939Y155297D01*
X119934Y155280D01*
X119926Y155264D01*
X119879Y155085D01*
X119828Y154910D01*
X119826Y154892D01*
X119822Y154875D01*
X119795Y154544D01*
X119795Y148903D01*
X119797Y148876D01*
X119795Y148850D01*
X119817Y148676D01*
X119835Y148502D01*
X119842Y148477D01*
X119846Y148450D01*
X119901Y148285D01*
X119953Y148117D01*
X119966Y148094D01*
X119974Y148069D01*
X120061Y147917D01*
X120145Y147763D01*
X120162Y147743D01*
X120175Y147720D01*
X120390Y147467D01*
X121525Y146332D01*
X121525Y136814D01*
X121537Y136693D01*
X121539Y136571D01*
X121557Y136493D01*
X121565Y136414D01*
X121600Y136297D01*
X121627Y136178D01*
X121659Y136105D01*
X121683Y136029D01*
X121741Y135921D01*
X121791Y135810D01*
X121837Y135745D01*
X121875Y135675D01*
X121953Y135581D01*
X122023Y135481D01*
X122090Y135416D01*
X122132Y135366D01*
X122187Y135321D01*
X122261Y135250D01*
X127443Y130961D01*
X127553Y130887D01*
X127658Y130806D01*
X127720Y130775D01*
X127777Y130736D01*
X127900Y130686D01*
X128018Y130626D01*
X128029Y130624D01*
X128508Y130144D01*
X128614Y130057D01*
X128715Y129964D01*
X128770Y129930D01*
X128820Y129889D01*
X128941Y129825D01*
X129058Y129753D01*
X129118Y129731D01*
X129175Y129701D01*
X129307Y129661D01*
X129436Y129614D01*
X129500Y129604D01*
X129561Y129586D01*
X129698Y129573D01*
X129795Y129558D01*
X129795Y127927D01*
X129802Y127851D01*
X129804Y127736D01*
X129950Y126181D01*
X129974Y126059D01*
X129989Y125937D01*
X130013Y125863D01*
X130028Y125786D01*
X130075Y125672D01*
X130113Y125554D01*
X130152Y125486D01*
X130182Y125414D01*
X130250Y125311D01*
X130311Y125203D01*
X130362Y125144D01*
X130406Y125080D01*
X130494Y124992D01*
X130575Y124898D01*
X130636Y124851D01*
X130691Y124796D01*
X130795Y124728D01*
X130893Y124652D01*
X130962Y124617D01*
X131027Y124574D01*
X131142Y124528D01*
X131253Y124472D01*
X131329Y124452D01*
X131401Y124423D01*
X131522Y124400D01*
X131642Y124368D01*
X131733Y124360D01*
X131796Y124348D01*
X131868Y124349D01*
X131973Y124341D01*
X133251Y124341D01*
X133251Y115518D01*
X133252Y115500D01*
X133251Y115483D01*
X133272Y115300D01*
X133291Y115118D01*
X133296Y115101D01*
X133298Y115083D01*
X133355Y114908D01*
X133409Y114733D01*
X133417Y114717D01*
X133423Y114700D01*
X133513Y114540D01*
X133600Y114379D01*
X133612Y114365D01*
X133621Y114349D01*
X133666Y114297D01*
X133581Y114192D01*
X133573Y114176D01*
X133562Y114162D01*
X133480Y113997D01*
X133395Y113834D01*
X133390Y113817D01*
X133382Y113801D01*
X133334Y113623D01*
X133284Y113448D01*
X133282Y113430D01*
X133278Y113413D01*
X133251Y113082D01*
X133251Y104259D01*
X131278Y104259D01*
X131251Y104257D01*
X131225Y104259D01*
X131051Y104237D01*
X130877Y104219D01*
X130852Y104212D01*
X130825Y104208D01*
X130660Y104153D01*
X130492Y104101D01*
X130469Y104088D01*
X130444Y104080D01*
X130292Y103993D01*
X130138Y103909D01*
X130118Y103892D01*
X130095Y103879D01*
X129842Y103664D01*
X126383Y100205D01*
X121755Y100205D01*
X121746Y100204D01*
X121737Y100205D01*
X121545Y100184D01*
X121354Y100165D01*
X121346Y100163D01*
X121337Y100162D01*
X121155Y100104D01*
X120969Y100047D01*
X120961Y100043D01*
X120953Y100040D01*
X120785Y99947D01*
X120615Y99855D01*
X120609Y99850D01*
X120601Y99845D01*
X120453Y99720D01*
X120306Y99598D01*
X120301Y99591D01*
X120294Y99585D01*
X120174Y99433D01*
X120054Y99284D01*
X120050Y99276D01*
X120044Y99269D01*
X119957Y99097D01*
X119868Y98927D01*
X119866Y98918D01*
X119862Y98910D01*
X119810Y98723D01*
X119757Y98540D01*
X119756Y98531D01*
X119754Y98522D01*
X119740Y98330D01*
X119724Y98138D01*
X119725Y98130D01*
X119724Y98121D01*
X119749Y97928D01*
X119771Y97739D01*
X119774Y97730D01*
X119775Y97721D01*
X119837Y97537D01*
X119896Y97356D01*
X119900Y97348D01*
X119903Y97340D01*
X119998Y97174D01*
X120094Y97005D01*
X120099Y96998D01*
X120104Y96991D01*
X120319Y96738D01*
X121525Y95532D01*
X121525Y82268D01*
X120390Y81133D01*
X120373Y81113D01*
X120352Y81095D01*
X120245Y80957D01*
X120135Y80822D01*
X120122Y80798D01*
X120106Y80777D01*
X120028Y80620D01*
X119946Y80466D01*
X119938Y80441D01*
X119926Y80417D01*
X119881Y80247D01*
X119831Y80080D01*
X119829Y80054D01*
X119822Y80028D01*
X119795Y79697D01*
X119795Y74056D01*
X119797Y74038D01*
X119795Y74020D01*
X119816Y73838D01*
X119835Y73655D01*
X119840Y73638D01*
X119842Y73621D01*
X119899Y73446D01*
X119953Y73270D01*
X119961Y73255D01*
X119967Y73238D01*
X120057Y73078D01*
X120145Y72916D01*
X120156Y72903D01*
X120165Y72887D01*
X120285Y72748D01*
X120402Y72607D01*
X120416Y72596D01*
X120428Y72582D01*
X120573Y72470D01*
X120716Y72355D01*
X120732Y72347D01*
X120746Y72336D01*
X120911Y72254D01*
X121073Y72169D01*
X121090Y72164D01*
X121106Y72156D01*
X121285Y72109D01*
X121460Y72058D01*
X121478Y72056D01*
X121495Y72052D01*
X121826Y72025D01*
X122174Y72025D01*
X122192Y72027D01*
G37*
%LPC*%
G36*
X115481Y11700D02*
X115481Y11700D01*
X114588Y12593D01*
X114588Y15050D01*
X114586Y15067D01*
X114587Y15085D01*
X114566Y15267D01*
X114548Y15450D01*
X114543Y15467D01*
X114541Y15485D01*
X114484Y15659D01*
X114430Y15835D01*
X114421Y15851D01*
X114416Y15868D01*
X114325Y16028D01*
X114238Y16189D01*
X114227Y16203D01*
X114218Y16218D01*
X114098Y16358D01*
X113980Y16498D01*
X113966Y16510D01*
X113955Y16523D01*
X113810Y16636D01*
X113666Y16751D01*
X113651Y16759D01*
X113637Y16770D01*
X113472Y16852D01*
X113309Y16936D01*
X113292Y16941D01*
X113276Y16949D01*
X113098Y16997D01*
X112922Y17048D01*
X112904Y17049D01*
X112887Y17054D01*
X112557Y17081D01*
X109043Y17081D01*
X109026Y17079D01*
X109008Y17080D01*
X108826Y17059D01*
X108643Y17041D01*
X108626Y17036D01*
X108608Y17034D01*
X108434Y16977D01*
X108258Y16923D01*
X108242Y16914D01*
X108225Y16909D01*
X108065Y16818D01*
X107904Y16731D01*
X107890Y16720D01*
X107875Y16711D01*
X107735Y16591D01*
X107595Y16473D01*
X107583Y16459D01*
X107570Y16448D01*
X107457Y16303D01*
X107342Y16159D01*
X107334Y16144D01*
X107323Y16130D01*
X107241Y15965D01*
X107157Y15802D01*
X107152Y15785D01*
X107144Y15769D01*
X107096Y15591D01*
X107045Y15415D01*
X107044Y15397D01*
X107039Y15380D01*
X107012Y15050D01*
X107012Y12631D01*
X106119Y11738D01*
X88856Y11738D01*
X87963Y12631D01*
X87963Y31894D01*
X88856Y32787D01*
X92574Y32787D01*
X92583Y32788D01*
X92592Y32787D01*
X92783Y32808D01*
X92975Y32827D01*
X92983Y32830D01*
X92992Y32831D01*
X93176Y32889D01*
X93360Y32945D01*
X93368Y32950D01*
X93376Y32952D01*
X93545Y33045D01*
X93714Y33137D01*
X93721Y33143D01*
X93729Y33147D01*
X93875Y33271D01*
X94023Y33395D01*
X94029Y33402D01*
X94036Y33408D01*
X94155Y33559D01*
X94275Y33709D01*
X94280Y33716D01*
X94285Y33723D01*
X94373Y33897D01*
X94461Y34066D01*
X94463Y34074D01*
X94468Y34082D01*
X94519Y34269D01*
X94572Y34453D01*
X94573Y34462D01*
X94575Y34470D01*
X94590Y34662D01*
X94605Y34854D01*
X94604Y34863D01*
X94605Y34872D01*
X94581Y35063D01*
X94558Y35254D01*
X94556Y35262D01*
X94554Y35271D01*
X94493Y35453D01*
X94433Y35637D01*
X94429Y35644D01*
X94426Y35653D01*
X94330Y35820D01*
X94236Y35987D01*
X94230Y35994D01*
X94225Y36002D01*
X94011Y36255D01*
X93721Y36544D01*
X92876Y38584D01*
X92876Y40791D01*
X93721Y42831D01*
X95282Y44392D01*
X97321Y45236D01*
X99529Y45236D01*
X101568Y44392D01*
X103129Y42831D01*
X103974Y40791D01*
X103974Y38584D01*
X103129Y36544D01*
X102839Y36255D01*
X102834Y36248D01*
X102827Y36242D01*
X102706Y36092D01*
X102584Y35943D01*
X102580Y35935D01*
X102575Y35928D01*
X102486Y35758D01*
X102396Y35588D01*
X102393Y35579D01*
X102389Y35571D01*
X102336Y35388D01*
X102281Y35202D01*
X102280Y35193D01*
X102278Y35184D01*
X102262Y34994D01*
X102245Y34801D01*
X102245Y34792D01*
X102245Y34783D01*
X102267Y34593D01*
X102288Y34400D01*
X102291Y34392D01*
X102292Y34383D01*
X102351Y34200D01*
X102409Y34017D01*
X102414Y34009D01*
X102417Y34000D01*
X102512Y33831D01*
X102604Y33664D01*
X102610Y33657D01*
X102614Y33650D01*
X102740Y33504D01*
X102865Y33357D01*
X102872Y33352D01*
X102878Y33345D01*
X103029Y33228D01*
X103181Y33108D01*
X103189Y33104D01*
X103196Y33098D01*
X103368Y33012D01*
X103540Y32925D01*
X103548Y32923D01*
X103556Y32919D01*
X103744Y32868D01*
X103927Y32817D01*
X103936Y32817D01*
X103945Y32814D01*
X104276Y32787D01*
X106119Y32787D01*
X107012Y31894D01*
X107012Y26225D01*
X107014Y26208D01*
X107013Y26190D01*
X107034Y26008D01*
X107052Y25825D01*
X107057Y25808D01*
X107059Y25790D01*
X107116Y25616D01*
X107170Y25440D01*
X107179Y25424D01*
X107184Y25407D01*
X107275Y25247D01*
X107362Y25086D01*
X107373Y25072D01*
X107382Y25057D01*
X107502Y24917D01*
X107620Y24777D01*
X107634Y24765D01*
X107645Y24752D01*
X107790Y24639D01*
X107934Y24524D01*
X107949Y24516D01*
X107963Y24505D01*
X108128Y24423D01*
X108291Y24339D01*
X108308Y24334D01*
X108324Y24326D01*
X108502Y24278D01*
X108678Y24227D01*
X108696Y24226D01*
X108713Y24221D01*
X109043Y24194D01*
X112557Y24194D01*
X112574Y24196D01*
X112592Y24195D01*
X112774Y24216D01*
X112957Y24234D01*
X112974Y24239D01*
X112992Y24241D01*
X113166Y24298D01*
X113342Y24352D01*
X113358Y24361D01*
X113375Y24366D01*
X113535Y24457D01*
X113696Y24544D01*
X113710Y24555D01*
X113725Y24564D01*
X113865Y24684D01*
X114005Y24802D01*
X114017Y24816D01*
X114030Y24827D01*
X114143Y24972D01*
X114258Y25116D01*
X114266Y25131D01*
X114277Y25145D01*
X114359Y25310D01*
X114443Y25473D01*
X114448Y25490D01*
X114456Y25506D01*
X114504Y25684D01*
X114555Y25860D01*
X114556Y25878D01*
X114561Y25895D01*
X114588Y26225D01*
X114588Y31857D01*
X115481Y32750D01*
X132744Y32750D01*
X133637Y31857D01*
X133637Y12593D01*
X132744Y11700D01*
X115481Y11700D01*
G37*
%LPD*%
%LPC*%
G36*
X326131Y134350D02*
X326131Y134350D01*
X325238Y135243D01*
X325238Y150507D01*
X326131Y151400D01*
X326349Y151400D01*
X326367Y151402D01*
X326385Y151400D01*
X326567Y151421D01*
X326750Y151440D01*
X326767Y151445D01*
X326784Y151447D01*
X326959Y151504D01*
X327135Y151558D01*
X327150Y151566D01*
X327167Y151572D01*
X327327Y151662D01*
X327489Y151750D01*
X327502Y151761D01*
X327518Y151770D01*
X327657Y151890D01*
X327798Y152007D01*
X327809Y152021D01*
X327823Y152033D01*
X327935Y152178D01*
X328050Y152321D01*
X328058Y152337D01*
X328069Y152351D01*
X328151Y152516D01*
X328236Y152678D01*
X328241Y152695D01*
X328249Y152711D01*
X328296Y152889D01*
X328347Y153065D01*
X328349Y153083D01*
X328353Y153100D01*
X328380Y153431D01*
X328380Y157132D01*
X328378Y157149D01*
X328380Y157167D01*
X328359Y157349D01*
X328340Y157532D01*
X328335Y157549D01*
X328333Y157567D01*
X328276Y157741D01*
X328222Y157917D01*
X328214Y157933D01*
X328208Y157950D01*
X328118Y158110D01*
X328030Y158271D01*
X328019Y158285D01*
X328010Y158300D01*
X327890Y158440D01*
X327773Y158580D01*
X327759Y158592D01*
X327747Y158605D01*
X327602Y158718D01*
X327459Y158833D01*
X327443Y158841D01*
X327429Y158852D01*
X327264Y158934D01*
X327102Y159018D01*
X327085Y159023D01*
X327069Y159031D01*
X326890Y159079D01*
X326715Y159130D01*
X326697Y159131D01*
X326680Y159136D01*
X326349Y159163D01*
X324543Y159163D01*
X323650Y160056D01*
X323650Y173319D01*
X324543Y174212D01*
X337807Y174212D01*
X338700Y173319D01*
X338700Y160056D01*
X337807Y159163D01*
X336001Y159163D01*
X335983Y159161D01*
X335965Y159162D01*
X335783Y159141D01*
X335600Y159123D01*
X335583Y159118D01*
X335566Y159116D01*
X335391Y159059D01*
X335215Y159005D01*
X335200Y158996D01*
X335183Y158991D01*
X335023Y158900D01*
X334861Y158813D01*
X334848Y158802D01*
X334832Y158793D01*
X334693Y158673D01*
X334552Y158555D01*
X334541Y158541D01*
X334527Y158530D01*
X334415Y158384D01*
X334300Y158241D01*
X334292Y158226D01*
X334281Y158212D01*
X334199Y158047D01*
X334114Y157884D01*
X334109Y157867D01*
X334101Y157851D01*
X334054Y157673D01*
X334003Y157497D01*
X334001Y157479D01*
X333997Y157462D01*
X333970Y157132D01*
X333970Y153431D01*
X333972Y153413D01*
X333970Y153395D01*
X333991Y153213D01*
X334010Y153030D01*
X334015Y153013D01*
X334017Y152996D01*
X334074Y152821D01*
X334128Y152645D01*
X334136Y152630D01*
X334142Y152613D01*
X334232Y152453D01*
X334320Y152291D01*
X334331Y152278D01*
X334340Y152262D01*
X334460Y152123D01*
X334577Y151982D01*
X334591Y151971D01*
X334603Y151957D01*
X334748Y151845D01*
X334891Y151730D01*
X334907Y151722D01*
X334921Y151711D01*
X335086Y151629D01*
X335248Y151544D01*
X335265Y151539D01*
X335281Y151531D01*
X335460Y151484D01*
X335635Y151433D01*
X335653Y151431D01*
X335670Y151427D01*
X336001Y151400D01*
X338394Y151400D01*
X339287Y150507D01*
X339287Y135243D01*
X338394Y134350D01*
X326131Y134350D01*
G37*
%LPD*%
%LPC*%
G36*
X306131Y134350D02*
X306131Y134350D01*
X305238Y135243D01*
X305238Y138049D01*
X305236Y138067D01*
X305237Y138085D01*
X305216Y138267D01*
X305198Y138450D01*
X305193Y138467D01*
X305191Y138484D01*
X305134Y138659D01*
X305080Y138835D01*
X305071Y138850D01*
X305066Y138867D01*
X304975Y139027D01*
X304888Y139189D01*
X304877Y139202D01*
X304868Y139218D01*
X304748Y139357D01*
X304630Y139498D01*
X304616Y139509D01*
X304605Y139523D01*
X304460Y139635D01*
X304316Y139750D01*
X304301Y139758D01*
X304287Y139769D01*
X304122Y139851D01*
X303959Y139936D01*
X303942Y139941D01*
X303926Y139949D01*
X303748Y139996D01*
X303572Y140047D01*
X303554Y140049D01*
X303537Y140053D01*
X303207Y140080D01*
X302756Y140080D01*
X302730Y140078D01*
X302703Y140080D01*
X302529Y140058D01*
X302356Y140040D01*
X302330Y140033D01*
X302304Y140029D01*
X302138Y139974D01*
X301971Y139922D01*
X301947Y139909D01*
X301922Y139901D01*
X301770Y139814D01*
X301617Y139730D01*
X301596Y139713D01*
X301573Y139700D01*
X301320Y139485D01*
X300006Y138171D01*
X297966Y137326D01*
X295759Y137326D01*
X293719Y138171D01*
X292158Y139732D01*
X291314Y141771D01*
X291314Y143979D01*
X292158Y146018D01*
X293719Y147579D01*
X295759Y148424D01*
X297966Y148424D01*
X300006Y147579D01*
X301320Y146265D01*
X301341Y146248D01*
X301358Y146227D01*
X301496Y146120D01*
X301631Y146010D01*
X301655Y145997D01*
X301676Y145981D01*
X301833Y145903D01*
X301987Y145821D01*
X302013Y145813D01*
X302037Y145801D01*
X302206Y145756D01*
X302373Y145706D01*
X302400Y145704D01*
X302426Y145697D01*
X302756Y145670D01*
X303207Y145670D01*
X303224Y145672D01*
X303242Y145670D01*
X303424Y145691D01*
X303607Y145710D01*
X303624Y145715D01*
X303642Y145717D01*
X303816Y145774D01*
X303992Y145828D01*
X304008Y145836D01*
X304025Y145842D01*
X304185Y145932D01*
X304346Y146020D01*
X304360Y146031D01*
X304375Y146040D01*
X304515Y146160D01*
X304655Y146277D01*
X304667Y146291D01*
X304680Y146303D01*
X304793Y146448D01*
X304908Y146591D01*
X304916Y146607D01*
X304927Y146621D01*
X305009Y146786D01*
X305093Y146948D01*
X305098Y146965D01*
X305106Y146981D01*
X305154Y147160D01*
X305205Y147335D01*
X305206Y147353D01*
X305211Y147370D01*
X305238Y147701D01*
X305238Y150507D01*
X306131Y151400D01*
X318394Y151400D01*
X319287Y150507D01*
X319287Y135243D01*
X318394Y134350D01*
X306131Y134350D01*
G37*
%LPD*%
%LPC*%
G36*
X292861Y116839D02*
X292861Y116839D01*
X292861Y119245D01*
X299855Y126239D01*
X302261Y126239D01*
X302261Y116839D01*
X292861Y116839D01*
G37*
%LPD*%
%LPC*%
G36*
X156112Y26224D02*
X156112Y26224D01*
X156112Y33766D01*
X160447Y33766D01*
X161093Y33593D01*
X161673Y33258D01*
X162146Y32785D01*
X162480Y32206D01*
X162653Y31560D01*
X162653Y26224D01*
X156112Y26224D01*
G37*
%LPD*%
%LPC*%
G36*
X156112Y10684D02*
X156112Y10684D01*
X156112Y18226D01*
X162653Y18226D01*
X162653Y12890D01*
X162480Y12244D01*
X162146Y11665D01*
X161673Y11192D01*
X161093Y10857D01*
X160447Y10684D01*
X156112Y10684D01*
G37*
%LPD*%
%LPC*%
G36*
X141572Y26224D02*
X141572Y26224D01*
X141572Y31560D01*
X141745Y32206D01*
X142079Y32785D01*
X142552Y33258D01*
X143132Y33593D01*
X143778Y33766D01*
X148113Y33766D01*
X148113Y26224D01*
X141572Y26224D01*
G37*
%LPD*%
%LPC*%
G36*
X143778Y10684D02*
X143778Y10684D01*
X143132Y10857D01*
X142552Y11192D01*
X142079Y11665D01*
X141745Y12244D01*
X141572Y12890D01*
X141572Y18226D01*
X148113Y18226D01*
X148113Y10684D01*
X143778Y10684D01*
G37*
%LPD*%
%LPC*%
G36*
X139749Y117549D02*
X139749Y117549D01*
X139749Y124341D01*
X143335Y124341D01*
X143981Y124168D01*
X144560Y123833D01*
X145033Y123360D01*
X145368Y122781D01*
X145541Y122135D01*
X145541Y117549D01*
X139749Y117549D01*
G37*
%LPD*%
%LPC*%
G36*
X139749Y104259D02*
X139749Y104259D01*
X139749Y111051D01*
X145541Y111051D01*
X145541Y106465D01*
X145368Y105819D01*
X145033Y105240D01*
X144560Y104767D01*
X143981Y104432D01*
X143335Y104259D01*
X139749Y104259D01*
G37*
%LPD*%
%LPC*%
G36*
X162434Y142949D02*
X162434Y142949D01*
X162434Y147535D01*
X162607Y148181D01*
X162942Y148760D01*
X163415Y149233D01*
X163994Y149568D01*
X164640Y149741D01*
X168226Y149741D01*
X168226Y142949D01*
X162434Y142949D01*
G37*
%LPD*%
%LPC*%
G36*
X162434Y117549D02*
X162434Y117549D01*
X162434Y122135D01*
X162607Y122781D01*
X162942Y123360D01*
X163415Y123833D01*
X163994Y124168D01*
X164640Y124341D01*
X168226Y124341D01*
X168226Y117549D01*
X162434Y117549D01*
G37*
%LPD*%
%LPC*%
G36*
X164640Y129659D02*
X164640Y129659D01*
X163994Y129832D01*
X163415Y130167D01*
X162942Y130640D01*
X162607Y131219D01*
X162434Y131865D01*
X162434Y136451D01*
X168226Y136451D01*
X168226Y129659D01*
X164640Y129659D01*
G37*
%LPD*%
%LPC*%
G36*
X164640Y104259D02*
X164640Y104259D01*
X163994Y104432D01*
X163415Y104767D01*
X162942Y105240D01*
X162607Y105819D01*
X162434Y106465D01*
X162434Y111051D01*
X168226Y111051D01*
X168226Y104259D01*
X164640Y104259D01*
G37*
%LPD*%
%LPC*%
G36*
X133665Y131159D02*
X133665Y131159D01*
X133019Y131332D01*
X132842Y131435D01*
X132708Y131495D01*
X132579Y131563D01*
X132525Y131578D01*
X132475Y131601D01*
X132332Y131633D01*
X132192Y131674D01*
X132136Y131678D01*
X132082Y131691D01*
X131967Y131694D01*
X131958Y131770D01*
X131949Y131907D01*
X131933Y131970D01*
X131925Y132033D01*
X131881Y132163D01*
X131845Y132296D01*
X131814Y132363D01*
X131796Y132415D01*
X131757Y132484D01*
X131703Y132596D01*
X131632Y132719D01*
X131459Y133365D01*
X131459Y136701D01*
X138501Y136701D01*
X138501Y131159D01*
X133665Y131159D01*
G37*
%LPD*%
%LPC*%
G36*
X144499Y142699D02*
X144499Y142699D01*
X144499Y148241D01*
X149335Y148241D01*
X149981Y148068D01*
X150560Y147733D01*
X151033Y147260D01*
X151368Y146681D01*
X151541Y146035D01*
X151541Y142699D01*
X144499Y142699D01*
G37*
%LPD*%
%LPC*%
G36*
X144499Y91899D02*
X144499Y91899D01*
X144499Y97441D01*
X149335Y97441D01*
X149981Y97268D01*
X150560Y96933D01*
X151033Y96460D01*
X151368Y95881D01*
X151541Y95235D01*
X151541Y91899D01*
X144499Y91899D01*
G37*
%LPD*%
%LPC*%
G36*
X131459Y142699D02*
X131459Y142699D01*
X131459Y146035D01*
X131632Y146681D01*
X131967Y147260D01*
X132440Y147733D01*
X133019Y148068D01*
X133665Y148241D01*
X138501Y148241D01*
X138501Y142699D01*
X131459Y142699D01*
G37*
%LPD*%
%LPC*%
G36*
X131459Y91899D02*
X131459Y91899D01*
X131459Y95235D01*
X131632Y95881D01*
X131967Y96460D01*
X132440Y96933D01*
X133019Y97268D01*
X133665Y97441D01*
X138501Y97441D01*
X138501Y91899D01*
X131459Y91899D01*
G37*
%LPD*%
%LPC*%
G36*
X144499Y131159D02*
X144499Y131159D01*
X144499Y136701D01*
X151541Y136701D01*
X151541Y133365D01*
X151368Y132719D01*
X151033Y132140D01*
X150560Y131667D01*
X149981Y131332D01*
X149335Y131159D01*
X144499Y131159D01*
G37*
%LPD*%
%LPC*%
G36*
X80771Y73959D02*
X80771Y73959D01*
X80771Y76969D01*
X92821Y76969D01*
X92821Y76165D01*
X92648Y75519D01*
X92313Y74940D01*
X91840Y74467D01*
X91261Y74132D01*
X90615Y73959D01*
X80771Y73959D01*
G37*
%LPD*%
%LPC*%
G36*
X66865Y73959D02*
X66865Y73959D01*
X66219Y74132D01*
X65640Y74467D01*
X65167Y74940D01*
X64832Y75519D01*
X64659Y76165D01*
X64659Y76969D01*
X76709Y76969D01*
X76709Y73959D01*
X66865Y73959D01*
G37*
%LPD*%
%LPC*%
G36*
X313174Y169687D02*
X313174Y169687D01*
X313174Y175228D01*
X316510Y175228D01*
X317156Y175055D01*
X317735Y174721D01*
X318208Y174248D01*
X318543Y173668D01*
X318716Y173022D01*
X318716Y169687D01*
X313174Y169687D01*
G37*
%LPD*%
%LPC*%
G36*
X301634Y169687D02*
X301634Y169687D01*
X301634Y173022D01*
X301807Y173668D01*
X302142Y174248D01*
X302615Y174721D01*
X303194Y175055D01*
X303840Y175228D01*
X307176Y175228D01*
X307176Y169687D01*
X301634Y169687D01*
G37*
%LPD*%
%LPC*%
G36*
X313174Y158147D02*
X313174Y158147D01*
X313174Y163688D01*
X318716Y163688D01*
X318716Y160353D01*
X318543Y159707D01*
X318208Y159127D01*
X317735Y158654D01*
X317156Y158320D01*
X316510Y158147D01*
X313174Y158147D01*
G37*
%LPD*%
%LPC*%
G36*
X35297Y25287D02*
X35297Y25287D01*
X35297Y28622D01*
X35470Y29268D01*
X35804Y29848D01*
X36277Y30321D01*
X36857Y30655D01*
X37503Y30828D01*
X40838Y30828D01*
X40838Y25287D01*
X35297Y25287D01*
G37*
%LPD*%
%LPC*%
G36*
X46837Y13747D02*
X46837Y13747D01*
X46837Y19288D01*
X52378Y19288D01*
X52378Y15953D01*
X52205Y15307D01*
X51871Y14727D01*
X51398Y14254D01*
X50818Y13920D01*
X50172Y13747D01*
X46837Y13747D01*
G37*
%LPD*%
%LPC*%
G36*
X303840Y158147D02*
X303840Y158147D01*
X303194Y158320D01*
X302615Y158654D01*
X302142Y159127D01*
X301807Y159707D01*
X301634Y160353D01*
X301634Y163688D01*
X307176Y163688D01*
X307176Y158147D01*
X303840Y158147D01*
G37*
%LPD*%
%LPC*%
G36*
X37503Y13747D02*
X37503Y13747D01*
X36857Y13920D01*
X36277Y14254D01*
X35804Y14727D01*
X35470Y15307D01*
X35297Y15953D01*
X35297Y19288D01*
X40838Y19288D01*
X40838Y13747D01*
X37503Y13747D01*
G37*
%LPD*%
%LPC*%
G36*
X262381Y24831D02*
X262381Y24831D01*
X262381Y31341D01*
X263685Y31341D01*
X264331Y31168D01*
X264910Y30833D01*
X265383Y30360D01*
X265718Y29781D01*
X265891Y29135D01*
X265891Y24831D01*
X262381Y24831D01*
G37*
%LPD*%
%LPC*%
G36*
X262381Y14259D02*
X262381Y14259D01*
X262381Y20769D01*
X265891Y20769D01*
X265891Y16465D01*
X265718Y15819D01*
X265383Y15240D01*
X264910Y14767D01*
X264331Y14432D01*
X263685Y14259D01*
X262381Y14259D01*
G37*
%LPD*%
D10*
X20163Y165100D03*
X40163Y165100D03*
D11*
X43838Y22288D03*
X22838Y22288D03*
D12*
X330200Y63500D03*
X304800Y63500D03*
X330200Y88900D03*
X304800Y88900D03*
X330200Y114300D03*
X304800Y114300D03*
D13*
X73100Y139000D03*
D14*
X78740Y111000D03*
X78740Y103000D03*
X78740Y95000D03*
X78740Y87000D03*
X78740Y79000D03*
D13*
X18100Y139000D03*
X73100Y51000D03*
X18100Y51000D03*
D15*
X260350Y78800D03*
X247650Y78800D03*
X234950Y78800D03*
X222250Y78800D03*
X209550Y78800D03*
X196850Y78800D03*
X184150Y78800D03*
X184150Y22800D03*
X196850Y22800D03*
X209550Y22800D03*
X222250Y22800D03*
X234950Y22800D03*
X247650Y22800D03*
X260350Y22800D03*
D16*
X112500Y88900D03*
X141500Y88900D03*
X112500Y139700D03*
X141500Y139700D03*
D17*
X124113Y22225D03*
X152113Y22225D03*
D10*
X137000Y165100D03*
X117000Y165100D03*
X137000Y63500D03*
X117000Y63500D03*
X66200Y165100D03*
X86200Y165100D03*
D18*
X117500Y114300D03*
X136500Y114300D03*
X190475Y114300D03*
X171475Y114300D03*
X190475Y139700D03*
X171475Y139700D03*
D10*
X170975Y165100D03*
X190975Y165100D03*
D19*
X253050Y134163D03*
X229550Y134163D03*
X229550Y116663D03*
X253050Y116663D03*
D17*
X69488Y22263D03*
X97488Y22263D03*
D11*
X310175Y166688D03*
X331175Y166688D03*
D10*
X332263Y142875D03*
X312263Y142875D03*
D20*
X100013Y66675D03*
X153988Y112713D03*
X153988Y133350D03*
X153988Y152400D03*
X273050Y23813D03*
X171450Y85725D03*
X171450Y96838D03*
X60325Y69850D03*
X100013Y77788D03*
X47625Y7938D03*
X57150Y82550D03*
X50800Y60325D03*
X168275Y49213D03*
X53975Y182563D03*
X23813Y180975D03*
D21*
X209550Y38100D02*
X209550Y22800D01*
D20*
X209550Y38100D03*
D21*
X127000Y104775D02*
X127000Y127700D01*
X112500Y139700D01*
X125225Y103000D02*
X78740Y103000D01*
X125225Y103000D02*
X127000Y104775D01*
X117000Y165100D02*
X86200Y165100D01*
X117000Y165100D02*
X117000Y144200D01*
X112500Y139700D01*
X112500Y88900D02*
X117000Y84400D01*
X112500Y88900D02*
X100013Y88900D01*
X93663Y95250D01*
X78990Y95250D01*
X78740Y95000D01*
X117000Y84400D02*
X117000Y63500D01*
X137000Y63500D02*
X193675Y63500D01*
X196850Y66675D01*
X196850Y78800D01*
X209550Y78800D01*
D20*
X150813Y165100D03*
X247650Y9525D03*
D21*
X247650Y22800D01*
X150813Y165100D02*
X137000Y165100D01*
D22*
X66200Y165100D02*
X40163Y165100D01*
D21*
X114200Y111000D02*
X117500Y114300D01*
D22*
X38100Y142875D02*
X38100Y164625D01*
D21*
X40163Y165100D01*
D22*
X171450Y179388D02*
X201613Y179388D01*
X171450Y179388D02*
X71438Y179388D01*
X65088Y173038D01*
X65088Y166213D01*
D21*
X66200Y165100D01*
D20*
X206375Y165100D03*
D22*
X206375Y174625D01*
X201613Y179388D01*
X206375Y165100D02*
X242888Y165100D01*
X266700Y141288D01*
X266700Y85150D01*
X260350Y78800D01*
X170975Y165100D02*
X170975Y178913D01*
X171450Y179388D01*
X119350Y28863D02*
X124113Y22225D01*
X119063Y20638D02*
X119350Y28863D01*
X119063Y20638D02*
X102213Y20638D01*
X97488Y22263D01*
X98425Y114300D02*
X117500Y114300D01*
X98425Y114300D02*
X92075Y120650D01*
X60325Y120650D01*
X38100Y142875D01*
D20*
X98425Y39688D03*
D23*
X98425Y24788D01*
X97488Y22263D01*
D21*
X196850Y22800D02*
X196850Y14288D01*
X195263Y12700D01*
X177800Y12700D01*
X174625Y15875D01*
X174625Y41275D01*
X185738Y52388D01*
X274638Y52388D01*
X298450Y76200D01*
X317500Y76200D01*
X330200Y88900D01*
X184150Y41275D02*
X184150Y22800D01*
X184150Y41275D02*
X190500Y47625D01*
X314325Y47625D01*
X330200Y63500D01*
X130175Y77788D02*
X127000Y74613D01*
X127000Y49213D01*
X128588Y47625D01*
X142875Y47625D01*
X152400Y57150D01*
X273050Y57150D01*
X304800Y88900D01*
X183575Y77788D02*
X130175Y77788D01*
X183575Y77788D02*
X184150Y78800D01*
X229550Y100650D02*
X229550Y116663D01*
X229550Y100650D02*
X234950Y95250D01*
X234950Y78800D01*
X227188Y114300D02*
X190475Y114300D01*
X227188Y114300D02*
X229550Y116663D01*
X241300Y133350D02*
X241300Y141288D01*
X241300Y133350D02*
X241300Y101600D01*
X247650Y95250D02*
X247650Y78800D01*
X190475Y139700D02*
X190475Y142850D01*
X192088Y144463D01*
X238125Y144463D01*
X241300Y141288D01*
X242113Y134163D02*
X253050Y134163D01*
X242113Y134163D02*
X241300Y133350D01*
X241300Y101600D02*
X247650Y95250D01*
D20*
X207963Y65088D03*
D21*
X190975Y163988D02*
X190975Y165100D01*
X190975Y163988D02*
X180975Y153988D01*
X180975Y96838D01*
X187325Y90488D01*
X217488Y90488D01*
X222250Y85725D01*
X222250Y78800D01*
X217488Y65088D02*
X207963Y65088D01*
X217488Y65088D02*
X222250Y69850D01*
X222250Y78800D01*
X20163Y165100D02*
X9525Y165100D01*
D20*
X9525Y165100D03*
X9525Y23813D03*
D21*
X19600Y23813D01*
X22838Y22288D01*
X330675Y143375D02*
X331175Y143375D01*
X331175Y166688D01*
X234950Y36513D02*
X234950Y22800D01*
X234950Y36513D02*
X231775Y39688D01*
X223838Y39688D01*
D20*
X223838Y39688D03*
X296863Y142875D03*
D21*
X312263Y142875D01*
D23*
X78740Y111000D02*
X63375Y111000D01*
X38100Y85725D01*
X38100Y53975D01*
X65088Y26988D01*
X65088Y25075D01*
X69488Y22263D01*
D24*
X323000Y21000D03*
M02*
