G04 EAGLE Gerber X2 export*
%TF.Part,Single*%
%TF.FileFunction,Other,Silk bottom*%
%TF.FilePolarity,Positive*%
%TF.GenerationSoftware,Autodesk,EAGLE,9.1.3*%
%TF.CreationDate,2018-09-03T05:04:02Z*%
G75*
%MOMM*%
%FSLAX34Y34*%
%LPD*%
%AMOC8*
5,1,8,0,0,1.08239X$1,22.5*%
G01*
%ADD10C,0.127000*%
%ADD11C,0.101600*%
%ADD12C,0.254000*%
%ADD13C,0.279400*%
%ADD14C,0.203200*%

G36*
X281701Y58321D02*
X281701Y58321D01*
X281703Y58321D01*
X281703Y58323D01*
X281705Y58324D01*
X281703Y58326D01*
X281704Y58329D01*
X272179Y67854D01*
X272172Y67854D01*
X272171Y67854D01*
X262646Y58329D01*
X262646Y58327D01*
X262645Y58326D01*
X262646Y58324D01*
X262646Y58322D01*
X262648Y58322D01*
X262650Y58320D01*
X281700Y58320D01*
X281701Y58321D01*
G37*
G36*
X339726Y38096D02*
X339726Y38096D01*
X339728Y38096D01*
X339728Y38098D01*
X339730Y38099D01*
X339728Y38101D01*
X339729Y38104D01*
X330204Y47629D01*
X330197Y47629D01*
X330196Y47629D01*
X320671Y38104D01*
X320671Y38102D01*
X320670Y38101D01*
X320671Y38099D01*
X320671Y38097D01*
X320673Y38097D01*
X320675Y38095D01*
X339725Y38095D01*
X339726Y38096D01*
G37*
D10*
X254953Y30354D02*
X253809Y29210D01*
X252665Y29210D01*
X251521Y30354D01*
X251521Y36074D01*
X252665Y36074D02*
X250377Y36074D01*
X247468Y33786D02*
X245180Y36074D01*
X245180Y29210D01*
X247468Y29210D02*
X242892Y29210D01*
X196215Y30354D02*
X195071Y29210D01*
X193927Y29210D01*
X192783Y30354D01*
X192783Y36074D01*
X193927Y36074D02*
X191639Y36074D01*
X188731Y29210D02*
X184155Y29210D01*
X188731Y29210D02*
X184155Y33786D01*
X184155Y34930D01*
X185299Y36074D01*
X187587Y36074D01*
X188731Y34930D01*
D11*
X274130Y81471D02*
X274130Y90622D01*
X271079Y87572D01*
X268028Y90622D01*
X268028Y81471D01*
X264774Y81471D02*
X261724Y81471D01*
X263249Y81471D02*
X263249Y90622D01*
X264774Y90622D02*
X261724Y90622D01*
X253962Y90622D02*
X252436Y89097D01*
X253962Y90622D02*
X257012Y90622D01*
X258538Y89097D01*
X258538Y87572D01*
X257012Y86046D01*
X253962Y86046D01*
X252436Y84521D01*
X252436Y82996D01*
X253962Y81471D01*
X257012Y81471D01*
X258538Y82996D01*
X247657Y90622D02*
X244606Y90622D01*
X247657Y90622D02*
X249182Y89097D01*
X249182Y82996D01*
X247657Y81471D01*
X244606Y81471D01*
X243081Y82996D01*
X243081Y89097D01*
X244606Y90622D01*
X226505Y90622D02*
X226505Y84521D01*
X223454Y81471D01*
X220403Y84521D01*
X220403Y90622D01*
X212573Y90622D02*
X211048Y89097D01*
X212573Y90622D02*
X215624Y90622D01*
X217149Y89097D01*
X217149Y82996D01*
X215624Y81471D01*
X212573Y81471D01*
X211048Y82996D01*
X203218Y90622D02*
X201693Y89097D01*
X203218Y90622D02*
X206269Y90622D01*
X207794Y89097D01*
X207794Y82996D01*
X206269Y81471D01*
X203218Y81471D01*
X201693Y82996D01*
X221991Y133547D02*
X223516Y135072D01*
X226567Y135072D01*
X228092Y133547D01*
X228092Y127446D01*
X226567Y125921D01*
X223516Y125921D01*
X221991Y127446D01*
X221991Y130496D01*
X225041Y130496D01*
X218737Y125921D02*
X218737Y135072D01*
X212636Y125921D01*
X212636Y135072D01*
X209382Y135072D02*
X209382Y125921D01*
X204806Y125921D01*
X203280Y127446D01*
X203280Y133547D01*
X204806Y135072D01*
X209382Y135072D01*
X228092Y112847D02*
X228092Y103696D01*
X225041Y109797D02*
X228092Y112847D01*
X225041Y109797D02*
X221991Y112847D01*
X221991Y103696D01*
X217212Y112847D02*
X214161Y112847D01*
X217212Y112847D02*
X218737Y111322D01*
X218737Y105221D01*
X217212Y103696D01*
X214161Y103696D01*
X212636Y105221D01*
X212636Y111322D01*
X214161Y112847D01*
X204806Y112847D02*
X203280Y111322D01*
X204806Y112847D02*
X207856Y112847D01*
X209382Y111322D01*
X209382Y109797D01*
X207856Y108271D01*
X204806Y108271D01*
X203280Y106746D01*
X203280Y105221D01*
X204806Y103696D01*
X207856Y103696D01*
X209382Y105221D01*
X200026Y103696D02*
X196976Y103696D01*
X198501Y103696D02*
X198501Y112847D01*
X200026Y112847D02*
X196976Y112847D01*
X268028Y111322D02*
X269554Y112847D01*
X272604Y112847D01*
X274130Y111322D01*
X274130Y109797D01*
X272604Y108271D01*
X269554Y108271D01*
X268028Y106746D01*
X268028Y105221D01*
X269554Y103696D01*
X272604Y103696D01*
X274130Y105221D01*
X260198Y112847D02*
X258673Y111322D01*
X260198Y112847D02*
X263249Y112847D01*
X264774Y111322D01*
X264774Y105221D01*
X263249Y103696D01*
X260198Y103696D01*
X258673Y105221D01*
X255419Y103696D02*
X255419Y112847D01*
X255419Y106746D02*
X249318Y112847D01*
X253894Y108271D02*
X249318Y103696D01*
X274130Y125921D02*
X274130Y135072D01*
X269554Y135072D01*
X268028Y133547D01*
X268028Y130496D01*
X269554Y128971D01*
X274130Y128971D01*
X271079Y128971D02*
X268028Y125921D01*
X260198Y135072D02*
X258673Y133547D01*
X260198Y135072D02*
X263249Y135072D01*
X264774Y133547D01*
X264774Y132022D01*
X263249Y130496D01*
X260198Y130496D01*
X258673Y128971D01*
X258673Y127446D01*
X260198Y125921D01*
X263249Y125921D01*
X264774Y127446D01*
X252369Y125921D02*
X252369Y135072D01*
X255419Y135072D02*
X249318Y135072D01*
D12*
X234950Y74613D02*
X280988Y74613D01*
X234950Y74613D02*
X190500Y74613D01*
X190500Y96838D01*
X190500Y119063D01*
X190500Y141288D01*
X234950Y141288D01*
X280988Y141288D01*
X280988Y119063D01*
X280988Y96838D01*
X280988Y74613D01*
X280988Y96838D02*
X190500Y96838D01*
X190500Y119063D02*
X280988Y119063D01*
X234950Y141288D02*
X234950Y74613D01*
D13*
X84328Y154178D02*
X69329Y154178D01*
X69329Y144179D01*
X76829Y149178D02*
X76829Y154178D01*
X84328Y137806D02*
X84328Y132807D01*
X84328Y135307D02*
X69329Y135307D01*
X69329Y137806D02*
X69329Y132807D01*
X69329Y119393D02*
X71829Y116893D01*
X69329Y119393D02*
X69329Y124392D01*
X71829Y126892D01*
X74329Y126892D01*
X76829Y124392D01*
X76829Y119393D01*
X79328Y116893D01*
X81828Y116893D01*
X84328Y119393D01*
X84328Y124392D01*
X81828Y126892D01*
X84328Y110521D02*
X69329Y110521D01*
X69329Y103021D01*
X71829Y100521D01*
X76829Y100521D01*
X79328Y103021D01*
X79328Y110521D01*
X74329Y77777D02*
X69329Y72778D01*
X84328Y72778D01*
X84328Y77777D02*
X84328Y67778D01*
X84328Y61406D02*
X81828Y61406D01*
X81828Y58906D01*
X84328Y58906D01*
X84328Y61406D01*
X74329Y53220D02*
X69329Y48220D01*
X84328Y48220D01*
X84328Y43221D02*
X84328Y53220D01*
D14*
X182500Y60800D02*
X198500Y60800D01*
X200500Y43800D02*
X200518Y43702D01*
X200532Y43603D01*
X200542Y43503D01*
X200548Y43403D01*
X200550Y43303D01*
X200548Y43203D01*
X200542Y43103D01*
X200533Y43003D01*
X200519Y42904D01*
X200502Y42805D01*
X200480Y42708D01*
X200455Y42611D01*
X200426Y42515D01*
X200394Y42420D01*
X200357Y42327D01*
X200317Y42235D01*
X200274Y42145D01*
X200227Y42056D01*
X200176Y41970D01*
X200122Y41886D01*
X200065Y41803D01*
X200005Y41724D01*
X199941Y41646D01*
X199875Y41571D01*
X199805Y41499D01*
X199733Y41429D01*
X199658Y41363D01*
X199581Y41299D01*
X199501Y41239D01*
X199419Y41181D01*
X199335Y41127D01*
X199248Y41077D01*
X199160Y41029D01*
X199070Y40986D01*
X198978Y40945D01*
X198885Y40909D01*
X198791Y40876D01*
X198695Y40847D01*
X198598Y40822D01*
X198500Y40800D01*
X182500Y40799D02*
X182402Y40821D01*
X182305Y40846D01*
X182209Y40875D01*
X182115Y40908D01*
X182022Y40945D01*
X181930Y40985D01*
X181840Y41029D01*
X181752Y41076D01*
X181665Y41127D01*
X181581Y41181D01*
X181499Y41238D01*
X181419Y41299D01*
X181342Y41362D01*
X181267Y41429D01*
X181195Y41498D01*
X181126Y41571D01*
X181059Y41645D01*
X180996Y41723D01*
X180935Y41803D01*
X180878Y41885D01*
X180824Y41969D01*
X180774Y42056D01*
X180727Y42144D01*
X180683Y42234D01*
X180643Y42326D01*
X180607Y42419D01*
X180574Y42514D01*
X180545Y42610D01*
X180520Y42707D01*
X180498Y42805D01*
X180481Y42903D01*
X180467Y43003D01*
X180458Y43102D01*
X180452Y43202D01*
X180450Y43302D01*
X180452Y43402D01*
X180458Y43502D01*
X180468Y43602D01*
X180482Y43701D01*
X180500Y43800D01*
X180500Y57800D02*
X180482Y57899D01*
X180468Y57998D01*
X180458Y58098D01*
X180452Y58198D01*
X180450Y58298D01*
X180452Y58398D01*
X180458Y58498D01*
X180467Y58597D01*
X180481Y58697D01*
X180498Y58795D01*
X180520Y58893D01*
X180545Y58990D01*
X180574Y59086D01*
X180607Y59181D01*
X180643Y59274D01*
X180683Y59366D01*
X180727Y59456D01*
X180774Y59544D01*
X180824Y59631D01*
X180878Y59715D01*
X180935Y59797D01*
X180996Y59877D01*
X181059Y59955D01*
X181126Y60029D01*
X181195Y60102D01*
X181267Y60171D01*
X181342Y60238D01*
X181419Y60301D01*
X181499Y60362D01*
X181581Y60419D01*
X181665Y60473D01*
X181752Y60524D01*
X181840Y60571D01*
X181930Y60615D01*
X182022Y60655D01*
X182115Y60692D01*
X182209Y60725D01*
X182305Y60754D01*
X182402Y60779D01*
X182500Y60801D01*
X198500Y60801D02*
X198598Y60779D01*
X198695Y60754D01*
X198791Y60725D01*
X198885Y60692D01*
X198978Y60655D01*
X199070Y60615D01*
X199160Y60571D01*
X199248Y60524D01*
X199335Y60473D01*
X199419Y60419D01*
X199501Y60362D01*
X199581Y60301D01*
X199658Y60238D01*
X199733Y60171D01*
X199805Y60102D01*
X199874Y60029D01*
X199941Y59955D01*
X200004Y59877D01*
X200065Y59797D01*
X200122Y59715D01*
X200176Y59631D01*
X200226Y59544D01*
X200273Y59456D01*
X200317Y59366D01*
X200357Y59274D01*
X200393Y59181D01*
X200426Y59086D01*
X200455Y58990D01*
X200480Y58893D01*
X200502Y58795D01*
X200519Y58697D01*
X200533Y58597D01*
X200542Y58498D01*
X200548Y58398D01*
X200550Y58298D01*
X200548Y58198D01*
X200542Y58098D01*
X200532Y57998D01*
X200518Y57899D01*
X200500Y57800D01*
X198500Y40800D02*
X182500Y40800D01*
X239650Y40800D02*
X255650Y40800D01*
X237650Y57800D02*
X237632Y57898D01*
X237618Y57997D01*
X237608Y58097D01*
X237602Y58197D01*
X237600Y58297D01*
X237602Y58397D01*
X237608Y58497D01*
X237617Y58597D01*
X237631Y58696D01*
X237648Y58795D01*
X237670Y58892D01*
X237695Y58989D01*
X237724Y59085D01*
X237756Y59180D01*
X237793Y59273D01*
X237833Y59365D01*
X237876Y59455D01*
X237923Y59544D01*
X237974Y59630D01*
X238028Y59714D01*
X238085Y59797D01*
X238145Y59876D01*
X238209Y59954D01*
X238275Y60029D01*
X238345Y60101D01*
X238417Y60171D01*
X238492Y60237D01*
X238569Y60301D01*
X238649Y60361D01*
X238731Y60419D01*
X238815Y60473D01*
X238902Y60523D01*
X238990Y60571D01*
X239080Y60614D01*
X239172Y60655D01*
X239265Y60691D01*
X239359Y60724D01*
X239455Y60753D01*
X239552Y60778D01*
X239650Y60800D01*
X255650Y60801D02*
X255748Y60779D01*
X255845Y60754D01*
X255941Y60725D01*
X256035Y60692D01*
X256128Y60655D01*
X256220Y60615D01*
X256310Y60571D01*
X256398Y60524D01*
X256485Y60473D01*
X256569Y60419D01*
X256651Y60362D01*
X256731Y60301D01*
X256808Y60238D01*
X256883Y60171D01*
X256955Y60102D01*
X257024Y60029D01*
X257091Y59955D01*
X257154Y59877D01*
X257215Y59797D01*
X257272Y59715D01*
X257326Y59631D01*
X257376Y59544D01*
X257423Y59456D01*
X257467Y59366D01*
X257507Y59274D01*
X257543Y59181D01*
X257576Y59086D01*
X257605Y58990D01*
X257630Y58893D01*
X257652Y58795D01*
X257669Y58697D01*
X257683Y58597D01*
X257692Y58498D01*
X257698Y58398D01*
X257700Y58298D01*
X257698Y58198D01*
X257692Y58098D01*
X257682Y57998D01*
X257668Y57899D01*
X257650Y57800D01*
X257650Y43800D02*
X257668Y43701D01*
X257682Y43602D01*
X257692Y43502D01*
X257698Y43402D01*
X257700Y43302D01*
X257698Y43202D01*
X257692Y43102D01*
X257683Y43003D01*
X257669Y42903D01*
X257652Y42805D01*
X257630Y42707D01*
X257605Y42610D01*
X257576Y42514D01*
X257543Y42419D01*
X257507Y42326D01*
X257467Y42234D01*
X257423Y42144D01*
X257376Y42056D01*
X257326Y41969D01*
X257272Y41885D01*
X257215Y41803D01*
X257154Y41723D01*
X257091Y41645D01*
X257024Y41571D01*
X256955Y41498D01*
X256883Y41429D01*
X256808Y41362D01*
X256731Y41299D01*
X256651Y41238D01*
X256569Y41181D01*
X256485Y41127D01*
X256398Y41076D01*
X256310Y41029D01*
X256220Y40985D01*
X256128Y40945D01*
X256035Y40908D01*
X255941Y40875D01*
X255845Y40846D01*
X255748Y40821D01*
X255650Y40799D01*
X239650Y40799D02*
X239552Y40821D01*
X239455Y40846D01*
X239359Y40875D01*
X239265Y40908D01*
X239172Y40945D01*
X239080Y40985D01*
X238990Y41029D01*
X238902Y41076D01*
X238815Y41127D01*
X238731Y41181D01*
X238649Y41238D01*
X238569Y41299D01*
X238492Y41362D01*
X238417Y41429D01*
X238345Y41498D01*
X238276Y41571D01*
X238209Y41645D01*
X238146Y41723D01*
X238085Y41803D01*
X238028Y41885D01*
X237974Y41969D01*
X237924Y42056D01*
X237877Y42144D01*
X237833Y42234D01*
X237793Y42326D01*
X237757Y42419D01*
X237724Y42514D01*
X237695Y42610D01*
X237670Y42707D01*
X237648Y42805D01*
X237631Y42903D01*
X237617Y43003D01*
X237608Y43102D01*
X237602Y43202D01*
X237600Y43302D01*
X237602Y43402D01*
X237608Y43502D01*
X237618Y43602D01*
X237632Y43701D01*
X237650Y43800D01*
X239650Y60800D02*
X255650Y60800D01*
M02*
