G04 EAGLE Gerber X2 export*
%TF.Part,Single*%
%TF.FileFunction,Other,Solder paste top*%
%TF.FilePolarity,Positive*%
%TF.GenerationSoftware,Autodesk,EAGLE,9.1.3*%
%TF.CreationDate,2018-09-03T05:04:02Z*%
G75*
%MOMM*%
%FSLAX34Y34*%
%LPD*%
%AMOC8*
5,1,8,0,0,1.08239X$1,22.5*%
G01*
%ADD10R,1.100000X1.400000*%
%ADD11R,1.200000X1.200000*%
%ADD12R,2.400000X2.000000*%
%ADD13R,2.308000X0.500000*%
%ADD14R,0.600000X1.200000*%
%ADD15R,1.500000X1.200000*%
%ADD16R,1.600000X1.800000*%
%ADD17R,1.300000X1.500000*%
%ADD18R,1.200000X1.100000*%


D10*
X20163Y165100D03*
X40163Y165100D03*
D11*
X43838Y22288D03*
X22838Y22288D03*
D12*
X73100Y139000D03*
D13*
X78740Y111000D03*
X78740Y103000D03*
X78740Y95000D03*
X78740Y87000D03*
X78740Y79000D03*
D12*
X18100Y139000D03*
X73100Y51000D03*
X18100Y51000D03*
D14*
X260350Y78800D03*
X247650Y78800D03*
X234950Y78800D03*
X222250Y78800D03*
X209550Y78800D03*
X196850Y78800D03*
X184150Y78800D03*
X184150Y22800D03*
X196850Y22800D03*
X209550Y22800D03*
X222250Y22800D03*
X234950Y22800D03*
X247650Y22800D03*
X260350Y22800D03*
D15*
X112500Y88900D03*
X141500Y88900D03*
X112500Y139700D03*
X141500Y139700D03*
D16*
X124113Y22225D03*
X152113Y22225D03*
D10*
X137000Y165100D03*
X117000Y165100D03*
X137000Y63500D03*
X117000Y63500D03*
X66200Y165100D03*
X86200Y165100D03*
D17*
X117500Y114300D03*
X136500Y114300D03*
X190475Y114300D03*
X171475Y114300D03*
X190475Y139700D03*
X171475Y139700D03*
D10*
X170975Y165100D03*
X190975Y165100D03*
D18*
X253050Y134163D03*
X229550Y134163D03*
X229550Y116663D03*
X253050Y116663D03*
D16*
X69488Y22263D03*
X97488Y22263D03*
D11*
X310175Y166688D03*
X331175Y166688D03*
D10*
X332263Y142875D03*
X312263Y142875D03*
M02*
