M48
;GenerationSoftware,Autodesk,EAGLE,9.1.3*%
;CreationDate,2018-09-03T05:04:02Z*%
FMAT,2
ICI,OFF
METRIC,TZ,000.000
T4C0.500
T3C0.900
T2C1.016
T1C2.000
%
G90
M71
T1
X32300Y2100
T2
X30480Y11430
X33020Y6350
X30480Y6350
X33020Y8890
X30480Y8890
X33020Y11430
T3
X4810Y11700
X4810Y7300
T4
X4763Y794
X5715Y8255
X5080Y6032
X16828Y4921
X5398Y18256
X2381Y18098
X20955Y3810
X15081Y16510
X10001Y6667
X20638Y16510
X9843Y3969
X20796Y6509
X952Y16510
X952Y2381
X22384Y3969
X29686Y14287
X15399Y11271
X15399Y13335
X15399Y15240
X27305Y2381
X17145Y8573
X17145Y9684
X6032Y6985
X10001Y7779
X24765Y952
M30