G04 EAGLE Gerber X2 export*
%TF.Part,Single*%
%TF.FileFunction,Other,Silk top*%
%TF.FilePolarity,Positive*%
%TF.GenerationSoftware,Autodesk,EAGLE,9.1.3*%
%TF.CreationDate,2018-09-03T05:04:02Z*%
G75*
%MOMM*%
%FSLAX34Y34*%
%LPD*%
%AMOC8*
5,1,8,0,0,1.08239X$1,22.5*%
G01*
%ADD10C,0.279400*%
%ADD11C,0.254000*%
%ADD12R,0.650000X1.400000*%
%ADD13C,0.203200*%
%ADD14C,0.101600*%
%ADD15C,0.127000*%
%ADD16C,0.152400*%


D10*
X226822Y169672D02*
X226822Y179671D01*
X231822Y184671D01*
X236821Y179671D01*
X236821Y169672D01*
X236821Y177171D02*
X226822Y177171D01*
X243194Y174672D02*
X243194Y184671D01*
X243194Y174672D02*
X248193Y169672D01*
X253193Y174672D01*
X253193Y184671D01*
X259565Y184671D02*
X259565Y169672D01*
X259565Y184671D02*
X267065Y184671D01*
X269564Y182171D01*
X269564Y177171D01*
X267065Y174672D01*
X259565Y174672D01*
X264565Y174672D02*
X269564Y169672D01*
X236584Y149035D02*
X231585Y149035D01*
X234084Y149035D02*
X234084Y164033D01*
X231585Y164033D02*
X236584Y164033D01*
X249998Y164033D02*
X252498Y161534D01*
X249998Y164033D02*
X244999Y164033D01*
X242499Y161534D01*
X242499Y159034D01*
X244999Y156534D01*
X249998Y156534D01*
X252498Y154034D01*
X252498Y151534D01*
X249998Y149035D01*
X244999Y149035D01*
X242499Y151534D01*
X258870Y149035D02*
X258870Y164033D01*
X266370Y164033D01*
X268870Y161534D01*
X268870Y156534D01*
X266370Y154034D01*
X258870Y154034D01*
D11*
X107950Y33338D02*
X58738Y33338D01*
X107950Y33338D02*
X107950Y11113D01*
X58738Y11113D01*
X58738Y33338D01*
X114300Y33338D02*
X114300Y11113D01*
X114300Y33338D02*
X161925Y33338D01*
X161925Y11113D01*
X114300Y11113D01*
X107950Y73025D02*
X146050Y73025D01*
X146050Y53975D01*
X107950Y53975D01*
X107950Y73025D01*
X147638Y79375D02*
X147638Y98425D01*
X103188Y98425D01*
X103188Y79375D01*
X147638Y79375D01*
X147638Y130175D02*
X147638Y149225D01*
X103188Y149225D01*
X103188Y130175D01*
X147638Y130175D01*
X146050Y174625D02*
X107950Y174625D01*
X146050Y174625D02*
X146050Y155575D01*
X107950Y155575D01*
X107950Y174625D01*
X95250Y174625D02*
X57150Y174625D01*
X95250Y174625D02*
X95250Y155575D01*
X57150Y155575D01*
X57150Y174625D01*
X49213Y174625D02*
X11113Y174625D01*
X49213Y174625D02*
X49213Y155575D01*
X11113Y155575D01*
X11113Y174625D01*
X161925Y174625D02*
X200025Y174625D01*
X200025Y155575D01*
X161925Y155575D01*
X161925Y174625D01*
X161925Y149225D02*
X200025Y149225D01*
X200025Y130175D01*
X161925Y130175D01*
X161925Y149225D01*
X161925Y123825D02*
X200025Y123825D01*
X200025Y104775D01*
X161925Y104775D01*
X161925Y123825D01*
X303213Y152400D02*
X341313Y152400D01*
X341313Y133350D01*
X303213Y133350D01*
X303213Y152400D01*
X146050Y123825D02*
X107950Y123825D01*
X146050Y123825D02*
X146050Y104775D01*
X107950Y104775D01*
X107950Y123825D01*
D12*
X37477Y165115D03*
X22745Y165115D03*
D13*
X35338Y26288D02*
X35338Y22288D01*
X35338Y18288D01*
X35338Y22288D02*
X31338Y26288D01*
X31338Y18288D01*
X35338Y22288D01*
X14338Y13788D02*
X14338Y30788D01*
X52338Y30788D01*
X52338Y13788D01*
X14338Y13788D01*
X336550Y50800D02*
X342900Y57150D01*
X342900Y69850D02*
X336550Y76200D01*
X342900Y82550D01*
X342900Y95250D02*
X336550Y101600D01*
X342900Y107950D01*
X342900Y120650D02*
X336550Y127000D01*
X336550Y50800D02*
X298450Y50800D01*
X292100Y57150D01*
X292100Y69850D01*
X298450Y76200D01*
X292100Y82550D01*
X292100Y95250D01*
X298450Y101600D01*
X292100Y107950D01*
X292100Y120650D01*
X298450Y127000D01*
X298450Y76200D02*
X336550Y76200D01*
X336550Y101600D02*
X298450Y101600D01*
X298450Y127000D02*
X336550Y127000D01*
X342900Y120650D02*
X342900Y107950D01*
X342900Y95250D02*
X342900Y82550D01*
X342900Y69850D02*
X342900Y57150D01*
X346250Y57150D02*
X346250Y69850D01*
D14*
X3039Y105383D02*
X3039Y105382D01*
D15*
X32100Y134000D02*
X59100Y134000D01*
X59100Y56000D02*
X32100Y56000D01*
X84100Y116000D02*
X84100Y127000D01*
X84100Y74000D02*
X84100Y63000D01*
D13*
X179832Y31337D02*
X264668Y31337D01*
X178832Y70263D02*
X178719Y70244D01*
X178607Y70222D01*
X178496Y70195D01*
X178386Y70165D01*
X178277Y70130D01*
X178169Y70092D01*
X178062Y70051D01*
X177957Y70006D01*
X177854Y69957D01*
X177752Y69905D01*
X177652Y69849D01*
X177554Y69790D01*
X177459Y69728D01*
X177365Y69662D01*
X177274Y69593D01*
X177185Y69522D01*
X177098Y69447D01*
X177014Y69369D01*
X176933Y69289D01*
X176855Y69205D01*
X176779Y69119D01*
X176707Y69031D01*
X176638Y68940D01*
X176571Y68847D01*
X176508Y68752D01*
X176448Y68654D01*
X176392Y68555D01*
X176339Y68454D01*
X176290Y68350D01*
X176244Y68246D01*
X176201Y68140D01*
X176163Y68032D01*
X176128Y67923D01*
X176096Y67813D01*
X176069Y67702D01*
X176045Y67590D01*
X176025Y67478D01*
X176009Y67365D01*
X175997Y67251D01*
X175989Y67137D01*
X175985Y67023D01*
X175984Y66908D01*
X175988Y66794D01*
X175995Y66680D01*
X176006Y66566D01*
X176022Y66453D01*
X264668Y31337D02*
X264798Y31354D01*
X264927Y31375D01*
X265056Y31400D01*
X265184Y31428D01*
X265311Y31461D01*
X265437Y31497D01*
X265562Y31538D01*
X265685Y31582D01*
X265807Y31629D01*
X265928Y31681D01*
X266047Y31735D01*
X266164Y31794D01*
X266279Y31856D01*
X266393Y31921D01*
X266505Y31990D01*
X266614Y32063D01*
X266721Y32138D01*
X266826Y32217D01*
X266928Y32299D01*
X267028Y32384D01*
X267125Y32471D01*
X267220Y32562D01*
X267312Y32656D01*
X267401Y32752D01*
X267487Y32851D01*
X267569Y32952D01*
X267649Y33056D01*
X267726Y33163D01*
X267799Y33271D01*
X267869Y33382D01*
X267936Y33495D01*
X267999Y33610D01*
X268059Y33726D01*
X268115Y33845D01*
X268168Y33965D01*
X268217Y34086D01*
X268262Y34209D01*
X268304Y34334D01*
X268342Y34459D01*
X268375Y34586D01*
X268406Y34713D01*
X268432Y34842D01*
X268454Y34971D01*
X268473Y35101D01*
X268487Y35231D01*
X268498Y35362D01*
X268504Y35493D01*
X268507Y35624D01*
X268506Y35755D01*
X268500Y35886D01*
X268491Y36016D01*
X268478Y36147D01*
X179832Y31337D02*
X179710Y31339D01*
X179588Y31345D01*
X179466Y31355D01*
X179345Y31368D01*
X179224Y31386D01*
X179104Y31407D01*
X178984Y31432D01*
X178865Y31461D01*
X178748Y31494D01*
X178631Y31531D01*
X178516Y31571D01*
X178402Y31615D01*
X178290Y31663D01*
X178179Y31714D01*
X178070Y31769D01*
X177962Y31827D01*
X177857Y31889D01*
X177753Y31954D01*
X177652Y32022D01*
X177553Y32093D01*
X177456Y32168D01*
X177362Y32246D01*
X177270Y32326D01*
X177181Y32410D01*
X177095Y32496D01*
X177011Y32585D01*
X176931Y32677D01*
X176853Y32771D01*
X176778Y32868D01*
X176707Y32967D01*
X176639Y33068D01*
X176574Y33172D01*
X176512Y33277D01*
X176454Y33385D01*
X176399Y33494D01*
X176348Y33605D01*
X176300Y33717D01*
X176256Y33831D01*
X176216Y33946D01*
X176179Y34063D01*
X176146Y34180D01*
X176117Y34299D01*
X176092Y34419D01*
X176071Y34539D01*
X176053Y34660D01*
X176040Y34781D01*
X176030Y34903D01*
X176024Y35025D01*
X176022Y35147D01*
X264667Y70263D02*
X264781Y70278D01*
X264895Y70290D01*
X265009Y70297D01*
X265123Y70301D01*
X265237Y70300D01*
X265352Y70296D01*
X265466Y70288D01*
X265579Y70276D01*
X265692Y70260D01*
X265805Y70240D01*
X265917Y70216D01*
X266028Y70189D01*
X266138Y70158D01*
X266247Y70123D01*
X266354Y70084D01*
X266461Y70042D01*
X266565Y69996D01*
X266668Y69946D01*
X266770Y69893D01*
X266869Y69837D01*
X266967Y69777D01*
X267062Y69714D01*
X267155Y69648D01*
X267246Y69578D01*
X267334Y69506D01*
X267420Y69430D01*
X267503Y69352D01*
X267584Y69271D01*
X267662Y69187D01*
X267736Y69101D01*
X267808Y69012D01*
X267877Y68920D01*
X267943Y68827D01*
X268005Y68731D01*
X268064Y68633D01*
X268120Y68533D01*
X268172Y68431D01*
X268220Y68328D01*
X268266Y68223D01*
X268307Y68116D01*
X268345Y68008D01*
X268379Y67899D01*
X268409Y67789D01*
X268436Y67678D01*
X268459Y67566D01*
X268478Y67453D01*
X264668Y70263D02*
X178832Y70263D01*
X176022Y66453D02*
X176022Y35147D01*
X267970Y44704D02*
X267812Y44706D01*
X267653Y44712D01*
X267495Y44722D01*
X267338Y44736D01*
X267180Y44753D01*
X267024Y44775D01*
X266867Y44800D01*
X266712Y44830D01*
X266557Y44863D01*
X266403Y44900D01*
X266250Y44941D01*
X266098Y44986D01*
X265948Y45035D01*
X265798Y45087D01*
X265650Y45143D01*
X265503Y45203D01*
X265358Y45266D01*
X265215Y45333D01*
X265073Y45403D01*
X264933Y45477D01*
X264795Y45555D01*
X264659Y45636D01*
X264525Y45720D01*
X264393Y45807D01*
X264263Y45898D01*
X264136Y45992D01*
X264011Y46089D01*
X263888Y46190D01*
X263768Y46293D01*
X263651Y46399D01*
X263536Y46508D01*
X263424Y46620D01*
X263315Y46735D01*
X263209Y46852D01*
X263106Y46972D01*
X263005Y47095D01*
X262908Y47220D01*
X262814Y47347D01*
X262723Y47477D01*
X262636Y47609D01*
X262552Y47743D01*
X262471Y47879D01*
X262393Y48017D01*
X262319Y48157D01*
X262249Y48299D01*
X262182Y48442D01*
X262119Y48587D01*
X262059Y48734D01*
X262003Y48882D01*
X261951Y49032D01*
X261902Y49182D01*
X261857Y49334D01*
X261816Y49487D01*
X261779Y49641D01*
X261746Y49796D01*
X261716Y49951D01*
X261691Y50108D01*
X261669Y50264D01*
X261652Y50422D01*
X261638Y50579D01*
X261628Y50737D01*
X261622Y50896D01*
X261620Y51054D01*
X261622Y51212D01*
X261628Y51371D01*
X261638Y51529D01*
X261652Y51686D01*
X261669Y51844D01*
X261691Y52000D01*
X261716Y52157D01*
X261746Y52312D01*
X261779Y52467D01*
X261816Y52621D01*
X261857Y52774D01*
X261902Y52926D01*
X261951Y53076D01*
X262003Y53226D01*
X262059Y53374D01*
X262119Y53521D01*
X262182Y53666D01*
X262249Y53809D01*
X262319Y53951D01*
X262393Y54091D01*
X262471Y54229D01*
X262552Y54365D01*
X262636Y54499D01*
X262723Y54631D01*
X262814Y54761D01*
X262908Y54888D01*
X263005Y55013D01*
X263106Y55136D01*
X263209Y55256D01*
X263315Y55373D01*
X263424Y55488D01*
X263536Y55600D01*
X263651Y55709D01*
X263768Y55815D01*
X263888Y55918D01*
X264011Y56019D01*
X264136Y56116D01*
X264263Y56210D01*
X264393Y56301D01*
X264525Y56388D01*
X264659Y56472D01*
X264795Y56553D01*
X264933Y56631D01*
X265073Y56705D01*
X265215Y56775D01*
X265358Y56842D01*
X265503Y56905D01*
X265650Y56965D01*
X265798Y57021D01*
X265948Y57073D01*
X266098Y57122D01*
X266250Y57167D01*
X266403Y57208D01*
X266557Y57245D01*
X266712Y57278D01*
X266867Y57308D01*
X267024Y57333D01*
X267180Y57355D01*
X267338Y57372D01*
X267495Y57386D01*
X267653Y57396D01*
X267812Y57402D01*
X267970Y57404D01*
X268478Y44704D02*
X268478Y36274D01*
X268478Y57404D02*
X268478Y67453D01*
X268923Y74613D02*
X268925Y74713D01*
X268931Y74814D01*
X268941Y74913D01*
X268955Y75013D01*
X268972Y75112D01*
X268994Y75210D01*
X269020Y75307D01*
X269049Y75403D01*
X269082Y75497D01*
X269119Y75591D01*
X269159Y75683D01*
X269203Y75773D01*
X269251Y75861D01*
X269302Y75948D01*
X269356Y76032D01*
X269414Y76114D01*
X269475Y76194D01*
X269539Y76271D01*
X269606Y76346D01*
X269676Y76418D01*
X269749Y76487D01*
X269824Y76553D01*
X269902Y76617D01*
X269982Y76677D01*
X270065Y76734D01*
X270150Y76787D01*
X270237Y76837D01*
X270326Y76884D01*
X270416Y76927D01*
X270508Y76967D01*
X270602Y77003D01*
X270697Y77035D01*
X270793Y77063D01*
X270891Y77088D01*
X270989Y77108D01*
X271088Y77125D01*
X271188Y77138D01*
X271287Y77147D01*
X271388Y77152D01*
X271488Y77153D01*
X271588Y77150D01*
X271689Y77143D01*
X271788Y77132D01*
X271888Y77117D01*
X271986Y77099D01*
X272084Y77076D01*
X272181Y77049D01*
X272276Y77019D01*
X272371Y76985D01*
X272464Y76947D01*
X272555Y76906D01*
X272645Y76861D01*
X272733Y76813D01*
X272819Y76761D01*
X272903Y76706D01*
X272984Y76647D01*
X273063Y76585D01*
X273140Y76521D01*
X273214Y76453D01*
X273285Y76382D01*
X273354Y76309D01*
X273419Y76233D01*
X273482Y76154D01*
X273541Y76073D01*
X273597Y75990D01*
X273650Y75905D01*
X273699Y75817D01*
X273745Y75728D01*
X273787Y75637D01*
X273826Y75544D01*
X273861Y75450D01*
X273892Y75355D01*
X273920Y75258D01*
X273943Y75161D01*
X273963Y75062D01*
X273979Y74963D01*
X273991Y74864D01*
X273999Y74763D01*
X274003Y74663D01*
X274003Y74563D01*
X273999Y74463D01*
X273991Y74362D01*
X273979Y74263D01*
X273963Y74164D01*
X273943Y74065D01*
X273920Y73968D01*
X273892Y73871D01*
X273861Y73776D01*
X273826Y73682D01*
X273787Y73589D01*
X273745Y73498D01*
X273699Y73409D01*
X273650Y73321D01*
X273597Y73236D01*
X273541Y73153D01*
X273482Y73072D01*
X273419Y72993D01*
X273354Y72917D01*
X273285Y72844D01*
X273214Y72773D01*
X273140Y72705D01*
X273063Y72641D01*
X272984Y72579D01*
X272903Y72520D01*
X272819Y72465D01*
X272733Y72413D01*
X272645Y72365D01*
X272555Y72320D01*
X272464Y72279D01*
X272371Y72241D01*
X272276Y72207D01*
X272181Y72177D01*
X272084Y72150D01*
X271986Y72127D01*
X271888Y72109D01*
X271788Y72094D01*
X271689Y72083D01*
X271588Y72076D01*
X271488Y72073D01*
X271388Y72074D01*
X271287Y72079D01*
X271188Y72088D01*
X271088Y72101D01*
X270989Y72118D01*
X270891Y72138D01*
X270793Y72163D01*
X270697Y72191D01*
X270602Y72223D01*
X270508Y72259D01*
X270416Y72299D01*
X270326Y72342D01*
X270237Y72389D01*
X270150Y72439D01*
X270065Y72492D01*
X269982Y72549D01*
X269902Y72609D01*
X269824Y72673D01*
X269749Y72739D01*
X269676Y72808D01*
X269606Y72880D01*
X269539Y72955D01*
X269475Y73032D01*
X269414Y73112D01*
X269356Y73194D01*
X269302Y73278D01*
X269251Y73365D01*
X269203Y73453D01*
X269159Y73543D01*
X269119Y73635D01*
X269082Y73729D01*
X269049Y73823D01*
X269020Y73919D01*
X268994Y74016D01*
X268972Y74114D01*
X268955Y74213D01*
X268941Y74313D01*
X268931Y74412D01*
X268925Y74513D01*
X268923Y74613D01*
D16*
X128000Y92900D02*
X122000Y88900D01*
X128000Y92900D02*
X128000Y84900D01*
X122000Y88900D01*
X122000Y139700D02*
X128000Y143700D01*
X128000Y135700D01*
X122000Y139700D01*
D12*
X119686Y165085D03*
X134418Y165085D03*
X119686Y63485D03*
X134418Y63485D03*
X83514Y165115D03*
X68782Y165115D03*
X188289Y165115D03*
X173557Y165115D03*
D13*
X237300Y111643D02*
X245300Y111643D01*
X258570Y123913D02*
X258570Y126913D01*
X224030Y126913D02*
X224030Y123913D01*
X237300Y139183D02*
X245300Y139183D01*
X318675Y162688D02*
X318675Y166688D01*
X318675Y170688D01*
X318675Y166688D02*
X322675Y162688D01*
X322675Y170688D01*
X318675Y166688D01*
X339675Y175188D02*
X339675Y158188D01*
X301675Y158188D01*
X301675Y175188D01*
X339675Y175188D01*
D12*
X314949Y142860D03*
X329681Y142860D03*
M02*
