G04 EAGLE Gerber X2 export*
%TF.Part,Single*%
%TF.FileFunction,Other,Slot drills/holes*%
%TF.FilePolarity,Positive*%
%TF.GenerationSoftware,Autodesk,EAGLE,9.1.3*%
%TF.CreationDate,2018-09-03T05:04:02Z*%
G75*
%MOMM*%
%FSLAX34Y34*%
%LPD*%
%AMOC8*
5,1,8,0,0,1.08239X$1,22.5*%
G01*
%ADD10C,0.000000*%


D10*
X30000Y0D02*
X320000Y0D01*
X350000Y30000D02*
X350000Y160000D01*
X320000Y190000D02*
X30000Y190000D01*
X0Y160000D02*
X0Y30000D01*
X0Y160000D02*
X9Y160725D01*
X35Y161449D01*
X79Y162173D01*
X140Y162895D01*
X219Y163616D01*
X315Y164335D01*
X428Y165051D01*
X559Y165764D01*
X707Y166474D01*
X872Y167179D01*
X1054Y167881D01*
X1253Y168578D01*
X1468Y169271D01*
X1701Y169957D01*
X1950Y170638D01*
X2215Y171313D01*
X2496Y171981D01*
X2794Y172642D01*
X3107Y173296D01*
X3436Y173942D01*
X3781Y174580D01*
X4141Y175209D01*
X4516Y175829D01*
X4906Y176440D01*
X5310Y177042D01*
X5729Y177634D01*
X6163Y178215D01*
X6610Y178786D01*
X7071Y179345D01*
X7545Y179894D01*
X8032Y180430D01*
X8532Y180955D01*
X9045Y181468D01*
X9570Y181968D01*
X10106Y182455D01*
X10655Y182929D01*
X11214Y183390D01*
X11785Y183837D01*
X12366Y184271D01*
X12958Y184690D01*
X13560Y185094D01*
X14171Y185484D01*
X14791Y185859D01*
X15420Y186219D01*
X16058Y186564D01*
X16704Y186893D01*
X17358Y187206D01*
X18019Y187504D01*
X18687Y187785D01*
X19362Y188050D01*
X20043Y188299D01*
X20729Y188532D01*
X21422Y188747D01*
X22119Y188946D01*
X22821Y189128D01*
X23526Y189293D01*
X24236Y189441D01*
X24949Y189572D01*
X25665Y189685D01*
X26384Y189781D01*
X27105Y189860D01*
X27827Y189921D01*
X28551Y189965D01*
X29275Y189991D01*
X30000Y190000D01*
X0Y30000D02*
X9Y29275D01*
X35Y28551D01*
X79Y27827D01*
X140Y27105D01*
X219Y26384D01*
X315Y25665D01*
X428Y24949D01*
X559Y24236D01*
X707Y23526D01*
X872Y22821D01*
X1054Y22119D01*
X1253Y21422D01*
X1468Y20729D01*
X1701Y20043D01*
X1950Y19362D01*
X2215Y18687D01*
X2496Y18019D01*
X2794Y17358D01*
X3107Y16704D01*
X3436Y16058D01*
X3781Y15420D01*
X4141Y14791D01*
X4516Y14171D01*
X4906Y13560D01*
X5310Y12958D01*
X5729Y12366D01*
X6163Y11785D01*
X6610Y11214D01*
X7071Y10655D01*
X7545Y10106D01*
X8032Y9570D01*
X8532Y9045D01*
X9045Y8532D01*
X9570Y8032D01*
X10106Y7545D01*
X10655Y7071D01*
X11214Y6610D01*
X11785Y6163D01*
X12366Y5729D01*
X12958Y5310D01*
X13560Y4906D01*
X14171Y4516D01*
X14791Y4141D01*
X15420Y3781D01*
X16058Y3436D01*
X16704Y3107D01*
X17358Y2794D01*
X18019Y2496D01*
X18687Y2215D01*
X19362Y1950D01*
X20043Y1701D01*
X20729Y1468D01*
X21422Y1253D01*
X22119Y1054D01*
X22821Y872D01*
X23526Y707D01*
X24236Y559D01*
X24949Y428D01*
X25665Y315D01*
X26384Y219D01*
X27105Y140D01*
X27827Y79D01*
X28551Y35D01*
X29275Y9D01*
X30000Y0D01*
X320000Y0D02*
X320725Y9D01*
X321449Y35D01*
X322173Y79D01*
X322895Y140D01*
X323616Y219D01*
X324335Y315D01*
X325051Y428D01*
X325764Y559D01*
X326474Y707D01*
X327179Y872D01*
X327881Y1054D01*
X328578Y1253D01*
X329271Y1468D01*
X329957Y1701D01*
X330638Y1950D01*
X331313Y2215D01*
X331981Y2496D01*
X332642Y2794D01*
X333296Y3107D01*
X333942Y3436D01*
X334580Y3781D01*
X335209Y4141D01*
X335829Y4516D01*
X336440Y4906D01*
X337042Y5310D01*
X337634Y5729D01*
X338215Y6163D01*
X338786Y6610D01*
X339345Y7071D01*
X339894Y7545D01*
X340430Y8032D01*
X340955Y8532D01*
X341468Y9045D01*
X341968Y9570D01*
X342455Y10106D01*
X342929Y10655D01*
X343390Y11214D01*
X343837Y11785D01*
X344271Y12366D01*
X344690Y12958D01*
X345094Y13560D01*
X345484Y14171D01*
X345859Y14791D01*
X346219Y15420D01*
X346564Y16058D01*
X346893Y16704D01*
X347206Y17358D01*
X347504Y18019D01*
X347785Y18687D01*
X348050Y19362D01*
X348299Y20043D01*
X348532Y20729D01*
X348747Y21422D01*
X348946Y22119D01*
X349128Y22821D01*
X349293Y23526D01*
X349441Y24236D01*
X349572Y24949D01*
X349685Y25665D01*
X349781Y26384D01*
X349860Y27105D01*
X349921Y27827D01*
X349965Y28551D01*
X349991Y29275D01*
X350000Y30000D01*
X350000Y160000D02*
X349991Y160725D01*
X349965Y161449D01*
X349921Y162173D01*
X349860Y162895D01*
X349781Y163616D01*
X349685Y164335D01*
X349572Y165051D01*
X349441Y165764D01*
X349293Y166474D01*
X349128Y167179D01*
X348946Y167881D01*
X348747Y168578D01*
X348532Y169271D01*
X348299Y169957D01*
X348050Y170638D01*
X347785Y171313D01*
X347504Y171981D01*
X347206Y172642D01*
X346893Y173296D01*
X346564Y173942D01*
X346219Y174580D01*
X345859Y175209D01*
X345484Y175829D01*
X345094Y176440D01*
X344690Y177042D01*
X344271Y177634D01*
X343837Y178215D01*
X343390Y178786D01*
X342929Y179345D01*
X342455Y179894D01*
X341968Y180430D01*
X341468Y180955D01*
X340955Y181468D01*
X340430Y181968D01*
X339894Y182455D01*
X339345Y182929D01*
X338786Y183390D01*
X338215Y183837D01*
X337634Y184271D01*
X337042Y184690D01*
X336440Y185094D01*
X335829Y185484D01*
X335209Y185859D01*
X334580Y186219D01*
X333942Y186564D01*
X333296Y186893D01*
X332642Y187206D01*
X331981Y187504D01*
X331313Y187785D01*
X330638Y188050D01*
X329957Y188299D01*
X329271Y188532D01*
X328578Y188747D01*
X327881Y188946D01*
X327179Y189128D01*
X326474Y189293D01*
X325764Y189441D01*
X325051Y189572D01*
X324335Y189685D01*
X323616Y189781D01*
X322895Y189860D01*
X322173Y189921D01*
X321449Y189965D01*
X320725Y189991D01*
X320000Y190000D01*
X43600Y117000D02*
X43602Y117134D01*
X43608Y117268D01*
X43618Y117401D01*
X43632Y117535D01*
X43650Y117668D01*
X43672Y117800D01*
X43697Y117931D01*
X43727Y118062D01*
X43761Y118192D01*
X43798Y118320D01*
X43839Y118448D01*
X43884Y118574D01*
X43933Y118699D01*
X43985Y118822D01*
X44041Y118944D01*
X44101Y119064D01*
X44164Y119182D01*
X44231Y119298D01*
X44301Y119412D01*
X44375Y119524D01*
X44452Y119634D01*
X44532Y119742D01*
X44615Y119847D01*
X44701Y119949D01*
X44790Y120049D01*
X44883Y120146D01*
X44978Y120241D01*
X45076Y120332D01*
X45176Y120421D01*
X45279Y120506D01*
X45385Y120589D01*
X45493Y120668D01*
X45603Y120744D01*
X45716Y120817D01*
X45831Y120886D01*
X45947Y120952D01*
X46066Y121014D01*
X46186Y121073D01*
X46309Y121128D01*
X46432Y121180D01*
X46557Y121227D01*
X46684Y121271D01*
X46812Y121312D01*
X46941Y121348D01*
X47071Y121381D01*
X47202Y121409D01*
X47333Y121434D01*
X47466Y121455D01*
X47599Y121472D01*
X47732Y121485D01*
X47866Y121494D01*
X48000Y121499D01*
X48134Y121500D01*
X48267Y121497D01*
X48401Y121490D01*
X48535Y121479D01*
X48668Y121464D01*
X48801Y121445D01*
X48933Y121422D01*
X49064Y121396D01*
X49194Y121365D01*
X49324Y121330D01*
X49452Y121292D01*
X49579Y121250D01*
X49705Y121204D01*
X49830Y121154D01*
X49953Y121101D01*
X50074Y121044D01*
X50194Y120983D01*
X50311Y120919D01*
X50427Y120852D01*
X50541Y120781D01*
X50652Y120706D01*
X50761Y120629D01*
X50868Y120548D01*
X50973Y120464D01*
X51074Y120377D01*
X51174Y120287D01*
X51270Y120194D01*
X51364Y120098D01*
X51455Y119999D01*
X51542Y119898D01*
X51627Y119794D01*
X51709Y119688D01*
X51787Y119580D01*
X51862Y119469D01*
X51934Y119356D01*
X52003Y119240D01*
X52068Y119123D01*
X52129Y119004D01*
X52187Y118883D01*
X52241Y118761D01*
X52292Y118637D01*
X52339Y118511D01*
X52382Y118384D01*
X52421Y118256D01*
X52457Y118127D01*
X52488Y117997D01*
X52516Y117866D01*
X52540Y117734D01*
X52560Y117601D01*
X52576Y117468D01*
X52588Y117335D01*
X52596Y117201D01*
X52600Y117067D01*
X52600Y116933D01*
X52596Y116799D01*
X52588Y116665D01*
X52576Y116532D01*
X52560Y116399D01*
X52540Y116266D01*
X52516Y116134D01*
X52488Y116003D01*
X52457Y115873D01*
X52421Y115744D01*
X52382Y115616D01*
X52339Y115489D01*
X52292Y115363D01*
X52241Y115239D01*
X52187Y115117D01*
X52129Y114996D01*
X52068Y114877D01*
X52003Y114760D01*
X51934Y114644D01*
X51862Y114531D01*
X51787Y114420D01*
X51709Y114312D01*
X51627Y114206D01*
X51542Y114102D01*
X51455Y114001D01*
X51364Y113902D01*
X51270Y113806D01*
X51174Y113713D01*
X51074Y113623D01*
X50973Y113536D01*
X50868Y113452D01*
X50761Y113371D01*
X50652Y113294D01*
X50541Y113219D01*
X50427Y113148D01*
X50311Y113081D01*
X50194Y113017D01*
X50074Y112956D01*
X49953Y112899D01*
X49830Y112846D01*
X49705Y112796D01*
X49579Y112750D01*
X49452Y112708D01*
X49324Y112670D01*
X49194Y112635D01*
X49064Y112604D01*
X48933Y112578D01*
X48801Y112555D01*
X48668Y112536D01*
X48535Y112521D01*
X48401Y112510D01*
X48267Y112503D01*
X48134Y112500D01*
X48000Y112501D01*
X47866Y112506D01*
X47732Y112515D01*
X47599Y112528D01*
X47466Y112545D01*
X47333Y112566D01*
X47202Y112591D01*
X47071Y112619D01*
X46941Y112652D01*
X46812Y112688D01*
X46684Y112729D01*
X46557Y112773D01*
X46432Y112820D01*
X46309Y112872D01*
X46186Y112927D01*
X46066Y112986D01*
X45947Y113048D01*
X45831Y113114D01*
X45716Y113183D01*
X45603Y113256D01*
X45493Y113332D01*
X45385Y113411D01*
X45279Y113494D01*
X45176Y113579D01*
X45076Y113668D01*
X44978Y113759D01*
X44883Y113854D01*
X44790Y113951D01*
X44701Y114051D01*
X44615Y114153D01*
X44532Y114258D01*
X44452Y114366D01*
X44375Y114476D01*
X44301Y114588D01*
X44231Y114702D01*
X44164Y114818D01*
X44101Y114936D01*
X44041Y115056D01*
X43985Y115178D01*
X43933Y115301D01*
X43884Y115426D01*
X43839Y115552D01*
X43798Y115680D01*
X43761Y115808D01*
X43727Y115938D01*
X43697Y116069D01*
X43672Y116200D01*
X43650Y116332D01*
X43632Y116465D01*
X43618Y116599D01*
X43608Y116732D01*
X43602Y116866D01*
X43600Y117000D01*
X43600Y73000D02*
X43602Y73134D01*
X43608Y73268D01*
X43618Y73401D01*
X43632Y73535D01*
X43650Y73668D01*
X43672Y73800D01*
X43697Y73931D01*
X43727Y74062D01*
X43761Y74192D01*
X43798Y74320D01*
X43839Y74448D01*
X43884Y74574D01*
X43933Y74699D01*
X43985Y74822D01*
X44041Y74944D01*
X44101Y75064D01*
X44164Y75182D01*
X44231Y75298D01*
X44301Y75412D01*
X44375Y75524D01*
X44452Y75634D01*
X44532Y75742D01*
X44615Y75847D01*
X44701Y75949D01*
X44790Y76049D01*
X44883Y76146D01*
X44978Y76241D01*
X45076Y76332D01*
X45176Y76421D01*
X45279Y76506D01*
X45385Y76589D01*
X45493Y76668D01*
X45603Y76744D01*
X45716Y76817D01*
X45831Y76886D01*
X45947Y76952D01*
X46066Y77014D01*
X46186Y77073D01*
X46309Y77128D01*
X46432Y77180D01*
X46557Y77227D01*
X46684Y77271D01*
X46812Y77312D01*
X46941Y77348D01*
X47071Y77381D01*
X47202Y77409D01*
X47333Y77434D01*
X47466Y77455D01*
X47599Y77472D01*
X47732Y77485D01*
X47866Y77494D01*
X48000Y77499D01*
X48134Y77500D01*
X48267Y77497D01*
X48401Y77490D01*
X48535Y77479D01*
X48668Y77464D01*
X48801Y77445D01*
X48933Y77422D01*
X49064Y77396D01*
X49194Y77365D01*
X49324Y77330D01*
X49452Y77292D01*
X49579Y77250D01*
X49705Y77204D01*
X49830Y77154D01*
X49953Y77101D01*
X50074Y77044D01*
X50194Y76983D01*
X50311Y76919D01*
X50427Y76852D01*
X50541Y76781D01*
X50652Y76706D01*
X50761Y76629D01*
X50868Y76548D01*
X50973Y76464D01*
X51074Y76377D01*
X51174Y76287D01*
X51270Y76194D01*
X51364Y76098D01*
X51455Y75999D01*
X51542Y75898D01*
X51627Y75794D01*
X51709Y75688D01*
X51787Y75580D01*
X51862Y75469D01*
X51934Y75356D01*
X52003Y75240D01*
X52068Y75123D01*
X52129Y75004D01*
X52187Y74883D01*
X52241Y74761D01*
X52292Y74637D01*
X52339Y74511D01*
X52382Y74384D01*
X52421Y74256D01*
X52457Y74127D01*
X52488Y73997D01*
X52516Y73866D01*
X52540Y73734D01*
X52560Y73601D01*
X52576Y73468D01*
X52588Y73335D01*
X52596Y73201D01*
X52600Y73067D01*
X52600Y72933D01*
X52596Y72799D01*
X52588Y72665D01*
X52576Y72532D01*
X52560Y72399D01*
X52540Y72266D01*
X52516Y72134D01*
X52488Y72003D01*
X52457Y71873D01*
X52421Y71744D01*
X52382Y71616D01*
X52339Y71489D01*
X52292Y71363D01*
X52241Y71239D01*
X52187Y71117D01*
X52129Y70996D01*
X52068Y70877D01*
X52003Y70760D01*
X51934Y70644D01*
X51862Y70531D01*
X51787Y70420D01*
X51709Y70312D01*
X51627Y70206D01*
X51542Y70102D01*
X51455Y70001D01*
X51364Y69902D01*
X51270Y69806D01*
X51174Y69713D01*
X51074Y69623D01*
X50973Y69536D01*
X50868Y69452D01*
X50761Y69371D01*
X50652Y69294D01*
X50541Y69219D01*
X50427Y69148D01*
X50311Y69081D01*
X50194Y69017D01*
X50074Y68956D01*
X49953Y68899D01*
X49830Y68846D01*
X49705Y68796D01*
X49579Y68750D01*
X49452Y68708D01*
X49324Y68670D01*
X49194Y68635D01*
X49064Y68604D01*
X48933Y68578D01*
X48801Y68555D01*
X48668Y68536D01*
X48535Y68521D01*
X48401Y68510D01*
X48267Y68503D01*
X48134Y68500D01*
X48000Y68501D01*
X47866Y68506D01*
X47732Y68515D01*
X47599Y68528D01*
X47466Y68545D01*
X47333Y68566D01*
X47202Y68591D01*
X47071Y68619D01*
X46941Y68652D01*
X46812Y68688D01*
X46684Y68729D01*
X46557Y68773D01*
X46432Y68820D01*
X46309Y68872D01*
X46186Y68927D01*
X46066Y68986D01*
X45947Y69048D01*
X45831Y69114D01*
X45716Y69183D01*
X45603Y69256D01*
X45493Y69332D01*
X45385Y69411D01*
X45279Y69494D01*
X45176Y69579D01*
X45076Y69668D01*
X44978Y69759D01*
X44883Y69854D01*
X44790Y69951D01*
X44701Y70051D01*
X44615Y70153D01*
X44532Y70258D01*
X44452Y70366D01*
X44375Y70476D01*
X44301Y70588D01*
X44231Y70702D01*
X44164Y70818D01*
X44101Y70936D01*
X44041Y71056D01*
X43985Y71178D01*
X43933Y71301D01*
X43884Y71426D01*
X43839Y71552D01*
X43798Y71680D01*
X43761Y71808D01*
X43727Y71938D01*
X43697Y72069D01*
X43672Y72200D01*
X43650Y72332D01*
X43632Y72465D01*
X43618Y72599D01*
X43608Y72732D01*
X43602Y72866D01*
X43600Y73000D01*
M02*
