G04 EAGLE Gerber X2 export*
%TF.Part,Single*%
%TF.FileFunction,Other,Solder Mask top*%
%TF.FilePolarity,Positive*%
%TF.GenerationSoftware,Autodesk,EAGLE,9.1.3*%
%TF.CreationDate,2018-09-03T05:04:02Z*%
G75*
%MOMM*%
%FSLAX34Y34*%
%LPD*%
%AMOC8*
5,1,8,0,0,1.08239X$1,22.5*%
G01*
%ADD10R,1.201600X1.501600*%
%ADD11R,1.301600X1.301600*%
%ADD12P,2.144431X8X112.500000*%
%ADD13R,2.501600X2.101600*%
%ADD14R,2.409600X0.601600*%
%ADD15C,1.001600*%
%ADD16R,0.701600X1.301600*%
%ADD17R,1.601600X1.301600*%
%ADD18R,1.701600X1.901600*%
%ADD19R,1.401600X1.601600*%
%ADD20R,1.301600X1.201600*%


D10*
X20163Y165100D03*
X40163Y165100D03*
D11*
X43838Y22288D03*
X22838Y22288D03*
D12*
X330200Y63500D03*
X304800Y63500D03*
X330200Y88900D03*
X304800Y88900D03*
X330200Y114300D03*
X304800Y114300D03*
D13*
X73100Y139000D03*
D14*
X78740Y111000D03*
X78740Y103000D03*
X78740Y95000D03*
X78740Y87000D03*
X78740Y79000D03*
D13*
X18100Y139000D03*
X73100Y51000D03*
X18100Y51000D03*
D15*
X48100Y117000D03*
X48100Y73000D03*
D16*
X260350Y78800D03*
X247650Y78800D03*
X234950Y78800D03*
X222250Y78800D03*
X209550Y78800D03*
X196850Y78800D03*
X184150Y78800D03*
X184150Y22800D03*
X196850Y22800D03*
X209550Y22800D03*
X222250Y22800D03*
X234950Y22800D03*
X247650Y22800D03*
X260350Y22800D03*
D17*
X112500Y88900D03*
X141500Y88900D03*
X112500Y139700D03*
X141500Y139700D03*
D18*
X124113Y22225D03*
X152113Y22225D03*
D10*
X137000Y165100D03*
X117000Y165100D03*
X137000Y63500D03*
X117000Y63500D03*
X66200Y165100D03*
X86200Y165100D03*
D19*
X117500Y114300D03*
X136500Y114300D03*
X190475Y114300D03*
X171475Y114300D03*
X190475Y139700D03*
X171475Y139700D03*
D10*
X170975Y165100D03*
X190975Y165100D03*
D20*
X253050Y134163D03*
X229550Y134163D03*
X229550Y116663D03*
X253050Y116663D03*
D18*
X69488Y22263D03*
X97488Y22263D03*
D11*
X310175Y166688D03*
X331175Y166688D03*
D10*
X332263Y142875D03*
X312263Y142875D03*
M02*
