%
M48
METRIC,000.000
T04C0.50
T03C0.90
T02C1.02
T01C2.00
%
T04
X025206Y021762
X017744Y022715
X019968Y022080
X021079Y033828
X007744Y022398
X007902Y019381
X022190Y037955
X009489Y032081
X019333Y027000
X009489Y037638
X022031Y026843
X019491Y037796
X009489Y017952
X023619Y017952
X022031Y039384
X011713Y046686
X014729Y032399
X012665Y032399
X010760Y032399
X023619Y044305
X017427Y034144
X016315Y034144
X019015Y023032
X018221Y027000
X025048Y041765
X046206Y021762
X038745Y022715
X040968Y022080
X042079Y033828
X028744Y022398
X028902Y019381
X043190Y037955
X030490Y032081
X040333Y027000
X030490Y037638
X043031Y026843
X040491Y037796
X030490Y017952
X044619Y017952
X043031Y039384
X032713Y046686
X035729Y032399
X033665Y032399
X031760Y032399
X044619Y044305
X038427Y034144
X037316Y034144
X040015Y023032
X039221Y027000
X046048Y041765
X025206Y060763
X017744Y061715
X019968Y061080
X021079Y072828
X007744Y061398
X007902Y058381
X022190Y076955
X009489Y071081
X019333Y066001
X009489Y076638
X022031Y065843
X019491Y076795
X009489Y056952
X023619Y056952
X022031Y078384
X011713Y085686
X014729Y071399
X012665Y071399
X010760Y071399
X023619Y083305
X017427Y073145
X016315Y073145
X019015Y062032
X018221Y066001
X025048Y080765
X046206Y060763
X038745Y061715
X040968Y061080
X042079Y072828
X028744Y061398
X028902Y058381
X043190Y076955
X030490Y071081
X040333Y066001
X030490Y076638
X043031Y065843
X040491Y076795
X030490Y056952
X044619Y056952
X043031Y078384
X032713Y085686
X035729Y071399
X033665Y071399
X031760Y071399
X044619Y083305
X038427Y073145
X037316Y073145
X040015Y062032
X039221Y066001
X046048Y080765
X067206Y060763
X059745Y061715
X061968Y061080
X063079Y072828
X049744Y061398
X049902Y058381
X064190Y076955
X051489Y071081
X061333Y066001
X051489Y076638
X064031Y065843
X061491Y076795
X051489Y056952
X065619Y056952
X064031Y078384
X053713Y085686
X056729Y071399
X054665Y071399
X052760Y071399
X065619Y083305
X059427Y073145
X058316Y073145
X061015Y062032
X060221Y066001
X067048Y080765
X088206Y060763
X080745Y061715
X082968Y061080
X084079Y072828
X070744Y061398
X070902Y058381
X085190Y076955
X072490Y071081
X082333Y066001
X072490Y076638
X085031Y065843
X082491Y076795
X072490Y056952
X086619Y056952
X085031Y078384
X074713Y085686
X077729Y071399
X075665Y071399
X073760Y071399
X086619Y083305
X080427Y073145
X079316Y073145
X082015Y062032
X081221Y066001
X088048Y080765
X067206Y021762
X059745Y022715
X061968Y022080
X063079Y033828
X049744Y022398
X049902Y019381
X064190Y037955
X051489Y032081
X061333Y027000
X051489Y037638
X064031Y026843
X061491Y037796
X051489Y017952
X065619Y017952
X064031Y039384
X053713Y046686
X056729Y032399
X054665Y032399
X052760Y032399
X065619Y044305
X059427Y034144
X058316Y034144
X061015Y023032
X060221Y027000
X067048Y041765
X088206Y021762
X080745Y022715
X082968Y022080
X084079Y033828
X070744Y022398
X070902Y019381
X085190Y037955
X072490Y032081
X082333Y027000
X072490Y037638
X085031Y026843
X082491Y037796
X072490Y017952
X086619Y017952
X085031Y039384
X074713Y046686
X077729Y032399
X075665Y032399
X073760Y032399
X086619Y044305
X080427Y034144
X079316Y034144
X082015Y023032
X081221Y027000
X088048Y041765
X019209Y091250
X018209Y091250
X017209Y091250
X016209Y091250
X015209Y091250
X019406Y094747
X018406Y094747
X017406Y094747
X016406Y094747
X015406Y094747
X040209Y091250
X039209Y091250
X038209Y091250
X037209Y091250
X036209Y091250
X040406Y094747
X039406Y094747
X038406Y094747
X037406Y094747
X036406Y094747
X061209Y091250
X060209Y091250
X059209Y091250
X058209Y091250
X057209Y091250
X061406Y094747
X060406Y094747
X059406Y094747
X058406Y094747
X057406Y094747
X082209Y091250
X081209Y091250
X080209Y091250
X079209Y091250
X078209Y091250
X082406Y094747
X081406Y094747
X080406Y094747
X079406Y094747
X078406Y094747
X019209Y052250
X018209Y052250
X017209Y052250
X016209Y052250
X015209Y052250
X014580Y055750
X015580Y055750
X016580Y055750
X017580Y055750
X018580Y055750
X040209Y052250
X039209Y052250
X038209Y052250
X037209Y052250
X036209Y052250
X035580Y055750
X036580Y055750
X037580Y055750
X038580Y055750
X039580Y055750
X056580Y055750
X057580Y055750
X058580Y055750
X059580Y055750
X060580Y055750
X061209Y052250
X060209Y052250
X059209Y052250
X058209Y052250
X057209Y052250
X077580Y055750
X078580Y055750
X079580Y055750
X080580Y055750
X081580Y055750
X082209Y052250
X081209Y052250
X080209Y052250
X079209Y052250
X078209Y052250
X014580Y016750
X015580Y016750
X016580Y016750
X017580Y016750
X018580Y016750
X014954Y013248
X015954Y013248
X016954Y013248
X017954Y013248
X018954Y013248
X035580Y016750
X036580Y016750
X037580Y016750
X038580Y016750
X039580Y016750
X035954Y013248
X036954Y013248
X037954Y013248
X038954Y013248
X039954Y013248
X056580Y016750
X057580Y016750
X058580Y016750
X059580Y016750
X060580Y016750
X056954Y013248
X057954Y013248
X058954Y013248
X059954Y013248
X060954Y013248
X077580Y016750
X078580Y016750
X079580Y016750
X080580Y016750
X081580Y016750
X077954Y013248
X078954Y013248
X079954Y013248
X080954Y013248
X081954Y013248
T03
X014300Y021810
X018700Y021810
X035300Y021810
X039700Y021810
X014300Y060810
X018700Y060810
X035300Y060810
X039700Y060810
X056300Y060810
X060700Y060810
X077300Y060810
X081700Y060810
X056300Y021810
X060700Y021810
X077300Y021810
X081700Y021810
T02
X014570Y047480
X019650Y050020
X019650Y047480
X017110Y050020
X017110Y047480
X014570Y050020
X035570Y047480
X040650Y050020
X040650Y047480
X038110Y050020
X038110Y047480
X035570Y050020
X014570Y086480
X019650Y089020
X019650Y086480
X017110Y089020
X017110Y086480
X014570Y089020
X035570Y086480
X040650Y089020
X040650Y086480
X038110Y089020
X038110Y086480
X035570Y089020
X056570Y086480
X061650Y089020
X061650Y086480
X059110Y089020
X059110Y086480
X056570Y089020
X077570Y086480
X082650Y089020
X082650Y086480
X080110Y089020
X080110Y086480
X077570Y089020
X056570Y047480
X061650Y050020
X061650Y047480
X059110Y050020
X059110Y047480
X056570Y050020
X077570Y047480
X082650Y050020
X082650Y047480
X080110Y050020
X080110Y047480
X077570Y050020
T01
X023900Y049300
X044900Y049300
X023900Y088300
X044900Y088300
X065900Y088300
X086900Y088300
X065900Y049300
X086900Y049300
M30