%MOIN*%
%OFA0B0*%
%FSLAX44Y44*%
%IPPOS*%
%LPD*%
%AMOC8*
5,1,8,0,0,$1,112.5*%
%AMOC80*
5,1,8,0,0,$1,112.5*%
%AMOC81*
5,1,8,0,0,$1,112.5*%
%AMOC80*
5,1,8,0,0,$1,112.5*%
%AMOC81*
5,1,8,0,0,$1,112.5*%
%AMOC80*
5,1,8,0,0,$1,112.5*%
%AMOC81*
5,1,8,0,0,$1,112.5*%
%AMOC80*
5,1,8,0,0,$1,112.5*%
%ADD10P,0.084426417322834652X8X202.5*%
%ADD11C,0.039433070866141735*%
%ADD12R,0.054X0.029*%
%ADD23P,0.084426417322834652X8X202.5*%
%ADD24C,0.039433070866141735*%
%ADD25R,0.054X0.029*%
%ADD26P,0.084426417322834652X8X202.5*%
%ADD27C,0.039433070866141735*%
%ADD28R,0.054X0.029*%
%ADD29P,0.084426417322834652X8X202.5*%
%ADD30C,0.039433070866141735*%
%ADD31R,0.054X0.029*%
%ADD32P,0.084426417322834652X8X202.5*%
%ADD33C,0.039433070866141735*%
%ADD34R,0.054X0.029*%
%ADD35P,0.084426417322834652X8X202.5*%
%ADD36C,0.039433070866141735*%
%ADD37R,0.054X0.029*%
%ADD38P,0.084426417322834652X8X202.5*%
%ADD39C,0.039433070866141735*%
%ADD40R,0.054X0.029*%
%ADD41P,0.084426417322834652X8X202.5*%
%ADD42C,0.039433070866141735*%
%ADD43R,0.054X0.029*%
G75*
G01*
D10*
X00010236Y00006692D02*
X00007736Y00019692D03*
X00007736Y00018692D03*
X00006736Y00019692D03*
X00006736Y00018692D03*
X00005736Y00019692D03*
X00005736Y00018692D03*
D11*
X00005629Y00008586D03*
X00007362Y00008586D03*
D12*
X00008236Y00014035D03*
X00008236Y00014355D03*
X00008236Y00016600D03*
X00008236Y00016280D03*
G04 next file*
G04 EAGLE Gerber X2 export*
G75*
G01*
D23*
X00018503Y00006692D02*
X00016003Y00019692D03*
X00016003Y00018692D03*
X00015003Y00019692D03*
X00015003Y00018692D03*
X00014003Y00019692D03*
X00014003Y00018692D03*
D24*
X00013897Y00008586D03*
X00015629Y00008586D03*
D25*
X00016503Y00014035D03*
X00016503Y00014355D03*
X00016503Y00016600D03*
X00016503Y00016280D03*
G04 next file*
G04 EAGLE Gerber X2 export*
G75*
G01*
D26*
X00010236Y00022047D02*
X00007736Y00035047D03*
X00007736Y00034047D03*
X00006736Y00035047D03*
X00006736Y00034047D03*
X00005736Y00035047D03*
X00005736Y00034047D03*
D27*
X00005629Y00023940D03*
X00007362Y00023940D03*
D28*
X00008236Y00029389D03*
X00008236Y00029709D03*
X00008236Y00031955D03*
X00008236Y00031634D03*
G04 next file*
G04 EAGLE Gerber X2 export*
G75*
G01*
D29*
X00018503Y00022047D02*
X00016003Y00035047D03*
X00016003Y00034047D03*
X00015003Y00035047D03*
X00015003Y00034047D03*
X00014003Y00035047D03*
X00014003Y00034047D03*
D30*
X00013897Y00023940D03*
X00015629Y00023940D03*
D31*
X00016503Y00029389D03*
X00016503Y00029709D03*
X00016503Y00031955D03*
X00016503Y00031634D03*
G04 next file*
G04 EAGLE Gerber X2 export*
G75*
G01*
D32*
X00026771Y00022047D02*
X00024271Y00035047D03*
X00024271Y00034047D03*
X00023271Y00035047D03*
X00023271Y00034047D03*
X00022271Y00035047D03*
X00022271Y00034047D03*
D33*
X00022165Y00023940D03*
X00023897Y00023940D03*
D34*
X00024771Y00029389D03*
X00024771Y00029709D03*
X00024771Y00031955D03*
X00024771Y00031634D03*
G04 next file*
G04 EAGLE Gerber X2 export*
G75*
G01*
D35*
X00035039Y00022047D02*
X00032539Y00035047D03*
X00032539Y00034047D03*
X00031539Y00035047D03*
X00031539Y00034047D03*
X00030539Y00035047D03*
X00030539Y00034047D03*
D36*
X00030433Y00023940D03*
X00032165Y00023940D03*
D37*
X00033039Y00029389D03*
X00033039Y00029709D03*
X00033039Y00031955D03*
X00033039Y00031634D03*
G04 next file*
G04 EAGLE Gerber X2 export*
G75*
G01*
D38*
X00026771Y00006692D02*
X00024271Y00019692D03*
X00024271Y00018692D03*
X00023271Y00019692D03*
X00023271Y00018692D03*
X00022271Y00019692D03*
X00022271Y00018692D03*
D39*
X00022165Y00008586D03*
X00023897Y00008586D03*
D40*
X00024771Y00014035D03*
X00024771Y00014355D03*
X00024771Y00016600D03*
X00024771Y00016280D03*
G04 next file*
G04 EAGLE Gerber X2 export*
G75*
G01*
D41*
X00035039Y00006692D02*
X00032539Y00019692D03*
X00032539Y00018692D03*
X00031539Y00019692D03*
X00031539Y00018692D03*
X00030539Y00019692D03*
X00030539Y00018692D03*
D42*
X00030433Y00008586D03*
X00032165Y00008586D03*
D43*
X00033039Y00014035D03*
X00033039Y00014355D03*
X00033039Y00016600D03*
X00033039Y00016280D03*
G04 next file*
M02*