%MOIN*%
%OFA0B0*%
%FSLAX44Y44*%
%IPPOS*%
%LPD*%
%AMOC8*
5,1,8,0,0,$1,112.5*%
%AMOC80*
5,1,8,0,0,$1,112.5*%
%AMOC81*
5,1,8,0,0,$1,112.5*%
%AMOC80*
5,1,8,0,0,$1,112.5*%
%AMOC81*
5,1,8,0,0,$1,112.5*%
%AMOC80*
5,1,8,0,0,$1,112.5*%
%AMOC81*
5,1,8,0,0,$1,112.5*%
%AMOC80*
5,1,8,0,0,$1,112.5*%
%ADD10R,0.059118110236220475X0.047307086614173231*%
%ADD11R,0.051244094488188986X0.051244094488188986*%
%ADD12P,0.084426417322834652X8X202.5*%
%ADD13R,0.082740157480314963X0.098488188976377955*%
%ADD14R,0.023685039370078743X0.094866141732283471*%
%ADD15C,0.039433070866141735*%
%ADD16R,0.051244094488188986X0.027622047244094491*%
%ADD17R,0.051244094488188986X0.063055118110236216*%
%ADD18R,0.074866141732283467X0.066992125984251971*%
%ADD19R,0.063055118110236216X0.055181102362204727*%
%ADD20R,0.047307086614173231X0.051244094488188986*%
%ADD31R,0.059118110236220475X0.047307086614173231*%
%ADD32R,0.051244094488188986X0.051244094488188986*%
%ADD33P,0.084426417322834652X8X202.5*%
%ADD34R,0.082740157480314963X0.098488188976377955*%
%ADD35R,0.023685039370078743X0.094866141732283471*%
%ADD36C,0.039433070866141735*%
%ADD37R,0.051244094488188986X0.027622047244094491*%
%ADD38R,0.051244094488188986X0.063055118110236216*%
%ADD39R,0.074866141732283467X0.066992125984251971*%
%ADD40R,0.063055118110236216X0.055181102362204727*%
%ADD41R,0.047307086614173231X0.051244094488188986*%
%ADD42R,0.059118110236220475X0.047307086614173231*%
%ADD43R,0.051244094488188986X0.051244094488188986*%
%ADD44P,0.084426417322834652X8X202.5*%
%ADD45R,0.082740157480314963X0.098488188976377955*%
%ADD46R,0.023685039370078743X0.094866141732283471*%
%ADD47C,0.039433070866141735*%
%ADD48R,0.051244094488188986X0.027622047244094491*%
%ADD49R,0.051244094488188986X0.063055118110236216*%
%ADD50R,0.074866141732283467X0.066992125984251971*%
%ADD51R,0.063055118110236216X0.055181102362204727*%
%ADD52R,0.047307086614173231X0.051244094488188986*%
%ADD53R,0.059118110236220475X0.047307086614173231*%
%ADD54R,0.051244094488188986X0.051244094488188986*%
%ADD55P,0.084426417322834652X8X202.5*%
%ADD56R,0.082740157480314963X0.098488188976377955*%
%ADD57R,0.023685039370078743X0.094866141732283471*%
%ADD58C,0.039433070866141735*%
%ADD59R,0.051244094488188986X0.027622047244094491*%
%ADD60R,0.051244094488188986X0.063055118110236216*%
%ADD61R,0.074866141732283467X0.066992125984251971*%
%ADD62R,0.063055118110236216X0.055181102362204727*%
%ADD63R,0.047307086614173231X0.051244094488188986*%
%ADD64R,0.059118110236220475X0.047307086614173231*%
%ADD65R,0.051244094488188986X0.051244094488188986*%
%ADD66P,0.084426417322834652X8X202.5*%
%ADD67R,0.082740157480314963X0.098488188976377955*%
%ADD68R,0.023685039370078743X0.094866141732283471*%
%ADD69C,0.039433070866141735*%
%ADD70R,0.051244094488188986X0.027622047244094491*%
%ADD71R,0.051244094488188986X0.063055118110236216*%
%ADD72R,0.074866141732283467X0.066992125984251971*%
%ADD73R,0.063055118110236216X0.055181102362204727*%
%ADD74R,0.047307086614173231X0.051244094488188986*%
%ADD75R,0.059118110236220475X0.047307086614173231*%
%ADD76R,0.051244094488188986X0.051244094488188986*%
%ADD77P,0.084426417322834652X8X202.5*%
%ADD78R,0.082740157480314963X0.098488188976377955*%
%ADD79R,0.023685039370078743X0.094866141732283471*%
%ADD80C,0.039433070866141735*%
%ADD81R,0.051244094488188986X0.027622047244094491*%
%ADD82R,0.051244094488188986X0.063055118110236216*%
%ADD83R,0.074866141732283467X0.066992125984251971*%
%ADD84R,0.063055118110236216X0.055181102362204727*%
%ADD85R,0.047307086614173231X0.051244094488188986*%
%ADD86R,0.059118110236220475X0.047307086614173231*%
%ADD87R,0.051244094488188986X0.051244094488188986*%
%ADD88P,0.084426417322834652X8X202.5*%
%ADD89R,0.082740157480314963X0.098488188976377955*%
%ADD90R,0.023685039370078743X0.094866141732283471*%
%ADD91C,0.039433070866141735*%
%ADD92R,0.051244094488188986X0.027622047244094491*%
%ADD93R,0.051244094488188986X0.063055118110236216*%
%ADD94R,0.074866141732283467X0.066992125984251971*%
%ADD95R,0.063055118110236216X0.055181102362204727*%
%ADD96R,0.047307086614173231X0.051244094488188986*%
%ADD97R,0.059118110236220475X0.047307086614173231*%
%ADD98R,0.051244094488188986X0.051244094488188986*%
%ADD99P,0.084426417322834652X8X202.5*%
%ADD100R,0.082740157480314963X0.098488188976377955*%
%ADD101R,0.023685039370078743X0.094866141732283471*%
%ADD102C,0.039433070866141735*%
%ADD103R,0.051244094488188986X0.027622047244094491*%
%ADD104R,0.051244094488188986X0.063055118110236216*%
%ADD105R,0.074866141732283467X0.066992125984251971*%
%ADD106R,0.063055118110236216X0.055181102362204727*%
%ADD107R,0.047307086614173231X0.051244094488188986*%
G75*
G01*
D10*
X00010236Y00006692D02*
X00003736Y00007486D03*
X00003736Y00008274D03*
D11*
X00009358Y00008418D03*
X00009358Y00007592D03*
D12*
X00007736Y00019692D03*
X00007736Y00018692D03*
X00006736Y00019692D03*
X00006736Y00018692D03*
X00005736Y00019692D03*
X00005736Y00018692D03*
D13*
X00004763Y00009570D03*
D14*
X00005866Y00009792D03*
X00006181Y00009792D03*
X00006496Y00009792D03*
X00006811Y00009792D03*
X00007125Y00009792D03*
D13*
X00004763Y00007405D03*
X00008228Y00009570D03*
X00008228Y00007405D03*
D15*
X00005629Y00008586D03*
X00007362Y00008586D03*
D16*
X00007133Y00016942D03*
X00007133Y00016442D03*
X00007133Y00015942D03*
X00007133Y00015442D03*
X00007133Y00014942D03*
X00007133Y00014442D03*
X00007133Y00013942D03*
X00009338Y00013942D03*
X00009338Y00014442D03*
X00009338Y00014942D03*
X00009338Y00015442D03*
X00009338Y00015942D03*
X00009338Y00016442D03*
X00009338Y00016942D03*
D17*
X00006736Y00011122D03*
X00006736Y00012263D03*
X00004736Y00011122D03*
X00004736Y00012263D03*
D18*
X00009361Y00011579D03*
X00009361Y00012681D03*
D10*
X00003736Y00012086D03*
X00003736Y00011299D03*
X00007736Y00012086D03*
X00007736Y00011299D03*
X00003736Y00009299D03*
X00003736Y00010086D03*
D19*
X00005736Y00011318D03*
X00005736Y00012066D03*
X00005736Y00014191D03*
X00005736Y00013443D03*
X00004736Y00014191D03*
X00004736Y00013443D03*
D10*
X00003736Y00013424D03*
X00003736Y00014211D03*
D20*
X00004954Y00016655D03*
X00004954Y00015730D03*
X00005643Y00015730D03*
X00005643Y00016655D03*
D18*
X00009359Y00009428D03*
X00009359Y00010531D03*
D11*
X00003673Y00018904D03*
X00003673Y00019731D03*
D10*
X00004611Y00019774D03*
X00004611Y00018986D03*
G04 next file*
G04 EAGLE Gerber X2 export*
G75*
G01*
D31*
X00018503Y00006692D02*
X00012003Y00007486D03*
X00012003Y00008274D03*
D32*
X00017626Y00008418D03*
X00017626Y00007592D03*
D33*
X00016003Y00019692D03*
X00016003Y00018692D03*
X00015003Y00019692D03*
X00015003Y00018692D03*
X00014003Y00019692D03*
X00014003Y00018692D03*
D34*
X00013031Y00009570D03*
D35*
X00014133Y00009792D03*
X00014448Y00009792D03*
X00014763Y00009792D03*
X00015078Y00009792D03*
X00015393Y00009792D03*
D34*
X00013031Y00007405D03*
X00016496Y00009570D03*
X00016496Y00007405D03*
D36*
X00013897Y00008586D03*
X00015629Y00008586D03*
D37*
X00015401Y00016942D03*
X00015401Y00016442D03*
X00015401Y00015942D03*
X00015401Y00015442D03*
X00015401Y00014942D03*
X00015401Y00014442D03*
X00015401Y00013942D03*
X00017606Y00013942D03*
X00017606Y00014442D03*
X00017606Y00014942D03*
X00017606Y00015442D03*
X00017606Y00015942D03*
X00017606Y00016442D03*
X00017606Y00016942D03*
D38*
X00015003Y00011122D03*
X00015003Y00012263D03*
X00013003Y00011122D03*
X00013003Y00012263D03*
D39*
X00017628Y00011579D03*
X00017628Y00012681D03*
D31*
X00012003Y00012086D03*
X00012003Y00011299D03*
X00016003Y00012086D03*
X00016003Y00011299D03*
X00012003Y00009299D03*
X00012003Y00010086D03*
D40*
X00014003Y00011318D03*
X00014003Y00012066D03*
X00014003Y00014191D03*
X00014003Y00013443D03*
X00013003Y00014191D03*
X00013003Y00013443D03*
D31*
X00012003Y00013424D03*
X00012003Y00014211D03*
D41*
X00013221Y00016655D03*
X00013221Y00015730D03*
X00013910Y00015730D03*
X00013910Y00016655D03*
D39*
X00017627Y00009428D03*
X00017627Y00010531D03*
D32*
X00011941Y00018904D03*
X00011941Y00019731D03*
D31*
X00012878Y00019774D03*
X00012878Y00018986D03*
G04 next file*
G04 EAGLE Gerber X2 export*
G75*
G01*
D42*
X00010236Y00022047D02*
X00003736Y00022841D03*
X00003736Y00023628D03*
D43*
X00009358Y00023773D03*
X00009358Y00022946D03*
D44*
X00007736Y00035047D03*
X00007736Y00034047D03*
X00006736Y00035047D03*
X00006736Y00034047D03*
X00005736Y00035047D03*
X00005736Y00034047D03*
D45*
X00004763Y00024925D03*
D46*
X00005866Y00025147D03*
X00006181Y00025147D03*
X00006496Y00025147D03*
X00006811Y00025147D03*
X00007125Y00025147D03*
D45*
X00004763Y00022759D03*
X00008228Y00024925D03*
X00008228Y00022759D03*
D47*
X00005629Y00023940D03*
X00007362Y00023940D03*
D48*
X00007133Y00032297D03*
X00007133Y00031797D03*
X00007133Y00031297D03*
X00007133Y00030797D03*
X00007133Y00030297D03*
X00007133Y00029797D03*
X00007133Y00029297D03*
X00009338Y00029297D03*
X00009338Y00029797D03*
X00009338Y00030297D03*
X00009338Y00030797D03*
X00009338Y00031297D03*
X00009338Y00031797D03*
X00009338Y00032297D03*
D49*
X00006736Y00026476D03*
X00006736Y00027618D03*
X00004736Y00026476D03*
X00004736Y00027618D03*
D50*
X00009361Y00026933D03*
X00009361Y00028035D03*
D42*
X00003736Y00027440D03*
X00003736Y00026653D03*
X00007736Y00027440D03*
X00007736Y00026653D03*
X00003736Y00024653D03*
X00003736Y00025440D03*
D51*
X00005736Y00026673D03*
X00005736Y00027421D03*
X00005736Y00029546D03*
X00005736Y00028798D03*
X00004736Y00029546D03*
X00004736Y00028798D03*
D42*
X00003736Y00028778D03*
X00003736Y00029565D03*
D52*
X00004954Y00032009D03*
X00004954Y00031084D03*
X00005643Y00031084D03*
X00005643Y00032009D03*
D50*
X00009359Y00024782D03*
X00009359Y00025885D03*
D43*
X00003673Y00034258D03*
X00003673Y00035085D03*
D42*
X00004611Y00035128D03*
X00004611Y00034341D03*
G04 next file*
G04 EAGLE Gerber X2 export*
G75*
G01*
D53*
X00018503Y00022047D02*
X00012003Y00022841D03*
X00012003Y00023628D03*
D54*
X00017626Y00023773D03*
X00017626Y00022946D03*
D55*
X00016003Y00035047D03*
X00016003Y00034047D03*
X00015003Y00035047D03*
X00015003Y00034047D03*
X00014003Y00035047D03*
X00014003Y00034047D03*
D56*
X00013031Y00024925D03*
D57*
X00014133Y00025147D03*
X00014448Y00025147D03*
X00014763Y00025147D03*
X00015078Y00025147D03*
X00015393Y00025147D03*
D56*
X00013031Y00022759D03*
X00016496Y00024925D03*
X00016496Y00022759D03*
D58*
X00013897Y00023940D03*
X00015629Y00023940D03*
D59*
X00015401Y00032297D03*
X00015401Y00031797D03*
X00015401Y00031297D03*
X00015401Y00030797D03*
X00015401Y00030297D03*
X00015401Y00029797D03*
X00015401Y00029297D03*
X00017606Y00029297D03*
X00017606Y00029797D03*
X00017606Y00030297D03*
X00017606Y00030797D03*
X00017606Y00031297D03*
X00017606Y00031797D03*
X00017606Y00032297D03*
D60*
X00015003Y00026476D03*
X00015003Y00027618D03*
X00013003Y00026476D03*
X00013003Y00027618D03*
D61*
X00017628Y00026933D03*
X00017628Y00028035D03*
D53*
X00012003Y00027440D03*
X00012003Y00026653D03*
X00016003Y00027440D03*
X00016003Y00026653D03*
X00012003Y00024653D03*
X00012003Y00025440D03*
D62*
X00014003Y00026673D03*
X00014003Y00027421D03*
X00014003Y00029546D03*
X00014003Y00028798D03*
X00013003Y00029546D03*
X00013003Y00028798D03*
D53*
X00012003Y00028778D03*
X00012003Y00029565D03*
D63*
X00013221Y00032009D03*
X00013221Y00031084D03*
X00013910Y00031084D03*
X00013910Y00032009D03*
D61*
X00017627Y00024782D03*
X00017627Y00025885D03*
D54*
X00011941Y00034258D03*
X00011941Y00035085D03*
D53*
X00012878Y00035128D03*
X00012878Y00034341D03*
G04 next file*
G04 EAGLE Gerber X2 export*
G75*
G01*
D64*
X00026771Y00022047D02*
X00020271Y00022841D03*
X00020271Y00023628D03*
D65*
X00025894Y00023773D03*
X00025894Y00022946D03*
D66*
X00024271Y00035047D03*
X00024271Y00034047D03*
X00023271Y00035047D03*
X00023271Y00034047D03*
X00022271Y00035047D03*
X00022271Y00034047D03*
D67*
X00021299Y00024925D03*
D68*
X00022401Y00025147D03*
X00022716Y00025147D03*
X00023031Y00025147D03*
X00023346Y00025147D03*
X00023661Y00025147D03*
D67*
X00021299Y00022759D03*
X00024763Y00024925D03*
X00024763Y00022759D03*
D69*
X00022165Y00023940D03*
X00023897Y00023940D03*
D70*
X00023669Y00032297D03*
X00023669Y00031797D03*
X00023669Y00031297D03*
X00023669Y00030797D03*
X00023669Y00030297D03*
X00023669Y00029797D03*
X00023669Y00029297D03*
X00025874Y00029297D03*
X00025874Y00029797D03*
X00025874Y00030297D03*
X00025874Y00030797D03*
X00025874Y00031297D03*
X00025874Y00031797D03*
X00025874Y00032297D03*
D71*
X00023271Y00026476D03*
X00023271Y00027618D03*
X00021271Y00026476D03*
X00021271Y00027618D03*
D72*
X00025896Y00026933D03*
X00025896Y00028035D03*
D64*
X00020271Y00027440D03*
X00020271Y00026653D03*
X00024271Y00027440D03*
X00024271Y00026653D03*
X00020271Y00024653D03*
X00020271Y00025440D03*
D73*
X00022271Y00026673D03*
X00022271Y00027421D03*
X00022271Y00029546D03*
X00022271Y00028798D03*
X00021271Y00029546D03*
X00021271Y00028798D03*
D64*
X00020271Y00028778D03*
X00020271Y00029565D03*
D74*
X00021489Y00032009D03*
X00021489Y00031084D03*
X00022178Y00031084D03*
X00022178Y00032009D03*
D72*
X00025895Y00024782D03*
X00025895Y00025885D03*
D65*
X00020209Y00034258D03*
X00020209Y00035085D03*
D64*
X00021146Y00035128D03*
X00021146Y00034341D03*
G04 next file*
G04 EAGLE Gerber X2 export*
G75*
G01*
D75*
X00035039Y00022047D02*
X00028539Y00022841D03*
X00028539Y00023628D03*
D76*
X00034161Y00023773D03*
X00034161Y00022946D03*
D77*
X00032539Y00035047D03*
X00032539Y00034047D03*
X00031539Y00035047D03*
X00031539Y00034047D03*
X00030539Y00035047D03*
X00030539Y00034047D03*
D78*
X00029566Y00024925D03*
D79*
X00030669Y00025147D03*
X00030984Y00025147D03*
X00031299Y00025147D03*
X00031614Y00025147D03*
X00031929Y00025147D03*
D78*
X00029566Y00022759D03*
X00033031Y00024925D03*
X00033031Y00022759D03*
D80*
X00030433Y00023940D03*
X00032165Y00023940D03*
D81*
X00031937Y00032297D03*
X00031937Y00031797D03*
X00031937Y00031297D03*
X00031937Y00030797D03*
X00031937Y00030297D03*
X00031937Y00029797D03*
X00031937Y00029297D03*
X00034141Y00029297D03*
X00034141Y00029797D03*
X00034141Y00030297D03*
X00034141Y00030797D03*
X00034141Y00031297D03*
X00034141Y00031797D03*
X00034141Y00032297D03*
D82*
X00031539Y00026476D03*
X00031539Y00027618D03*
X00029539Y00026476D03*
X00029539Y00027618D03*
D83*
X00034164Y00026933D03*
X00034164Y00028035D03*
D75*
X00028539Y00027440D03*
X00028539Y00026653D03*
X00032539Y00027440D03*
X00032539Y00026653D03*
X00028539Y00024653D03*
X00028539Y00025440D03*
D84*
X00030539Y00026673D03*
X00030539Y00027421D03*
X00030539Y00029546D03*
X00030539Y00028798D03*
X00029539Y00029546D03*
X00029539Y00028798D03*
D75*
X00028539Y00028778D03*
X00028539Y00029565D03*
D85*
X00029757Y00032009D03*
X00029757Y00031084D03*
X00030446Y00031084D03*
X00030446Y00032009D03*
D83*
X00034162Y00024782D03*
X00034162Y00025885D03*
D76*
X00028476Y00034258D03*
X00028476Y00035085D03*
D75*
X00029414Y00035128D03*
X00029414Y00034341D03*
G04 next file*
G04 EAGLE Gerber X2 export*
G75*
G01*
D86*
X00026771Y00006692D02*
X00020271Y00007486D03*
X00020271Y00008274D03*
D87*
X00025894Y00008418D03*
X00025894Y00007592D03*
D88*
X00024271Y00019692D03*
X00024271Y00018692D03*
X00023271Y00019692D03*
X00023271Y00018692D03*
X00022271Y00019692D03*
X00022271Y00018692D03*
D89*
X00021299Y00009570D03*
D90*
X00022401Y00009792D03*
X00022716Y00009792D03*
X00023031Y00009792D03*
X00023346Y00009792D03*
X00023661Y00009792D03*
D89*
X00021299Y00007405D03*
X00024763Y00009570D03*
X00024763Y00007405D03*
D91*
X00022165Y00008586D03*
X00023897Y00008586D03*
D92*
X00023669Y00016942D03*
X00023669Y00016442D03*
X00023669Y00015942D03*
X00023669Y00015442D03*
X00023669Y00014942D03*
X00023669Y00014442D03*
X00023669Y00013942D03*
X00025874Y00013942D03*
X00025874Y00014442D03*
X00025874Y00014942D03*
X00025874Y00015442D03*
X00025874Y00015942D03*
X00025874Y00016442D03*
X00025874Y00016942D03*
D93*
X00023271Y00011122D03*
X00023271Y00012263D03*
X00021271Y00011122D03*
X00021271Y00012263D03*
D94*
X00025896Y00011579D03*
X00025896Y00012681D03*
D86*
X00020271Y00012086D03*
X00020271Y00011299D03*
X00024271Y00012086D03*
X00024271Y00011299D03*
X00020271Y00009299D03*
X00020271Y00010086D03*
D95*
X00022271Y00011318D03*
X00022271Y00012066D03*
X00022271Y00014191D03*
X00022271Y00013443D03*
X00021271Y00014191D03*
X00021271Y00013443D03*
D86*
X00020271Y00013424D03*
X00020271Y00014211D03*
D96*
X00021489Y00016655D03*
X00021489Y00015730D03*
X00022178Y00015730D03*
X00022178Y00016655D03*
D94*
X00025895Y00009428D03*
X00025895Y00010531D03*
D87*
X00020209Y00018904D03*
X00020209Y00019731D03*
D86*
X00021146Y00019774D03*
X00021146Y00018986D03*
G04 next file*
G04 EAGLE Gerber X2 export*
G75*
G01*
D97*
X00035039Y00006692D02*
X00028539Y00007486D03*
X00028539Y00008274D03*
D98*
X00034161Y00008418D03*
X00034161Y00007592D03*
D99*
X00032539Y00019692D03*
X00032539Y00018692D03*
X00031539Y00019692D03*
X00031539Y00018692D03*
X00030539Y00019692D03*
X00030539Y00018692D03*
D100*
X00029566Y00009570D03*
D101*
X00030669Y00009792D03*
X00030984Y00009792D03*
X00031299Y00009792D03*
X00031614Y00009792D03*
X00031929Y00009792D03*
D100*
X00029566Y00007405D03*
X00033031Y00009570D03*
X00033031Y00007405D03*
D102*
X00030433Y00008586D03*
X00032165Y00008586D03*
D103*
X00031937Y00016942D03*
X00031937Y00016442D03*
X00031937Y00015942D03*
X00031937Y00015442D03*
X00031937Y00014942D03*
X00031937Y00014442D03*
X00031937Y00013942D03*
X00034141Y00013942D03*
X00034141Y00014442D03*
X00034141Y00014942D03*
X00034141Y00015442D03*
X00034141Y00015942D03*
X00034141Y00016442D03*
X00034141Y00016942D03*
D104*
X00031539Y00011122D03*
X00031539Y00012263D03*
X00029539Y00011122D03*
X00029539Y00012263D03*
D105*
X00034164Y00011579D03*
X00034164Y00012681D03*
D97*
X00028539Y00012086D03*
X00028539Y00011299D03*
X00032539Y00012086D03*
X00032539Y00011299D03*
X00028539Y00009299D03*
X00028539Y00010086D03*
D106*
X00030539Y00011318D03*
X00030539Y00012066D03*
X00030539Y00014191D03*
X00030539Y00013443D03*
X00029539Y00014191D03*
X00029539Y00013443D03*
D97*
X00028539Y00013424D03*
X00028539Y00014211D03*
D107*
X00029757Y00016655D03*
X00029757Y00015730D03*
X00030446Y00015730D03*
X00030446Y00016655D03*
D105*
X00034162Y00009428D03*
X00034162Y00010531D03*
D98*
X00028476Y00018904D03*
X00028476Y00019731D03*
D97*
X00029414Y00019774D03*
X00029414Y00018986D03*
G04 next file*
M02*