%
M48
M72
T01C0.0197
T02C0.0236
T03C0.0354
T04C0.0400
%
T01
X811Y1363
X2311Y738
X4311Y1988
X4374Y3050
X4374Y3488
X2811Y3175
X2686Y3675
X2436Y2800
X811Y6925
X1374Y7550
X2561Y7613
X2311Y9399
X811Y10024
X2436Y11461
X2811Y11836
X2686Y12336
X4374Y12149
X4374Y11711
X4311Y10649
X7061Y11024
X7186Y12461
X7186Y12899
X6499Y13524
X6499Y14336
X6499Y15086
X6374Y15586
X8561Y15586
X10186Y18123
X11186Y18685
X9249Y19310
X8686Y19248
X8624Y20310
X7186Y21123
X7186Y21560
X6499Y22185
X6499Y22998
X6499Y23748
X6374Y24248
X8561Y24248
X10186Y26784
X11186Y27347
X9249Y27972
X8686Y27909
X8624Y28972
X7186Y29784
X7186Y30222
X6499Y30847
X6499Y31659
X6499Y32409
X6374Y32909
X8561Y32909
X9964Y33890
X10279Y33890
X10594Y33890
X10908Y33890
X10908Y35464
X10594Y35464
X10279Y35464
X9964Y35464
X12124Y32034
X14216Y30622
X14216Y30307
X14216Y29992
X14216Y29677
X15790Y29677
X15790Y29992
X15790Y30307
X15790Y30622
X17790Y28784
X18165Y29159
X18040Y29659
X19728Y29472
X19728Y29034
X19665Y27972
X17665Y26722
X16165Y27347
X16728Y24873
X16165Y24248
X17915Y24935
X15790Y21960
X15790Y21645
X15790Y21331
X15790Y21016
X14216Y21016
X14216Y21331
X14216Y21645
X14216Y21960
X12124Y23373
X16165Y18685
X17665Y18060
X17915Y16274
X16728Y16211
X16165Y15586
X15790Y13299
X15790Y12984
X15790Y12669
X15790Y12354
X14216Y12354
X14216Y12669
X14216Y12984
X14216Y13299
X12124Y14711
X8624Y11649
X8686Y10586
X9249Y10649
X10186Y9461
X11186Y10024
X8561Y6925
X6499Y6425
X6374Y6925
X6499Y5675
X6499Y4863
X7186Y4238
X7186Y3800
X7061Y2363
X8624Y2988
X9249Y1988
X8686Y1925
X10186Y800
X11186Y1363
X14216Y3693
X14216Y4008
X14216Y4323
X14216Y4638
X15830Y4638
X15830Y4323
X15830Y4008
X15830Y3693
X17830Y2800
X18205Y3175
X18080Y3675
X19767Y3488
X19767Y3050
X19705Y1988
X17705Y738
X16205Y1363
X12124Y6050
X16205Y6925
X16767Y7550
X17955Y7613
X17665Y9399
X16165Y10024
X17790Y11461
X18165Y11836
X18040Y12336
X19728Y12149
X19728Y11711
X19665Y10649
X22415Y11024
X22540Y12461
X22540Y12899
X21853Y13524
X21853Y14336
X21853Y15086
X21728Y15586
X23915Y15586
X25540Y18123
X26540Y18685
X24603Y19310
X24040Y19248
X23978Y20310
X22540Y21123
X22540Y21560
X21853Y22185
X21853Y22998
X21853Y23748
X21728Y24248
X23915Y24248
X25540Y26784
X26540Y27347
X24603Y27972
X24040Y27909
X23978Y28972
X22540Y29784
X22540Y30222
X21853Y30847
X21853Y31659
X21853Y32409
X21728Y32909
X23915Y32909
X27478Y32034
X29570Y30622
X29570Y30307
X29570Y29992
X29570Y29677
X31145Y29677
X31145Y29992
X31145Y30307
X31145Y30622
X31457Y31188
X32082Y32688
X33520Y31063
X33895Y30688
X34395Y30813
X34207Y29125
X33770Y29125
X32707Y29188
X33082Y26438
X34520Y26313
X34957Y26313
X35582Y27000
X36395Y27000
X37145Y27000
X37645Y27125
X37645Y24938
X36770Y21375
X35397Y19283
X35082Y19283
X34767Y19283
X34452Y19283
X32082Y22313
X31145Y21960
X31145Y21645
X31145Y21331
X31145Y21016
X29570Y21016
X29570Y21331
X29570Y21645
X29570Y21960
X31520Y23313
X32707Y24250
X32645Y24813
X33707Y24875
X27478Y23373
X22415Y19685
X19728Y20373
X19728Y20810
X19665Y19310
X18165Y20498
X18040Y20998
X17790Y20123
X22415Y28347
X17915Y33597
X16728Y33534
X16165Y32909
X7061Y28347
X4374Y29034
X4374Y29472
X4311Y27972
X2811Y29159
X2686Y29659
X2436Y28784
X811Y27347
X2311Y26722
X2561Y24935
X1374Y24873
X811Y24248
X2686Y20998
X2811Y20498
X2436Y20123
X811Y18685
X2311Y18060
X2561Y16274
X1374Y16211
X811Y15586
X4311Y19310
X4374Y20373
X4374Y20810
X7061Y19685
X811Y32909
X1374Y33534
X2561Y33597
X23978Y11649
X24040Y10586
X24603Y10649
X25540Y9461
X26540Y10024
X29570Y12354
X29570Y12669
X29570Y12984
X29570Y13299
X31184Y13299
X31184Y12984
X31184Y12669
X31184Y12354
X31497Y13865
X32122Y15365
X33559Y13740
X33934Y13365
X34434Y13490
X34247Y11802
X33809Y11802
X32747Y11865
X33122Y9115
X34559Y8990
X34997Y8990
X35622Y9677
X36434Y9677
X37184Y9677
X37684Y9802
X37684Y7615
X36809Y4052
X33747Y7552
X32684Y7490
X32747Y6927
X31559Y5990
X32122Y4990
X31184Y4638
X31184Y4323
X31184Y4008
X31184Y3693
X29609Y3693
X29609Y4008
X29609Y4323
X29609Y4638
X27517Y6050
X24017Y2988
X24642Y1988
X24080Y1925
X25580Y800
X26580Y1363
X22455Y2363
X22580Y3800
X22580Y4238
X21892Y4863
X21892Y5675
X21892Y6425
X21767Y6925
X23955Y6925
X27478Y14711
X34452Y15740
X34767Y15740
X35082Y15740
X35397Y15740
X37684Y15365
X38309Y14802
X38372Y13615
X38332Y30938
X38270Y32125
X37645Y32688
X35357Y33063
X35042Y33063
X34727Y33063
X34412Y33063
X34412Y35464
X34727Y35464
X35042Y35464
X35357Y35464
T02
X37798Y37079
X2247Y37079
T03
X2330Y31016
X2330Y29283
X2330Y22354
X2330Y20622
X2330Y13693
X2330Y11960
X2330Y5031
X2330Y3299
X17723Y3299
X17723Y5031
X17684Y11960
X17684Y13693
X17684Y20622
X17684Y22354
X17684Y29283
X17684Y31016
X34019Y31169
X35751Y31169
X35790Y13846
X34058Y13846
T04
X28790Y13586
X28790Y12586
X27790Y12586
X27790Y13586
X27790Y11586
X28790Y11586
X28830Y4925
X28830Y3925
X27830Y3925
X27830Y4925
X27830Y2925
X28830Y2925
X33684Y2740
X33684Y3740
X34684Y3740
X35684Y3740
X35684Y2740
X34684Y2740
X34645Y20063
X35645Y20063
X35645Y21063
X34645Y21063
X33645Y21063
X33645Y20063
X28790Y20248
X27790Y20248
X27790Y21248
X27790Y22248
X28790Y22248
X28790Y21248
X28790Y28909
X27790Y28909
X27790Y29909
X27790Y30909
X28790Y30909
X28790Y29909
X13436Y29909
X13436Y30909
X12436Y30909
X12436Y29909
X12436Y28909
X13436Y28909
X13436Y22248
X13436Y21248
X12436Y21248
X12436Y22248
X12436Y20248
X13436Y20248
X13436Y13586
X13436Y12586
X13436Y11586
X12436Y11586
X12436Y12586
X12436Y13586
X12436Y4925
X12436Y3925
X12436Y2925
X13436Y2925
X13436Y3925
X13436Y4925
M30
